<svg xmlns="http://www.w3.org/2000/svg" xmlns:xlink="http://www.w3.org/1999/xlink" width="17.993" height="15.63" viewBox="0 0 17.993 15.63"><defs><style>.a{fill:#646d82;}.b{clip-path:url(#a);}</style><clipPath id="a"><rect class="a" width="17.993" height="15.63"/></clipPath></defs><g transform="translate(0 0)"><g class="b" transform="translate(0 0)"><path class="a" d="M.724,201.783h16.4a.724.724,0,1,1,0,1.447H.724a.724.724,0,0,1,0-1.447" transform="translate(0.144 -194.692)"/><path class="a" d="M269.252,7.3,276.343.212a.724.724,0,0,1,1.023,1.023l-6.579,6.58,6.579,6.58a.723.723,0,1,1-1.023,1.023l-7.091-7.091a.724.724,0,0,1,0-1.023" transform="translate(-269.04 0)"/></g></g></svg>