<svg xmlns="http://www.w3.org/2000/svg" xmlns:xlink="http://www.w3.org/1999/xlink" width="24" height="24" viewBox="0 0 24 24"><defs><style>.a{fill:#646d82;}.b{clip-path:url(#a);}</style><clipPath id="a"><rect class="a" width="24" height="24" transform="translate(0 -0.187)"/></clipPath></defs><g transform="translate(0.434 0.993)"><g class="b" transform="translate(-0.434 -0.807)"><path class="a" d="M236.585,363.627a.959.959,0,1,1-.959-.959.959.959,0,0,1,.959.959" transform="translate(-223.692 -345.565)"/><path class="a" d="M11.5,23.007a11.5,11.5,0,1,1,11.5-11.5,11.516,11.516,0,0,1-11.5,11.5m0-21.569A10.065,10.065,0,1,0,21.569,11.5,10.077,10.077,0,0,0,11.5,1.438" transform="translate(0.431 0.807)"/><path class="a" d="M169.406,95.637a.719.719,0,0,1-.719-.719V93.95a2.161,2.161,0,0,1,1.44-2.034,2.974,2.974,0,0,0,1.915-2.51,2.636,2.636,0,1,0-5.273,0,.719.719,0,1,1-1.438,0,4.074,4.074,0,1,1,8.148,0,4.411,4.411,0,0,1-2.875,3.866.719.719,0,0,0-.48.679v.967a.719.719,0,0,1-.719.719" transform="translate(-157.472 -80.691)"/></g></g></svg>