<svg xmlns="http://www.w3.org/2000/svg" xmlns:xlink="http://www.w3.org/1999/xlink" width="287.953" height="134.622" viewBox="0 0 287.953 134.622"><defs><style>.a{fill:none;}.b{fill:#2cd889;}.c{fill:#f0f8f5;}.d{clip-path:url(#a);}.e{fill:#e8f7f3;}.f{fill:#b6ebdc;}.g{fill:#fff;}.h{fill:#178771;}.i{fill:#35bca2;}.j{fill:#ffa300;}.k{fill:#85ddc4;}.l{fill:#ffb533;}.m{fill:#ffc866;}.n{fill:#a5e5d4;}.o{fill:#b7eadd;}.p{opacity:0.22;}.q{clip-path:url(#b);}.r{opacity:0.15;}.s{clip-path:url(#c);}.t{fill:#3d3d3d;}.u{fill:#212121;}.v{fill:#474746;}.w{opacity:0.11;}.x{clip-path:url(#d);}.y{clip-path:url(#e);}.z{clip-path:url(#f);}.aa{clip-path:url(#g);}.ab{clip-path:url(#h);}.ac{fill:#040e28;font-size:21px;font-family:ProximaNova-Semibold, Proxima Nova;font-weight:600;}</style><clipPath id="a"><rect class="a" width="132.389" height="128.498"/></clipPath><clipPath id="b"><rect class="a" width="15.212" height="13.876"/></clipPath><clipPath id="c"><rect class="a" width="34.2" height="34.2"/></clipPath><clipPath id="d"><rect class="a" width="29.187" height="21.566"/></clipPath><clipPath id="e"><rect class="a" width="37.532" height="27.733"/></clipPath><clipPath id="f"><rect class="a" width="25.438" height="12.809"/></clipPath><clipPath id="g"><rect class="a" width="4.627" height="3.418"/></clipPath><clipPath id="h"><rect class="a" width="14.963" height="7.806"/></clipPath></defs><g transform="translate(-53.952 -70.088)"><path class="b" d="M293.725,257.1a.586.586,0,0,0-.586-.586h-.006a.586.586,0,1,0,.593.586Z" transform="translate(20.433 -158.96)"/><circle class="c" cx="64" cy="64" r="64" transform="translate(139.952 76.71)"/><g transform="translate(67.91 72.112)"><g transform="translate(0 0)"><g class="d"><path class="e" d="M242.674,326.235h-3.958v-3.948a.3.3,0,0,0-.3-.3h-4.995a.3.3,0,0,0-.3.3v3.948h-3.958a.3.3,0,0,0-.3.3v4.982a.3.3,0,0,0,.3.3h3.958v3.948a.3.3,0,0,0,.3.3h4.995a.3.3,0,0,0,.3-.3V331.82h3.958a.3.3,0,0,0,.3-.3v-4.982a.3.3,0,0,0-.3-.3m-.3,4.982h-3.958a.3.3,0,0,0-.3.3v3.948h-4.39v-3.948a.3.3,0,0,0-.3-.3h-3.958v-4.379h3.958a.3.3,0,0,0,.3-.3v-3.948h4.39v3.948a.3.3,0,0,0,.3.3h3.958Z" transform="translate(-204.811 -288.155)"/><path class="e" d="M1129.512,470.2h-2.765v-2.758a.211.211,0,0,0-.211-.211h-3.489a.211.211,0,0,0-.211.211V470.2h-2.765a.211.211,0,0,0-.211.211v3.48a.211.211,0,0,0,.211.211h2.765v2.758a.211.211,0,0,0,.211.21h3.489a.211.211,0,0,0,.211-.21V474.1h2.765a.211.211,0,0,0,.211-.211v-3.48a.211.211,0,0,0-.211-.211m-.211,3.48h-2.765a.211.211,0,0,0-.211.21v2.758h-3.067v-2.758a.211.211,0,0,0-.211-.21h-2.765v-3.059h2.765a.211.211,0,0,0,.211-.21v-2.758h3.067v2.758a.211.211,0,0,0,.211.21h2.765Z" transform="translate(-1002.194 -418.142)"/><path class="e" d="M89.673,433.335H83.364v-6.293h-7.4v6.293H69.659v7.378h6.309v6.293h7.4v-6.293h6.309Z" transform="translate(-62.339 -382.173)"/><path class="e" d="M1029.547,350.918h-4.171v-4.16h-4.89v4.16h-4.171V355.8h4.171v4.16h4.89V355.8h4.171Z" transform="translate(-909.529 -310.323)"/><path class="f" d="M478.427,112.715h-3.434v-3.425h-4.026v3.425h-3.434v4.016h3.434v3.425h4.026V116.73h3.434Z" transform="translate(-418.408 -97.806)"/><path class="f" d="M873.977,371.041H871.6v-2.375H868.8v2.375h-2.381v2.784H868.8V376.2H871.6v-2.375h2.381Z" transform="translate(-775.387 -329.93)"/><path class="g" d="M722.666,632.032h-5.378c-8.5,0-15.463,2.286-15.463-6.219v-34.12a15.509,15.509,0,0,1,15.463-15.463h5.378a15.509,15.509,0,0,1,15.463,15.463v34.12c0,8.5-6.958,6.219-15.463,6.219" transform="translate(-628.082 -515.685)"/><path class="h" d="M761.058,527.362H731.789a.414.414,0,0,1-.413-.413v-9.763a.414.414,0,0,1,.413-.413h29.269a.414.414,0,0,1,.413.413v9.763a.414.414,0,0,1-.413.413" transform="translate(-654.529 -462.475)"/><path class="i" d="M760.6,589.974H732.24a.868.868,0,0,1-.865-.865V586.74c.061-.02,30.168.054,30.095,0v2.369a.868.868,0,0,1-.865.865" transform="translate(-654.528 -525.087)"/><rect class="j" width="34.798" height="29.941" transform="translate(74.488 76.977)"/><rect class="g" width="25.633" height="22.662" transform="translate(79.078 80.855)"/><path class="k" d="M799.431,848.86H780.136a.245.245,0,1,0,0,.472h19.294a.245.245,0,1,0,0-.472" transform="translate(-697.889 -759.669)"/><path class="k" d="M799.431,860.092H780.136a.245.245,0,1,0,0,.472h19.294a.245.245,0,1,0,0-.472" transform="translate(-697.889 -769.721)"/><path class="k" d="M788.017,871.324h-7.88a.245.245,0,1,0,0,.472h7.88a.245.245,0,1,0,0-.472" transform="translate(-697.889 -779.773)"/><path class="k" d="M799.431,803.875H780.136a.245.245,0,1,0,0,.472h19.294a.245.245,0,1,0,0-.472" transform="translate(-697.889 -719.411)"/><path class="k" d="M799.431,815.106H780.136a.245.245,0,1,0,0,.472h19.294a.245.245,0,1,0,0-.472" transform="translate(-697.889 -729.462)"/><path class="k" d="M798.034,826.338h-17.9a.245.245,0,1,0,0,.472h17.9a.245.245,0,1,0,0-.472" transform="translate(-697.889 -739.514)"/><path class="k" d="M799.431,935.143H780.136a.245.245,0,1,0,0,.472h19.294a.245.245,0,1,0,0-.472" transform="translate(-697.889 -836.886)"/><path class="k" d="M799.431,946.375H780.136a.245.245,0,1,0,0,.472h19.294a.245.245,0,1,0,0-.472" transform="translate(-697.889 -846.938)"/><path class="k" d="M799.431,890.157H780.136a.245.245,0,1,0,0,.472h19.294a.245.245,0,1,0,0-.472" transform="translate(-697.889 -796.627)"/><path class="k" d="M799.431,901.389H780.136a.245.245,0,1,0,0,.472h19.294a.245.245,0,1,0,0-.472" transform="translate(-697.889 -806.679)"/><path class="k" d="M798.034,912.621h-17.9a.245.245,0,1,0,0,.472h17.9a.245.245,0,1,0,0-.472" transform="translate(-697.889 -816.731)"/><path class="l" d="M219.374,768.6s-3.525,3.685-1.033,4.286,1.033-4.286,1.033-4.286" transform="translate(-194.602 -687.842)"/><path class="j" d="M249.273,681.264s-7.531,7.872-2.208,9.156,2.208-9.156,2.208-9.156" transform="translate(-219.402 -609.683)"/><path class="m" d="M210.739,727.453s-2.283,2.387-.669,2.776.669-2.776.669-2.776" transform="translate(-187.481 -651.019)"/><path class="h" d="M286.1,552.944l14.223-12.479a.381.381,0,0,1,.487.555L285.7,554.277a3.834,3.834,0,0,1,.4-1.333" transform="translate(-255.664 -483.626)"/><path class="g" d="M378.128,541.325l3.486-3.059a1.095,1.095,0,1,1,1.444,1.646l-3.486,3.059a1.1,1.1,0,0,1-1.545-.1h0a1.1,1.1,0,0,1,.1-1.545" transform="translate(-338.065 -481.468)"/><path class="g" d="M398.592,506.8l4.8-4.212a1.507,1.507,0,0,1,1.988,2.266l-4.8,4.212a1.507,1.507,0,1,1-1.988-2.266" transform="translate(-356.254 -449.451)"/><path class="n" d="M400.567,535.387l-2.96-3.374a.531.531,0,1,1,.8-.7l2.96,3.373a.531.531,0,0,1-.8.7" transform="translate(-355.712 -475.327)"/><path class="n" d="M387.905,546.5l-2.96-3.374a.531.531,0,1,1,.8-.7l2.96,3.373a.531.531,0,0,1-.8.7" transform="translate(-344.381 -485.268)"/><path class="g" d="M385.665,236.091l32.268-28.313c2.252-1.976,11.554,8.626,9.3,10.6l-32.268,28.313c-2.252,1.976-4.369-.388-6.927-3.3s-4.627-5.322-2.375-7.3" transform="translate(-344.28 -185.728)"/><path class="e" d="M572.277,98.687,537.841,128.9c-.2.178,6.017,6.489,5.834,6.649l34.575-30.337q-3.047-3.207-5.973-6.527" transform="translate(-481.325 -88.318)"/><path class="o" d="M592.325,121.477,557.87,151.708c-.2.178,1.456,1.29,1.273,1.451L593.628,122.9q-.654-.71-1.3-1.425" transform="translate(-499.239 -108.714)"/><path class="j" d="M394.824,389.559l14.19-12.451c.338.263,7.443,8.5,7.444,8.484l-14.19,12.451c-1.021.9-8.465-7.588-7.444-8.484" transform="translate(-353.254 -337.485)"/><path class="i" d="M674.413,167.758l13.767,15.69a1.412,1.412,0,1,1-2.123,1.863l-13.767-15.69a1.412,1.412,0,1,1,2.123-1.863" transform="translate(-601.339 -149.703)"/><path class="k" d="M855.9,80.13l6.5,7.4a1.3,1.3,0,0,1-1.951,1.712l-6.5-7.4A1.3,1.3,0,1,1,855.9,80.13" transform="translate(-763.94 -71.317)"/><path class="k" d="M536.56,378.792l-7.494-8.54a.531.531,0,0,1,.8-.7l7.494,8.54a.531.531,0,0,1-.8.7" transform="translate(-473.359 -330.561)"/><path class="g" d="M695.227,296.651c-.1.091-.046.329.13.529l4.26,4.855.378-.332-4.26-4.855c-.175-.2-.4-.288-.508-.2" transform="translate(-622.132 -265.449)"/><path class="g" d="M653.57,333.2c-.1.091-.046.329.13.529l4.26,4.855.378-.332-4.26-4.855c-.175-.2-.4-.288-.507-.2" transform="translate(-584.852 -298.16)"/><path class="g" d="M699.261,317.571c-.1.091-.046.329.13.529l2.986,3.4.378-.332-2.986-3.4c-.175-.2-.4-.288-.507-.2" transform="translate(-625.742 -284.172)"/><path class="g" d="M690.869,324.933c-.1.091-.046.329.13.529l2.986,3.4.378-.331-2.986-3.4c-.175-.2-.4-.288-.507-.2" transform="translate(-618.232 -290.76)"/><path class="g" d="M682.178,332.559c-.1.091-.046.329.13.529l2.986,3.4.378-.332-2.986-3.4c-.175-.2-.4-.288-.507-.2" transform="translate(-610.454 -297.585)"/><path class="g" d="M673.787,339.922c-.1.091-.046.329.13.529l2.986,3.4.378-.332-2.986-3.4c-.175-.2-.4-.288-.507-.2" transform="translate(-602.945 -304.174)"/><path class="g" d="M611.612,370.016c-.1.091-.046.329.13.529L616,375.4l.378-.332-4.26-4.855c-.175-.2-.4-.288-.508-.2" transform="translate(-547.303 -331.106)"/><path class="g" d="M657.3,354.385c-.1.091-.046.329.13.529l2.986,3.4.378-.331-2.986-3.4c-.175-.2-.4-.288-.507-.2" transform="translate(-588.194 -317.117)"/><path class="g" d="M648.912,361.747c-.1.091-.046.329.13.529l2.986,3.4.378-.331-2.986-3.4c-.175-.2-.4-.288-.508-.2" transform="translate(-580.683 -323.706)"/><path class="g" d="M640.222,369.373c-.1.091-.046.329.13.529l2.986,3.4.378-.332-2.986-3.4c-.175-.2-.4-.288-.507-.2" transform="translate(-572.906 -330.531)"/><path class="g" d="M631.83,376.736c-.1.091-.046.329.13.529l2.986,3.4.378-.332-2.986-3.4c-.175-.2-.4-.288-.507-.2" transform="translate(-565.396 -337.12)"/><path class="g" d="M569.655,406.83c-.1.091-.046.329.13.529l4.26,4.855.378-.332-4.26-4.855c-.175-.2-.4-.288-.507-.2" transform="translate(-509.754 -364.052)"/><path class="g" d="M615.347,391.2c-.1.091-.046.329.13.529l2.986,3.4.378-.331-2.986-3.4c-.175-.2-.4-.288-.507-.2" transform="translate(-550.645 -350.063)"/><path class="g" d="M606.955,398.561c-.1.091-.046.329.13.529l2.986,3.4.378-.331-2.986-3.4c-.175-.2-.4-.288-.508-.2" transform="translate(-543.135 -356.652)"/><path class="g" d="M598.264,406.187c-.1.091-.046.329.13.529l2.986,3.4.378-.331-2.986-3.4c-.175-.2-.4-.288-.507-.2" transform="translate(-535.357 -363.477)"/><path class="g" d="M589.873,413.55c-.1.091-.046.329.13.529l2.986,3.4.378-.332-2.986-3.4c-.175-.2-.4-.288-.508-.2" transform="translate(-527.848 -370.066)"/><path class="g" d="M527.7,443.645c-.1.091-.046.329.13.529l4.26,4.855.378-.332-4.26-4.855c-.175-.2-.4-.288-.507-.2" transform="translate(-472.206 -396.998)"/><path class="g" d="M573.39,428.013c-.1.091-.046.329.13.529l2.986,3.4.378-.331-2.986-3.4c-.175-.2-.4-.288-.507-.2" transform="translate(-513.097 -383.009)"/><path class="g" d="M565,435.375c-.1.091-.046.329.13.529l2.986,3.4.378-.332-2.986-3.4c-.175-.2-.4-.288-.508-.2" transform="translate(-505.586 -389.598)"/><path class="g" d="M556.307,443c-.1.091-.046.329.13.529l2.986,3.4.378-.331-2.986-3.4c-.175-.2-.4-.288-.508-.2" transform="translate(-497.809 -396.423)"/><path class="g" d="M547.915,450.364c-.1.091-.046.329.13.529l2.986,3.4.378-.332-2.986-3.4c-.175-.2-.4-.288-.507-.2" transform="translate(-490.299 -403.012)"/><path class="g" d="M485.741,480.459c-.1.091-.046.329.13.529l4.26,4.855.378-.332-4.26-4.855c-.175-.2-.4-.288-.507-.2" transform="translate(-434.657 -429.944)"/><path class="g" d="M531.433,464.827c-.1.091-.046.329.13.529l2.986,3.4.378-.332-2.986-3.4c-.175-.2-.4-.288-.507-.2" transform="translate(-475.548 -415.955)"/><path class="g" d="M523.041,472.19c-.1.091-.046.329.13.529l2.986,3.4.378-.332-2.986-3.4c-.175-.2-.4-.288-.507-.2" transform="translate(-468.038 -422.544)"/><path class="g" d="M514.35,479.815c-.1.091-.046.329.13.529l2.986,3.4.378-.331-2.986-3.4c-.175-.2-.4-.288-.508-.2" transform="translate(-460.261 -429.369)"/><path class="g" d="M505.958,487.178c-.1.091-.046.329.13.529l2.986,3.4.378-.331-2.986-3.4c-.175-.2-.4-.288-.508-.2" transform="translate(-452.75 -435.958)"/><path class="g" d="M444.62,516.539c-.1.091-.046.329.129.529l4.26,4.855.378-.332-4.26-4.855c-.175-.2-.4-.288-.507-.2" transform="translate(-397.856 -462.233)"/><path class="g" d="M490.312,500.907c-.1.091-.046.329.13.529l2.986,3.4.378-.331-2.986-3.4c-.175-.2-.4-.288-.507-.2" transform="translate(-438.748 -448.244)"/><path class="g" d="M481.92,508.27c-.1.091-.046.329.13.529l2.986,3.4.378-.332-2.986-3.4c-.175-.2-.4-.288-.507-.2" transform="translate(-431.238 -454.834)"/><path class="g" d="M473.229,515.9c-.1.091-.046.329.13.529l2.986,3.4.378-.331-2.986-3.4c-.175-.2-.4-.288-.507-.2" transform="translate(-423.46 -461.659)"/><path class="g" d="M464.837,523.259c-.1.091-.046.329.13.529l2.986,3.4.378-.331-2.986-3.4c-.175-.2-.4-.288-.507-.2" transform="translate(-415.95 -468.248)"/><g class="p" transform="translate(30.017 56.781)"><g class="q"><path class="h" d="M286.1,552.944l14.223-12.479a.381.381,0,0,1,.487.555L285.7,554.277a3.834,3.834,0,0,1,.4-1.333" transform="translate(-285.681 -540.407)"/></g></g><path class="j" d="M379.585,843.213l-.926-1.043a.088.088,0,0,1,.111-.134l1.2.715a.088.088,0,0,0,.126-.11l-.558-1.278a.088.088,0,0,1,.147-.093l.918,1.05a.088.088,0,0,0,.154-.066l-.136-1.388a.088.088,0,0,1,.168-.043l.548,1.282a.088.088,0,0,0,.167-.016l.3-1.362a.088.088,0,0,1,.173.011l.125,1.389a.088.088,0,0,0,.163.037l.706-1.2a.088.088,0,0,1,.161.064l-.31,1.36a.088.088,0,0,0,.144.085l1.043-.926a.088.088,0,0,1,.134.111l-.715,1.2a.088.088,0,0,0,.111.126l1.278-.558a.088.088,0,0,1,.093.147l-1.05.918a.088.088,0,0,0,.066.154l1.388-.135a.088.088,0,0,1,.043.168l-1.282.548a.088.088,0,0,0,.016.167l1.362.3a.088.088,0,0,1-.011.173l-1.389.125a.088.088,0,0,0-.037.163l1.2.706a.088.088,0,0,1-.064.161l-1.359-.31a.088.088,0,0,0-.085.144l.925,1.043a.088.088,0,0,1-.111.134l-1.2-.715a.088.088,0,0,0-.126.111l.558,1.278a.088.088,0,0,1-.147.093l-.918-1.05a.088.088,0,0,0-.154.066l.136,1.388a.088.088,0,0,1-.168.043l-.548-1.282a.088.088,0,0,0-.167.016l-.3,1.362a.088.088,0,0,1-.173-.011l-.125-1.389a.088.088,0,0,0-.163-.037l-.706,1.2a.088.088,0,0,1-.161-.064l.31-1.359a.088.088,0,0,0-.144-.085l-1.043.925a.088.088,0,0,1-.134-.111l.715-1.2a.088.088,0,0,0-.111-.126l-1.278.558a.088.088,0,0,1-.093-.147l1.05-.918a.088.088,0,0,0-.066-.154l-1.388.136a.088.088,0,0,1-.043-.168l1.282-.548a.088.088,0,0,0-.016-.167l-1.362-.3a.088.088,0,0,1,.011-.173l1.389-.125a.088.088,0,0,0,.037-.163l-1.2-.706a.088.088,0,0,1,.064-.161l1.36.31a.088.088,0,0,0,.085-.144" transform="translate(-338.08 -752.329)"/><path class="j" d="M481.6,862.98h0a.16.16,0,0,1,.2-.245.16.16,0,0,0,.226-.205.16.16,0,0,1,.263-.175.16.16,0,0,0,.277-.129.16.16,0,0,1,.3-.09.16.16,0,0,0,.3-.042.16.16,0,0,1,.316,0,.16.16,0,0,0,.3.049.16.16,0,0,1,.3.1.16.16,0,0,0,.274.135.16.16,0,0,1,.259.181.16.16,0,0,0,.221.21.16.16,0,0,1,.194.249.16.16,0,0,0,.15.266.16.16,0,0,1,.112.3.16.16,0,0,0,.065.3.16.16,0,0,1,.02.315.16.16,0,0,0-.026.3.16.16,0,0,1-.074.307.16.16,0,0,0-.115.283.16.16,0,0,1-.161.272h0a.16.16,0,0,0-.193.237.16.16,0,0,1-.234.212.16.16,0,0,0-.254.169.16.16,0,0,1-.286.134.16.16,0,0,0-.293.087.16.16,0,0,1-.313.044.16.16,0,0,0-.305,0,.16.16,0,0,1-.312-.05.16.16,0,0,0-.291-.093.16.16,0,0,1-.283-.14.16.16,0,0,0-.25-.175.16.16,0,0,1-.229-.217.16.16,0,0,0-.188-.241.16.16,0,0,1-.155-.275.16.16,0,0,0-.109-.286.16.16,0,0,1-.067-.309.16.16,0,0,0-.02-.3.16.16,0,0,1,.027-.315.16.16,0,0,0,.071-.3.16.16,0,0,1,.119-.293.16.16,0,0,0,.156-.263" transform="translate(-430.551 -771.392)"/><path class="l" d="M486.245,866.25l.04-.662a.042.042,0,0,1,.082-.008l.162.643a.042.042,0,0,0,.079,0l.242-.617a.042.042,0,0,1,.081.018l-.045.662a.042.042,0,0,0,.074.029l.421-.512a.042.042,0,0,1,.071.042l-.247.616a.042.042,0,0,0,.061.051l.559-.357a.042.042,0,0,1,.055.062l-.425.509a.042.042,0,0,0,.043.067l.642-.167a.042.042,0,0,1,.033.076l-.561.353a.042.042,0,0,0,.02.077l.662.039a.042.042,0,0,1,.008.082l-.643.162a.042.042,0,0,0,0,.079l.617.242a.042.042,0,0,1-.018.081l-.662-.045a.042.042,0,0,0-.029.074l.512.421a.042.042,0,0,1-.042.071l-.615-.247a.042.042,0,0,0-.051.061l.357.559a.042.042,0,0,1-.062.054l-.509-.425a.042.042,0,0,0-.067.043l.167.642a.042.042,0,0,1-.076.033l-.353-.561a.042.042,0,0,0-.077.02l-.039.662a.042.042,0,0,1-.082.008l-.162-.643a.042.042,0,0,0-.079-.005l-.242.617a.042.042,0,0,1-.081-.018l.044-.661a.042.042,0,0,0-.074-.029l-.421.512a.042.042,0,0,1-.071-.042l.247-.615a.042.042,0,0,0-.061-.051l-.559.357a.042.042,0,0,1-.055-.062l.425-.509a.042.042,0,0,0-.043-.067l-.642.167a.042.042,0,0,1-.033-.076l.562-.353a.042.042,0,0,0-.02-.077l-.662-.039a.042.042,0,0,1-.008-.082l.643-.162a.042.042,0,0,0,.005-.079l-.617-.242a.042.042,0,0,1,.018-.081l.662.045a.042.042,0,0,0,.029-.074l-.512-.421a.042.042,0,0,1,.042-.071l.615.247a.042.042,0,0,0,.051-.061l-.357-.559a.042.042,0,0,1,.062-.055l.509.425a.042.042,0,0,0,.067-.042l-.167-.642a.042.042,0,0,1,.076-.033l.353.561a.042.042,0,0,0,.077-.02" transform="translate(-433.734 -774.604)"/><path class="j" d="M402.765,926.825h0a.439.439,0,0,1,.549-.673.439.439,0,0,0,.622-.565.439.439,0,0,1,.724-.482.439.439,0,0,0,.761-.356.439.439,0,0,1,.833-.247.439.439,0,0,0,.832-.116.439.439,0,0,1,.869.01.439.439,0,0,0,.83.135.439.439,0,0,1,.828.266.439.439,0,0,0,.753.373.439.439,0,0,1,.713.5.439.439,0,0,0,.61.578.439.439,0,0,1,.534.686.439.439,0,0,0,.412.732.439.439,0,0,1,.309.813.439.439,0,0,0,.178.821.439.439,0,0,1,.055.868.439.439,0,0,0-.072.837.439.439,0,0,1-.2.845.439.439,0,0,0-.316.779.439.439,0,0,1-.443.748.439.439,0,0,0-.531.651.439.439,0,0,1-.644.584.439.439,0,0,0-.7.466.439.439,0,0,1-.787.368.439.439,0,0,0-.806.239.439.439,0,0,1-.861.12.439.439,0,0,0-.84-.009.439.439,0,0,1-.858-.139.439.439,0,0,0-.8-.257.439.439,0,0,1-.779-.386.439.439,0,0,0-.689-.481.439.439,0,0,1-.631-.6.439.439,0,0,0-.517-.663.439.439,0,0,1-.426-.758.439.439,0,0,0-.3-.786.439.439,0,0,1-.184-.85.439.439,0,0,0-.053-.839.439.439,0,0,1,.074-.866.439.439,0,0,0,.2-.817.439.439,0,0,1,.327-.806.439.439,0,0,0,.428-.723" transform="translate(-359.225 -826.928)"/><path class="j" d="M203.145,942.495a.205.205,0,1,0-.217.348c.1.062.2.127.295.193l-.738,1.026a.5.5,0,0,0-.517.138.517.517,0,0,1-.88-.452.5.5,0,0,0-.137-.456l.407-1.212c.155.056.308.115.458.18a.205.205,0,0,0,.237-.055.207.207,0,0,0,.032-.052.2.2,0,0,0-.107-.27,8.78,8.78,0,0,0-1.246-.429.205.205,0,0,0-.1.4c.114.03.228.063.341.1l-.4,1.188a.5.5,0,0,0-.452.284.517.517,0,0,1-.974-.172.5.5,0,0,0-.271-.4l.032-1.262c.163.008.326.019.488.036a.205.205,0,1,0,.044-.408,8.9,8.9,0,0,0-1.317-.042.205.205,0,0,0,.018.41c.119-.005.238-.007.358-.007l-.031,1.241a.5.5,0,0,0-.343.4.517.517,0,0,1-.982.122.5.5,0,0,0-.384-.3l-.339-1.2c.157-.04.315-.077.473-.108a.2.2,0,0,0,.163-.24.205.205,0,0,0-.24-.162,8.874,8.874,0,0,0-1.27.346.205.205,0,0,0,.137.387c.113-.04.227-.077.343-.112l.335,1.191a.5.5,0,0,0-.2.481.517.517,0,0,1-.9.406.5.5,0,0,0-.467-.173l-.674-1.044c.138-.084.277-.166.42-.242a.205.205,0,1,0-.193-.362,8.769,8.769,0,0,0-1.112.706.205.205,0,0,0,.245.329c.1-.072.2-.141.3-.209l.671,1.039a.5.5,0,0,0-.045.511.517.517,0,0,1-.742.654.5.5,0,0,0-.507-.022l-.946-.794c.107-.121.216-.24.328-.353l.01-.011a.205.205,0,0,0-.3-.277,8.977,8.977,0,0,0-.854,1,.205.205,0,0,0,.331.242c.071-.1.146-.194.222-.289l.949.8a.5.5,0,0,0,.112.49.517.517,0,0,1-.517.844.5.5,0,0,0-.5.137l-1.14-.481c.066-.146.135-.291.209-.433a.205.205,0,0,0-.363-.19,8.782,8.782,0,0,0-.522,1.21.205.205,0,1,0,.388.134c.04-.115.083-.23.128-.344l1.151.486a.5.5,0,0,0,.251.424.517.517,0,0,1-.245.959.5.5,0,0,0-.442.288l-1.234-.124c.02-.159.043-.317.072-.473a.205.205,0,1,0-.4-.074,8.861,8.861,0,0,0-.141,1.31.205.205,0,1,0,.41.013c0-.122.011-.245.021-.368l1.254.126a.5.5,0,0,0,.361.32.517.517,0,0,1,.049.988.5.5,0,0,0-.339.414l-1.222.247c-.027-.157-.052-.314-.07-.472a.205.205,0,1,0-.407.048,8.876,8.876,0,0,0,.25,1.293.205.205,0,1,0,.4-.107c-.032-.118-.061-.238-.088-.358l1.25-.253a.5.5,0,0,0,.434.192.517.517,0,0,1,.338.93.5.5,0,0,0-.2.5l-1.107.6c-.073-.142-.143-.286-.207-.432a.205.205,0,1,0-.376.166,8.8,8.8,0,0,0,.62,1.162.205.205,0,0,0,.283.063.212.212,0,0,0,.046-.04.205.205,0,0,0,.017-.243c-.065-.1-.128-.208-.189-.315l1.135-.618a.5.5,0,0,0,.466.052.517.517,0,0,1,.6.789.5.5,0,0,0-.043.541l-.888.91c-.113-.115-.223-.232-.328-.353a.205.205,0,1,0-.31.269,8.889,8.889,0,0,0,.936.926.2.2,0,0,0,.289-.023h0a.205.205,0,0,0-.023-.289c-.092-.079-.183-.16-.272-.243l.912-.935a.5.5,0,0,0,.458-.089.517.517,0,0,1,.8.578.5.5,0,0,0,.118.529l-.588,1.146c-.142-.077-.282-.158-.419-.243a.205.205,0,0,0-.217.348,8.815,8.815,0,0,0,1.166.612.205.205,0,0,0,.238-.055.2.2,0,0,0,.032-.052.205.205,0,0,0-.107-.27c-.111-.048-.22-.1-.329-.151l.6-1.176a.5.5,0,0,0,.412-.22.517.517,0,0,1,.938.316.5.5,0,0,0,.265.469l-.226,1.281c-.16-.032-.319-.068-.476-.109a.205.205,0,1,0-.1.4,8.811,8.811,0,0,0,1.3.239.205.205,0,1,0,.044-.408c-.119-.013-.237-.029-.355-.047l.231-1.312a.5.5,0,0,0,.333-.332.517.517,0,0,1,.989.025.5.5,0,0,0,.385.368l.163,1.3c-.163.016-.327.029-.49.036a.205.205,0,0,0,.017.41,8.888,8.888,0,0,0,1.308-.152.205.205,0,0,0-.078-.4c-.116.022-.233.042-.35.059l-.166-1.327a.5.5,0,0,0,.226-.42.517.517,0,0,1,.953-.267.5.5,0,0,0,.467.239l.544,1.207c-.153.064-.307.125-.463.18a.205.205,0,1,0,.137.387,8.8,8.8,0,0,0,1.2-.53.205.205,0,1,0-.193-.362c-.1.055-.206.107-.311.157l-.552-1.223a.5.5,0,0,0,.1-.475.517.517,0,0,1,.832-.536.5.5,0,0,0,.506.095l.88,1c-.129.108-.259.214-.393.314a.205.205,0,0,0,.245.329,8.85,8.85,0,0,0,.994-.864l.011-.012a.205.205,0,0,0-.3-.277q-.121.122-.247.238l-.885-1a.5.5,0,0,0-.041-.494.517.517,0,0,1,.636-.757h0a.5.5,0,0,0,.5-.052l1.137.695c-.092.142-.187.282-.286.418a.205.205,0,0,0,.322.255l.009-.012a8.819,8.819,0,0,0,.7-1.117.205.205,0,0,0-.363-.191c-.053.1-.108.2-.164.3l-1.137-.7a.5.5,0,0,0-.183-.471.517.517,0,0,1,.385-.912.5.5,0,0,0,.459-.188l1.29.329c-.046.164-.1.327-.151.487a.205.205,0,0,0,.388.134,8.812,8.812,0,0,0,.336-1.274.205.205,0,1,0-.4-.075c-.02.11-.043.22-.068.33l-1.282-.327a.5.5,0,0,0-.315-.408.517.517,0,0,1,.1-.984.5.5,0,0,0,.379-.305l1.323-.066c0,.171.006.341,0,.511a.205.205,0,0,0,.41.014,8.911,8.911,0,0,0-.054-1.316.205.205,0,0,0-.408.047c.013.111.023.222.032.334l-1.307.065a.5.5,0,0,0-.425-.306.517.517,0,0,1-.2-.97.5.5,0,0,0,.271-.4l1.238-.451c.055.162.106.325.15.49a.205.205,0,0,0,.4-.107,8.845,8.845,0,0,0-.438-1.242.205.205,0,0,0-.376.165c.045.1.087.2.128.308l-1.217.443a.5.5,0,0,0-.5-.173.517.517,0,0,1-.473-.869.5.5,0,0,0,.143-.453l1.041-.789c.1.139.2.28.289.424a.205.205,0,1,0,.347-.219,8.783,8.783,0,0,0-.786-1.057.205.205,0,1,0-.31.269q.109.126.213.256l-1.02.773a.5.5,0,0,0-.534-.02.517.517,0,0,1-.708-.691.5.5,0,0,0,0-.474l.754-1.048c.131.1.26.2.385.308l.015.013a.205.205,0,1,0,.266-.312l-.014-.012a8.926,8.926,0,0,0-1.063-.777" transform="translate(-169.752 -842.278)"/><path class="l" d="M219.486,962.373a.166.166,0,1,0-.321.088c.025.091.048.184.069.277l-1,.206a.4.4,0,0,0-.384-.2.419.419,0,0,1-.276-.753.4.4,0,0,0,.169-.347l.909-.5c.061.118.12.238.174.359a.166.166,0,0,0,.172.1.163.163,0,0,0,.048-.013.166.166,0,0,0,.084-.219,7.125,7.125,0,0,0-.507-.941.166.166,0,0,0-.28.179c.052.08.1.163.149.245l-.891.488a.4.4,0,0,0-.425-.079.419.419,0,0,1-.486-.638.4.4,0,0,0,.057-.386l.713-.734c.093.094.184.19.271.29a.166.166,0,1,0,.25-.219,7.182,7.182,0,0,0-.761-.749.166.166,0,0,0-.215.254c.074.062.146.127.217.192l-.7.722a.4.4,0,0,0-.426.052.419.419,0,0,1-.652-.467.4.4,0,0,0-.063-.391l.46-.9c.116.063.23.127.341.2a.166.166,0,1,0,.175-.283,7.186,7.186,0,0,0-.947-.492.166.166,0,0,0-.131.306c.089.038.178.079.266.121l-.455.893a.4.4,0,0,0-.385.176.419.419,0,0,1-.761-.254.4.4,0,0,0-.183-.36l.172-.992c.129.026.256.054.383.087a.166.166,0,1,0,.084-.322,7.118,7.118,0,0,0-1.051-.19.166.166,0,0,0-.035.331c.1.01.194.023.291.038l-.172.988a.4.4,0,0,0-.307.28.419.419,0,0,1-.8-.018.4.4,0,0,0-.29-.292l-.127-.993c.13-.013.26-.024.39-.03h.012a.166.166,0,0,0-.028-.331,7.282,7.282,0,0,0-1.06.127.166.166,0,1,0,.064.326c.1-.019.193-.035.291-.05l.127,1a.4.4,0,0,0-.2.353.419.419,0,0,1-.772.219h0a.4.4,0,0,0-.373-.193l-.415-.913c.12-.051.24-.1.362-.142a.166.166,0,0,0-.112-.313,7.121,7.121,0,0,0-.976.434.166.166,0,0,0,.1.312.163.163,0,0,0,.059-.019c.087-.047.176-.091.265-.134l.419.922a.4.4,0,0,0-.083.39.419.419,0,0,1-.673.436.4.4,0,0,0-.422-.072l-.667-.752c.1-.084.2-.165.3-.243a.166.166,0,0,0-.2-.266,7.189,7.189,0,0,0-.8.7.166.166,0,0,0,.237.233c.07-.071.142-.14.214-.208l.678.764a.4.4,0,0,0,.039.389.419.419,0,0,1-.514.615.4.4,0,0,0-.43.06l-.864-.525c.07-.109.142-.216.218-.32a.166.166,0,0,0-.269-.2,7.213,7.213,0,0,0-.562.907.166.166,0,1,0,.3.154c.046-.088.095-.175.144-.262l.883.537a.4.4,0,0,0,.153.353.419.419,0,0,1-.31.74.4.4,0,0,0-.4.188l-.991-.25c.035-.125.072-.249.114-.371a.166.166,0,1,0-.315-.108,7.13,7.13,0,0,0-.27,1.033.166.166,0,0,0,.134.193.166.166,0,0,0,.194-.134c.018-.1.038-.195.06-.291l1.016.256a.4.4,0,0,0,.249.287.419.419,0,0,1-.078.8.4.4,0,0,0-.323.3l-1.03.054c0-.13,0-.261,0-.391a.166.166,0,0,0-.333-.01,7.234,7.234,0,0,0,.048,1.066.166.166,0,0,0,.185.145h0a.166.166,0,0,0,.145-.185c-.012-.1-.021-.2-.028-.294l1.057-.055a.4.4,0,0,0,.321.2.419.419,0,0,1,.16.786.4.4,0,0,0-.22.38l-.98.359c-.042-.124-.081-.249-.116-.375a.166.166,0,1,0-.321.088,7.14,7.14,0,0,0,.358,1.006.167.167,0,0,0,.172.1.164.164,0,0,0,.047-.013.166.166,0,0,0,.085-.219c-.04-.089-.077-.18-.113-.271l1.006-.369a.4.4,0,0,0,.366.1.419.419,0,0,1,.385.7.4.4,0,0,0-.1.425l-.839.639c-.078-.107-.153-.216-.224-.326a.166.166,0,1,0-.28.179,7.159,7.159,0,0,0,.641.855.167.167,0,0,0,.145.056.166.166,0,0,0,.105-.275c-.064-.073-.125-.148-.186-.223l.859-.654a.4.4,0,0,0,.381-.015.419.419,0,0,1,.575.559.4.4,0,0,0,.027.431l-.619.865c-.106-.08-.211-.162-.312-.248a.166.166,0,0,0-.215.254,7.214,7.214,0,0,0,.863.629.166.166,0,0,0,.175-.283c-.081-.05-.162-.1-.241-.157l.631-.882a.4.4,0,0,0,.365-.126.419.419,0,0,1,.714.365.4.4,0,0,0,.147.4l-.339,1.018c-.126-.046-.252-.094-.375-.147a.166.166,0,0,0-.131.306,7.128,7.128,0,0,0,1.009.347.166.166,0,0,0,.084-.322c-.091-.024-.182-.05-.272-.078l.344-1.032a.4.4,0,0,0,.32-.229.419.419,0,0,1,.79.138.4.4,0,0,0,.25.335l-.024,1.078c-.136-.006-.272-.015-.407-.029a.166.166,0,0,0-.035.331,7.154,7.154,0,0,0,1.067.032h.013a.166.166,0,0,0-.027-.331c-.093,0-.185.006-.278.006L212.64,970a.4.4,0,0,0,.247-.317.419.419,0,0,1,.8-.1.4.4,0,0,0,.328.245l.3,1.039c-.133.034-.266.066-.4.092a.166.166,0,0,0,.051.328l.012,0a7.176,7.176,0,0,0,1.03-.281.166.166,0,0,0-.112-.314c-.086.031-.173.059-.261.087l-.3-1.039a.4.4,0,0,0,.15-.381.419.419,0,0,1,.73-.331.4.4,0,0,0,.377.14l.588.905c-.117.073-.237.142-.358.208a.166.166,0,1,0,.157.293,7.142,7.142,0,0,0,.9-.574.166.166,0,1,0-.2-.266c-.073.055-.147.107-.222.159l-.584-.9a.4.4,0,0,0,.037-.416.419.419,0,0,1,.6-.532.4.4,0,0,0,.393.026l.824.688c-.091.1-.184.207-.281.3a.166.166,0,0,0,.138.282.164.164,0,0,0,.1-.048,7.2,7.2,0,0,0,.691-.813.166.166,0,1,0-.269-.2q-.08.109-.165.216l-.814-.68a.4.4,0,0,0-.085-.416.419.419,0,0,1,.417-.685.4.4,0,0,0,.379-.087l.985.412c-.057.126-.116.252-.18.374a.166.166,0,1,0,.295.154,7.16,7.16,0,0,0,.422-.98.166.166,0,1,0-.314-.108c-.029.085-.061.17-.093.254l-.969-.405a.4.4,0,0,0-.2-.379.419.419,0,0,1,.2-.778.4.4,0,0,0,.334-.191l1.054.1c-.016.138-.036.275-.061.412a.166.166,0,0,0,.327.06,7.151,7.151,0,0,0,.113-1.062.166.166,0,1,0-.333-.01q0,.135-.014.269l-1.033-.1a.4.4,0,0,0-.307-.305.419.419,0,0,1-.042-.8.4.4,0,0,0,.263-.28l1.025-.21c.024.131.045.263.061.4l0,.016a.166.166,0,0,0,.33-.04l0-.015a7.224,7.224,0,0,0-.206-1.047" transform="translate(-183.865 -856.57)"/><path class="j" d="M278.363,911.937a.282.282,0,0,0,.09.388c.136.085.271.174.4.265L277.844,914a.68.68,0,0,0-.71.189.71.71,0,0,1-1.208-.62.68.68,0,0,0-.188-.625l.559-1.663c.212.077.423.158.629.247a.282.282,0,0,0,.326-.076.288.288,0,0,0,.044-.071.281.281,0,0,0-.147-.37,12.065,12.065,0,0,0-1.71-.589.282.282,0,0,0-.143.545c.157.041.312.086.468.134l-.548,1.629a.68.68,0,0,0-.62.39.71.71,0,0,1-1.337-.237.68.68,0,0,0-.371-.545l.043-1.732c.224.011.447.026.669.05a.281.281,0,1,0,.06-.56c-.345-.037-.693-.057-1.041-.063l-.029.061c-.038.078-.07.16-.105.239a2.828,2.828,0,0,1-.123.513l-.036,1.449a.7.7,0,0,0-.1.041c0,.041,0,.08,0,.114.016.306.043.612.076.917.046.413.119.82.18,1.23.026.109.05.218.078.326a28.487,28.487,0,0,0,1.346,4q.211.505.44,1,.108.235.221.468.334.682-.234-.46a10.624,10.624,0,0,0,1.493,2.635c.5.823,1.039,1.628,1.608,2.408q.476.652.986,1.279.23.283.468.558c.2.206.4.407.6.606a.71.71,0,0,1,.317.058h0a.679.679,0,0,0,.69-.071l1.559.953c-.126.195-.256.387-.393.574a.281.281,0,0,0,.441.349l.013-.016a12.118,12.118,0,0,0,.958-1.532.282.282,0,1,0-.5-.262c-.072.137-.148.273-.226.407l-1.56-.954a.679.679,0,0,0-.251-.646.71.71,0,0,1,.528-1.251.68.68,0,0,0,.629-.258l1.771.451c-.063.225-.13.449-.207.668a.282.282,0,1,0,.532.184,12.082,12.082,0,0,0,.461-1.748.281.281,0,1,0-.554-.1c-.028.151-.06.3-.094.453l-1.76-.448a.679.679,0,0,0-.432-.559.71.71,0,0,1,.136-1.351h0a.679.679,0,0,0,.52-.419l1.815-.09c.006.234.008.469,0,.7a.282.282,0,0,0,.563.019,12.223,12.223,0,0,0-.074-1.806.282.282,0,0,0-.559.065c.018.152.032.3.043.458l-1.793.089a.679.679,0,0,0-.583-.42h0a.71.71,0,0,1-.268-1.331.68.68,0,0,0,.372-.543l1.7-.618c.075.222.145.446.206.672a.281.281,0,1,0,.543-.147,12.126,12.126,0,0,0-.6-1.7.282.282,0,1,0-.516.226q.092.209.175.423l-1.67.608a.679.679,0,0,0-.688-.237.71.71,0,0,1-.648-1.193h0a.68.68,0,0,0,.2-.621l1.429-1.082c.138.191.271.384.4.582a.281.281,0,1,0,.476-.3,12.044,12.044,0,0,0-1.079-1.45.282.282,0,0,0-.425.369q.149.172.292.351l-1.4,1.06a.679.679,0,0,0-.733-.028.71.71,0,0,1-.971-.949h0a.681.681,0,0,0,.006-.65l1.034-1.438c.18.136.357.276.529.422l.021.018a.282.282,0,0,0,.365-.429l-.02-.017a12.21,12.21,0,0,0-1.458-1.067.282.282,0,0,0-.388.09" transform="translate(-243.623 -814.414)"/><path class="l" d="M281.428,934.588a.228.228,0,0,0,.027.322c.1.085.2.174.3.264l-.961.991a.551.551,0,0,0-.584.071.575.575,0,0,1-.895-.641h0a.55.55,0,0,0-.087-.536l.631-1.239c.159.086.315.175.468.269a.228.228,0,1,0,.24-.388,9.834,9.834,0,0,0-1.3-.676.228.228,0,1,0-.18.419c.123.053.244.109.365.167l-.625,1.226a.55.55,0,0,0-.528.241.575.575,0,0,1-1.044-.348.551.551,0,0,0-.251-.494l.237-1.362c.176.035.352.074.525.119a.228.228,0,0,0,.115-.442,9.79,9.79,0,0,0-1.442-.261.228.228,0,1,0-.047.454c.133.014.266.032.4.052l-.235,1.355a.551.551,0,0,0-.422.384.56.56,0,0,1-.492.391,28.544,28.544,0,0,0,1.322,3.919q.211.505.44,1,.108.235.221.468.334.682-.234-.46a10.622,10.622,0,0,0,1.494,2.635c.5.823,1.039,1.628,1.608,2.408q.422.579.873,1.136a.576.576,0,0,1,.714-.635.551.551,0,0,0,.52-.119l1.352.566c-.078.174-.159.346-.247.513a.228.228,0,0,0,.4.211,9.858,9.858,0,0,0,.579-1.345.228.228,0,1,0-.432-.149c-.04.117-.083.233-.128.348l-1.329-.556a.551.551,0,0,0-.279-.519.575.575,0,0,1,.269-1.067.551.551,0,0,0,.459-.262l1.446.141c-.023.189-.05.378-.084.565a.228.228,0,1,0,.449.082,9.786,9.786,0,0,0,.154-1.457.228.228,0,0,0-.456-.014c0,.123-.01.246-.019.37l-1.417-.138a.551.551,0,0,0-.421-.419.575.575,0,0,1-.057-1.1.552.552,0,0,0,.361-.384l1.406-.288c.032.18.061.361.083.542l0,.022a.228.228,0,0,0,.453-.055l0-.021a9.926,9.926,0,0,0-.282-1.437.228.228,0,1,0-.44.121c.034.126.066.253.1.38l-1.377.282a.551.551,0,0,0-.527-.278.575.575,0,0,1-.378-1.033.551.551,0,0,0,.231-.476l1.247-.683c.084.162.165.326.239.493a.229.229,0,0,0,.236.134.233.233,0,0,0,.066-.018.228.228,0,0,0,.116-.3,9.769,9.769,0,0,0-.7-1.291.228.228,0,0,0-.384.246c.071.11.139.223.2.337l-1.222.669a.55.55,0,0,0-.584-.108.575.575,0,0,1-.666-.876.551.551,0,0,0,.079-.529l.978-1.007c.127.129.252.261.371.4a.228.228,0,1,0,.343-.3,9.872,9.872,0,0,0-1.044-1.027.228.228,0,0,0-.322.027" transform="translate(-246.679 -834.331)"/><g class="r" transform="translate(29.372 82.726)"><g class="s"><path class="g" d="M289.6,788.854a17.1,17.1,0,1,0,22.622,8.531,17.1,17.1,0,0,0-22.622-8.531" transform="translate(-279.546 -787.331)"/></g></g><path class="t" d="M292.038,773.746a19.581,19.581,0,1,1-4.557-6.328,19.516,19.516,0,0,1,4.557,6.328m-31.807,14.386a15.273,15.273,0,1,0,7.621-20.209,15.29,15.29,0,0,0-7.621,20.209" transform="translate(-227.764 -682.113)"/><path class="u" d="M688.092,708.344l.746,1.65c.567,1.254.578,4.011-.676,4.578l-21.083,8.01a2.509,2.509,0,0,1-3.311-1.249l-.746-1.65a2.51,2.51,0,0,1,1.249-3.311l19.937-10.543c1.254-.567,3.317,1.261,3.884,2.515" transform="translate(-593.16 -631.571)"/><path class="v" d="M619.2,832.236l.516,1.142a2.421,2.421,0,1,1-4.412,2l-.516-1.142a2.421,2.421,0,0,1,4.412-2" transform="translate(-550 -743.519)"/><g class="w" transform="translate(31.11 84.454)"><g class="x"><path class="g" d="M297.439,825.341l27.831-12.588a15.273,15.273,0,0,0-27.831,12.588" transform="translate(-296.082 -803.775)"/></g></g><g class="w" transform="translate(28.491 91.634)"><g class="y"><path class="g" d="M295.339,894.116a15.29,15.29,0,0,1-20.209-7.621l-3.976,1.8a19.636,19.636,0,1,0,35.783-16.184l-3.976,1.8a15.29,15.29,0,0,1-7.621,20.209" transform="translate(-271.154 -872.109)"/></g></g><g class="w" transform="translate(70.609 78.422)"><g class="z"><path class="g" d="M697.077,746.374c.567,1.254.578,4.011-.676,4.578l-21.083,8.01a2.509,2.509,0,0,1-3.311-1.249Z" transform="translate(-672.007 -746.374)"/></g></g><g class="w" transform="translate(65.305 89.859)"><g class="aa"><path class="g" d="M625.938,855.217a2.421,2.421,0,0,1-4.412,2Z" transform="translate(-621.526 -855.217)"/></g></g><g class="r" transform="translate(36.002 103.256)"><g class="ab"><path class="g" d="M343.26,982.812a1.043,1.043,0,0,1,1.38.52,8.7,8.7,0,0,0,11.5,4.336,1.043,1.043,0,0,1,.859,1.9,10.786,10.786,0,0,1-14.256-5.377,1.043,1.043,0,0,1,.52-1.38" transform="translate(-342.646 -982.719)"/></g></g></g></g></g><text class="ac" transform="translate(195.952 141.709)"><tspan x="0" y="0">Covid-19</tspan><tspan x="0" y="32">Vaccine (C19)</tspan></text><path class="b" d="M293.725,257.1a.586.586,0,0,0-.586-.586h-.006a.586.586,0,1,0,.593.586Z" transform="translate(20.433 -158.96)"/><g transform="translate(268.069 84.741)"><path class="b" d="M319.777,273.087a1.84,1.84,0,1,0,.539,1.3,1.828,1.828,0,0,0-.539-1.3Zm-.829,1.773a.667.667,0,1,1,.2-.472A.663.663,0,0,1,318.948,274.86Z" transform="translate(-301.592 -263.772)"/><path class="b" d="M238.326,276.239a1.839,1.839,0,1,0-1.3-.538A1.834,1.834,0,0,0,238.326,276.239Zm-.472-2.311a.667.667,0,1,1,0,.944A.668.668,0,0,1,237.854,273.928Z" transform="translate(-227.711 -263.783)"/><path class="b" d="M318.476,356.388a1.84,1.84,0,1,0-1.3-.539,1.828,1.828,0,0,0,1.3.539ZM318,354.077a.667.667,0,1,1-.2.472.663.663,0,0,1,.2-.472Z" transform="translate(-301.592 -337.664)"/><path class="b" d="M237.025,360.181a1.842,1.842,0,0,0,2.6,0,.586.586,0,0,0-.829-.829.667.667,0,1,1-.944-.944.586.586,0,0,0-.829-.829,1.842,1.842,0,0,0,0,2.6Z" transform="translate(-227.711 -341.995)"/><path class="b" d="M280.237,314.469a1.84,1.84,0,1,0-1.84,1.84A1.842,1.842,0,0,0,280.237,314.469Zm-1.84.667a.667.667,0,1,1,.667-.667A.668.668,0,0,1,278.4,315.136Z" transform="translate(-264.648 -300.719)"/><path class="b" d="M149.91,172.23a1.843,1.843,0,0,0-1.744,1.254h-1.451a8.681,8.681,0,0,0-.147-1.1l.665-.178a.586.586,0,1,0-.3-1.133l-.666.179a8.782,8.782,0,0,0-.426-1.026l1.26-.728a1.83,1.83,0,0,0,.74.4,1.851,1.851,0,0,0,.479.064,1.841,1.841,0,1,0-1.806-1.477l-1.26.728a8.787,8.787,0,0,0-.675-.883l.488-.488a.586.586,0,0,0-.829-.829l-.487.487a8.714,8.714,0,0,0-.881-.679l.725-1.255a1.845,1.845,0,1,0-1.015-.587l-1.009,1.747a.586.586,0,0,0,.215.8l.015.007a7.522,7.522,0,1,1-1.838-.765.586.586,0,0,0,.718-.415L141,165.14a.587.587,0,0,0-1.133-.3l-.178.662a8.776,8.776,0,0,0-1.1-.144V163.9a1.84,1.84,0,1,0-1.173,0v1.451a8.7,8.7,0,0,0-1.1.144l-.178-.663a.587.587,0,0,0-1.133.3l.178.663a8.678,8.678,0,0,0-1.027.427l-.726-1.258a1.839,1.839,0,1,0-1.856.561,1.85,1.85,0,0,0,.479.063,1.816,1.816,0,0,0,.362-.037l.726,1.258a8.789,8.789,0,0,0-.881.678l-.489-.489a.586.586,0,0,0-.829.829l.489.489a8.808,8.808,0,0,0-.678.881l-1.259-.727a1.844,1.844,0,1,0-.587,1.015l1.258.726a8.676,8.676,0,0,0-.427,1.027l-.663-.178a.586.586,0,0,0-.3,1.133l.663.178a8.715,8.715,0,0,0-.144,1.1h-1.451a1.84,1.84,0,1,0,0,1.173h1.451a8.7,8.7,0,0,0,.144,1.1l-.663.178a.586.586,0,1,0,.3,1.133l.663-.178a8.692,8.692,0,0,0,.427,1.027l-1.257.726a1.84,1.84,0,1,0,.587,1.016l1.259-.727a8.788,8.788,0,0,0,.678.881l-.489.489a.586.586,0,1,0,.829.829l.489-.489a8.8,8.8,0,0,0,.881.678l-.727,1.258a1.84,1.84,0,1,0,1.016.587l.726-1.257a8.666,8.666,0,0,0,1.027.427L135,183a.587.587,0,1,0,1.133.3l.178-.663a8.712,8.712,0,0,0,1.1.144v1.451a1.84,1.84,0,1,0,1.173,0v-1.451a8.7,8.7,0,0,0,1.1-.144l.178.663A.587.587,0,1,0,141,183l-.178-.663a8.665,8.665,0,0,0,1.027-.427l.726,1.257a1.84,1.84,0,1,0,1.016-.586l-.727-1.259a8.778,8.778,0,0,0,.881-.678l.489.489a.586.586,0,0,0,.829-.829l-.489-.489a8.782,8.782,0,0,0,.678-.881l1.259.727a1.84,1.84,0,1,0,.586-1.016l-1.257-.726a8.667,8.667,0,0,0,.427-1.027l.663.178a.586.586,0,1,0,.3-1.133l-.663-.178a8.715,8.715,0,0,0,.144-1.1h1.451a1.84,1.84,0,1,0,1.744-2.427Zm-2.24-4.287a.667.667,0,1,1,.067.506.663.663,0,0,1-.067-.506Zm-15.8-3.542a.667.667,0,0,1,.172-1.312.67.67,0,0,1,.174.023.667.667,0,0,1-.345,1.289Zm-4.014,4.359a.667.667,0,0,1-.345-1.289.67.67,0,0,1,.174-.023.667.667,0,0,1,.172,1.312Zm.161,11.843a.667.667,0,1,1,.244-.911.668.668,0,0,1-.244.911Zm4.6,4.115a.667.667,0,1,1,.067-.506A.663.663,0,0,1,132.623,184.718Zm11.91-.667a.668.668,0,1,1-.579-.333.668.668,0,0,1,.579.333Zm3.609-4.67a.667.667,0,1,1-.405.311.663.663,0,0,1,.405-.311Zm-4.764-15.958a.667.667,0,1,1-.067.506.668.668,0,0,1,.067-.506ZM138,161.493a.667.667,0,1,1-.667.667A.668.668,0,0,1,138,161.493Zm-11.91,13.244a.667.667,0,1,1,.667-.667A.668.668,0,0,1,126.09,174.737ZM138,186.647a.667.667,0,1,1,.667-.667A.668.668,0,0,1,138,186.647Zm11.91-11.91a.667.667,0,1,1,.667-.667A.668.668,0,0,1,149.91,174.737Z" transform="translate(-124.25 -160.32)"/><path class="b" d="M221.066,328.661a.59.59,0,1,0,.006,0Z" transform="translate(-212.958 -315.497)"/><path class="b" d="M365.87,329.247a.586.586,0,0,0-.586-.586h-.006a.586.586,0,1,0,.593.586Z" transform="translate(-345.892 -315.497)"/><path class="b" d="M293.212,400.807a.59.59,0,1,0,.006,0Z" transform="translate(-279.462 -382.002)"/></g><g transform="translate(53.952 144.18)"><path class="b" d="M22.409,13.224l.977,1.692A.586.586,0,0,0,24.4,14.33l-.977-1.693A5.648,5.648,0,0,0,24.66,11.4l1.693.977a.586.586,0,1,0,.586-1.016l-1.692-.977A5.551,5.551,0,0,0,25.7,8.7h1.952a.586.586,0,0,0,0-1.173H25.7a5.553,5.553,0,0,0-.455-1.69l1.692-.977a.586.586,0,0,0-.586-1.016l-1.693.977a5.648,5.648,0,0,0-1.237-1.237L24.4,1.888A.586.586,0,1,0,23.386,1.3l-.977,1.692a5.552,5.552,0,0,0-1.69-.454V.586a.586.586,0,0,0-1.173,0V2.538a5.556,5.556,0,0,0-1.69.454L16.879,1.3a.586.586,0,1,0-1.016.586l.977,1.693A5.648,5.648,0,0,0,15.6,4.817l-1.693-.977a.586.586,0,0,0-.586,1.016l1.692.977a5.553,5.553,0,0,0-.455,1.69H12.61a.586.586,0,0,0,0,1.173h1.952a5.6,5.6,0,0,0,.452,1.691l-1.69.976a.586.586,0,1,0,.586,1.016l2.171-1.254h0a.587.587,0,0,0,.214-.8,4.426,4.426,0,1,1,1.622,1.622.586.586,0,0,0-.8.214h0L15.864,14.33a.586.586,0,1,0,1.016.586l.976-1.69a5.607,5.607,0,0,0,1.691.452v1.952a.586.586,0,0,0,1.173,0V13.679a5.556,5.556,0,0,0,1.69-.455Z" transform="translate(-12.024 0)"/><path class="b" d="M108.8,65.929a.586.586,0,0,0,.586-.586v-.627a.586.586,0,1,0-1.173,0v.627A.587.587,0,0,0,108.8,65.929Z" transform="translate(-100.695 -59.114)"/><path class="b" d="M108.218,121.455a.586.586,0,0,0,1.173,0v-.627a.586.586,0,0,0-1.173,0Z" transform="translate(-100.695 -110.84)"/><path class="b" d="M133.479,97.366a.586.586,0,1,0,0-1.173h-.627a.586.586,0,0,0,0,1.173Z" transform="translate(-122.863 -88.671)"/><path class="b" d="M76.739,97.366h.627a.586.586,0,1,0,0-1.173h-.627a.586.586,0,0,0,0,1.173Z" transform="translate(-71.139 -88.671)"/></g><g transform="translate(329.448 70.088)"><path class="b" d="M352.556,5.642h-1.334a4.3,4.3,0,0,0-.847-2.045l.943-.943a.586.586,0,0,0-.829-.829l-1.33,1.33v0a.586.586,0,0,0,0,.828,3.175,3.175,0,1,1-2.247-.932,3.206,3.206,0,0,1,.574.052.586.586,0,1,0,.211-1.154q-.1-.018-.2-.031V.586a.586.586,0,0,0-1.173,0V1.921a4.324,4.324,0,0,0-2.043.848l-.945-.945a.586.586,0,0,0-.829.829l.945.945a4.325,4.325,0,0,0-.848,2.043h-1.335a.586.586,0,1,0,0,1.173h1.335a4.325,4.325,0,0,0,.848,2.043l-.945.945a.586.586,0,0,0,.829.829l.945-.945a4.325,4.325,0,0,0,2.043.848v1.335a.586.586,0,0,0,1.173,0V10.535a4.324,4.324,0,0,0,2.043-.848l.945.945a.586.586,0,1,0,.829-.829l-.945-.945a4.324,4.324,0,0,0,.848-2.043h1.335a.586.586,0,0,0,0-1.173Z" transform="translate(-340.687)"/><path class="b" d="M429.406,64.129a.59.59,0,1,0,.006,0Z" transform="translate(-421.931 -59.114)"/><path class="b" d="M413.381,88.178h-.006a.59.59,0,1,0,.006,0Z" transform="translate(-407.153 -81.283)"/><path class="b" d="M397.341,64.129a.59.59,0,1,0,.006,0Z" transform="translate(-392.374 -59.114)"/></g><path class="b" d="M293.725,257.1a.586.586,0,0,0-.586-.586h-.006a.586.586,0,1,0,.593.586Z" transform="translate(-89.647 -131.44)"/><path class="b" d="M293.725,257.1a.586.586,0,0,0-.586-.586h-.006a.586.586,0,1,0,.593.586Z" transform="translate(-89.647 -131.44)"/></g></svg>