<svg xmlns="http://www.w3.org/2000/svg" width="22.608" height="23.609" viewBox="0 0 22.608 23.609"><defs><style>.a{fill:#040e28;}.b{fill:#4ca07a;}</style></defs><path class="a" d="M.984,328.853a.984.984,0,0,0,.984-.984v-6.886a.984.984,0,0,0-1.967,0v6.886a.984.984,0,0,0,.984.984" transform="translate(0 -305.245)"/><path class="a" d="M128,235.651v10.821a.984.984,0,0,0,1.967,0V235.651a.984.984,0,0,0-1.967,0" transform="translate(-122.099 -223.846)"/><path class="a" d="M257.967,107.651a.984.984,0,0,0-1.967,0v4.938a8.008,8.008,0,0,1,1.967-1.239Z" transform="translate(-244.196 -101.749)"/><path class="a" d="M384.984,0A.987.987,0,0,0,384,.984V8.863a8.681,8.681,0,0,1,1.967.354V.984A.987.987,0,0,0,384.984,0" transform="translate(-366.294)"/><circle class="b" cx="6" cy="6" r="6" transform="translate(10.608 11.46)"/></svg>