<?xml version="1.0"?>
<svg xmlns="http://www.w3.org/2000/svg" xmlns:xlink="http://www.w3.org/1999/xlink" xmlns:svgjs="http://svgjs.com/svgjs" version="1.1" width="240" height="240" x="0" y="0" viewBox="0 0 512 512" style="enable-background:new 0 0 512 512" xml:space="preserve" class=""><g><path xmlns="http://www.w3.org/2000/svg" d="m194 122c0 16.566406-13.429688 30-30 30-16.566406 0-30-13.433594-30-30 0-16.570312 13.433594-30 30-30 16.570312 0 30 13.429688 30 30zm147.589844 51.65625-106.09375 106.09375 34.234375 34.234375 33.84375-33.84375c11.332031-11.332031 26.398437-17.574219 42.425781-17.574219s31.09375 6.242188 42.425781 17.574219l45.71875 45.71875c7.808594 7.808594 7.808594 20.472656 0 28.28125-7.8125 7.8125-20.476562 7.8125-28.285156 0l-45.714844-45.714844c-3.78125-3.777343-8.800781-5.859375-14.144531-5.859375-5.339844 0-10.363281 2.082032-14.140625 5.859375l-47.984375 47.984375c-3.90625 3.90625-9.023438 5.859375-14.144531 5.859375-5.117188 0-10.234375-1.953125-14.140625-5.859375l-98.984375-98.984375c-3.777344-3.777343-8.800781-5.859375-14.140625-5.859375-5.34375 0-10.367188 2.082032-14.144532 5.859375l-88.320312 88.320313v14.253906c0 22.054688 17.945312 40 40 40h352c22.054688 0 40-17.945312 40-40 0-11.046875 8.953125-20 20-20s20 8.953125 20 20c0 44.113281-35.886719 80-80 80h-352c-44.113281 0-80-35.886719-80-80v-280c0-44.113281 35.886719-80 80-80h352c44.113281 0 80 35.886719 80 80v187.5c0 8.089844-4.871094 15.382812-12.347656 18.476562-7.472656 3.097657-16.074219 1.386719-21.792969-4.332031l-107.988281-107.988281c-3.777344-3.777344-8.796875-5.855469-14.140625-5.855469-5.339844 0-10.363281 2.078125-14.140625 5.855469zm-28.285156-28.285156c11.332031-11.332032 26.398437-17.570313 42.425781-17.570313 16.027343 0 31.09375 6.238281 42.425781 17.570313l73.84375 73.84375v-139.214844c0-22.054688-17.945312-40-40-40h-352c-22.054688 0-40 17.945312-40 40v209.175781l60.035156-60.035156c11.332032-11.332031 26.398438-17.574219 42.425782-17.574219 16.027343 0 31.09375 6.242188 42.425781 17.574219l22.324219 22.324219zm0 0" fill="#f3f6f9" data-original="#000000" style="" class=""/></g></svg>
