<svg xmlns="http://www.w3.org/2000/svg" width="22.608" height="23.609" viewBox="0 0 22.608 23.609"><defs><style>.a{fill:#040e28;}.b{fill:#ff6969;}</style></defs><g transform="translate(10970.608 6326.46)"><path class="a" d="M.984,328.853a.984.984,0,0,0,.984-.984v-6.886a.984.984,0,0,0-1.967,0v6.886a.984.984,0,0,0,.984.984" transform="translate(-10970.608 -6631.705)"/><path class="a" d="M128,235.651v10.821a.984.984,0,0,0,1.967,0V235.651a.984.984,0,0,0-1.967,0" transform="translate(-11092.707 -6550.306)"/><path class="a" d="M257.967,107.651a.984.984,0,0,0-1.967,0v4.938a8.008,8.008,0,0,1,1.967-1.239Z" transform="translate(-11214.805 -6428.208)"/><path class="a" d="M384.984,0A.987.987,0,0,0,384,.984V8.863a8.681,8.681,0,0,1,1.967.354V.984A.987.987,0,0,0,384.984,0" transform="translate(-11336.902 -6326.46)"/><circle class="b" cx="6" cy="6" r="6" transform="translate(-10960 -6315)"/></g></svg>