<svg xmlns="http://www.w3.org/2000/svg" width="42" height="42" viewBox="0 0 42 42"><defs><style>.a{fill:#e3f4fe;}.b{fill:#59bcf9;}.c{fill:#fff;}</style></defs><g transform="translate(-288 -267)"><circle class="a" cx="21" cy="21" r="21" transform="translate(288 267)"/><circle class="b" cx="17" cy="17" r="17" transform="translate(292 271)"/><path class="c" d="M195.283,96.918a2.286,2.286,0,1,0,1.966,1.124l1.655-1.655,2.018,2.018a.571.571,0,0,0,.807-.807l-.4-.4,5.108-5.108h0l.807-.807a1.715,1.715,0,0,0,.334-1.949l1.28-1.28a1.715,1.715,0,0,0,.334-1.949l3.126-3.126a.571.571,0,1,0-.807-.807l-3.126,3.126a1.715,1.715,0,0,0-1.949.334l-1.28,1.28a1.715,1.715,0,0,0-1.949.334l-5.916,5.916-.4-.4a.571.571,0,0,0-.807.807L198.1,95.58l-1.655,1.655A2.267,2.267,0,0,0,195.283,96.918Zm11.958-10.482a.571.571,0,1,1,.807.807l-1.211,1.211-.807-.807Zm-3.229,1.614a.571.571,0,0,1,.807,0l1.614,1.614a.571.571,0,0,1,0,.807l-.4.4-1.211-1.211a.571.571,0,1,0-.807.807l1.211,1.211-.807.807-1.211-1.211a.571.571,0,0,0-.807.807l1.211,1.211-.905.905-1.211-1.211a.571.571,0,0,0-.807.807l1.211,1.211-1.378,1.378L198.1,93.966Zm-8.729,12.293a1.142,1.142,0,1,1,1.142-1.142A1.143,1.143,0,0,1,195.283,100.343Z" transform="translate(106.259 196.257)"/></g></svg>