<svg xmlns="http://www.w3.org/2000/svg" width="75" height="75" viewBox="0 0 75 75"><defs><style>.a{fill:#fff2f0;opacity:0.593;}.b{fill:#fc573b;}.c{fill:#fff;}</style></defs><g transform="translate(-150 -231)"><g transform="translate(-13.5 50.5)"><circle class="a" cx="37.5" cy="37.5" r="37.5" transform="translate(163.5 180.5)"/><circle class="b" cx="30" cy="30" r="30" transform="translate(170.5 187.5)"/></g><g transform="translate(216.903 292.455)"><g transform="translate(-45 -40.118)"><path class="c" d="M174.8,272.382a1.576,1.576,0,0,0,0,3.151,1.576,1.576,0,0,0,0-3.151Z" transform="translate(-159.472 -252.688)"/><path class="c" d="M-15.089-14.84a5.38,5.38,0,0,0,.013-5.445l-9.869-17.091a5.362,5.362,0,0,0-4.72-2.741,5.381,5.381,0,0,0-4.72,2.735l-9.882,17.11a5.423,5.423,0,0,0,.019,5.477,5.393,5.393,0,0,0,4.708,2.7h19.713A5.427,5.427,0,0,0-15.089-14.84Zm-2.143-1.235a2.978,2.978,0,0,1-2.6,1.506H-39.548a2.937,2.937,0,0,1-2.571-1.475,2.982,2.982,0,0,1-.006-3.006l9.882-17.1a2.924,2.924,0,0,1,2.578-1.494,2.938,2.938,0,0,1,2.578,1.5l9.875,17.1A2.943,2.943,0,0,1-17.232-16.075Z" transform="translate(45 40.118)"/><path class="c" d="M173.941,96.221a1.713,1.713,0,0,0-1.216,1.72c.038.5.069,1,.107,1.5.107,1.9.214,3.756.321,5.653a1.155,1.155,0,0,0,1.179,1.109,1.178,1.178,0,0,0,1.178-1.147c0-.391,0-.75.038-1.147.069-1.216.145-2.433.214-3.649.038-.788.107-1.576.145-2.363a1.945,1.945,0,0,0-.145-.788A1.58,1.58,0,0,0,173.941,96.221Z" transform="translate(-159.004 -87.587)"/></g></g></g></svg>