<svg xmlns="http://www.w3.org/2000/svg" width="16.022" height="13.917" viewBox="0 0 16.022 13.917"><defs><style>.a{fill:#1d1d1d;}</style></defs><g transform="translate(-337.445 -644.083)"><g transform="translate(337.445 644.083)"><g transform="translate(0 6.314)"><path class="a" d="M15.249,235.408H.644a.644.644,0,1,0,0,1.289h14.6a.644.644,0,1,0,0-1.289Z" transform="translate(0 -235.408)"/></g><g transform="translate(8.419 0)"><g transform="translate(0 0)"><path class="a" d="M276.454,40.128l-6.314-6.314a.644.644,0,1,0-.911.911l5.859,5.859-5.859,5.859a.644.644,0,1,0,.911.911l6.314-6.314A.644.644,0,0,0,276.454,40.128Z" transform="translate(-269.04 -33.625)"/></g></g></g></g></svg>