<svg xmlns="http://www.w3.org/2000/svg" xmlns:xlink="http://www.w3.org/1999/xlink" width="21.795" height="23.513" viewBox="0 0 21.795 23.513"><defs><style>.a{fill:#646d82;}.b{clip-path:url(#a);}</style><clipPath id="a"><rect class="a" width="21.795" height="23.513"/></clipPath></defs><g class="b"><path class="a" d="M10.5,22.166H4.366a3.023,3.023,0,0,1-3.019-3.019V4.366A3.023,3.023,0,0,1,4.366,1.347H10.6A.674.674,0,1,0,10.6,0H4.366A4.371,4.371,0,0,0,0,4.366V19.147a4.371,4.371,0,0,0,4.366,4.366H10.5a.674.674,0,0,0,0-1.347"/><path class="a" d="M119.742,140.8l-4.282-4.282a.674.674,0,0,0-.953.953l3.134,3.134H103.974a.674.674,0,0,0,0,1.347h13.668l-3.134,3.134a.676.676,0,0,0,.474,1.153.658.658,0,0,0,.474-.2l4.281-4.282a.673.673,0,0,0,0-.958" transform="translate(-98.145 -129.522)"/></g></svg>