<svg width="21" height="20" viewBox="0 0 21 20" fill="none" xmlns="http://www.w3.org/2000/svg">
<path d="M10.5 0C4.97768 0 0.5 4.47768 0.5 10C0.5 15.5223 4.97768 20 10.5 20C16.0223 20 20.5 15.5223 20.5 10C20.5 4.47768 16.0223 0 10.5 0ZM10.5 18.3036C5.91518 18.3036 2.19643 14.5848 2.19643 10C2.19643 5.41518 5.91518 1.69643 10.5 1.69643C15.0848 1.69643 18.8036 5.41518 18.8036 10C18.8036 14.5848 15.0848 18.3036 10.5 18.3036Z" fill="#6493E0"/>
<path d="M14.6071 9.28571H11.2143V5.89286C11.2143 5.79464 11.1339 5.71429 11.0357 5.71429H9.96429C9.86607 5.71429 9.78571 5.79464 9.78571 5.89286V9.28571H6.39286C6.29464 9.28571 6.21429 9.36607 6.21429 9.46429V10.5357C6.21429 10.6339 6.29464 10.7143 6.39286 10.7143H9.78571V14.1071C9.78571 14.2054 9.86607 14.2857 9.96429 14.2857H11.0357C11.1339 14.2857 11.2143 14.2054 11.2143 14.1071V10.7143H14.6071C14.7054 10.7143 14.7857 10.6339 14.7857 10.5357V9.46429C14.7857 9.36607 14.7054 9.28571 14.6071 9.28571Z" fill="#6493E0"/>
</svg>
