<svg width="32" height="32" viewBox="0 0 32 32" fill="none" xmlns="http://www.w3.org/2000/svg">
<path d="M15.75 0C7.05234 0 0 7.05234 0 15.75C0 24.4477 7.05234 31.5 15.75 31.5C24.4477 31.5 31.5 24.4477 31.5 15.75C31.5 7.05234 24.4477 0 15.75 0ZM15.75 28.8281C8.52891 28.8281 2.67188 22.9711 2.67188 15.75C2.67188 8.52891 8.52891 2.67188 15.75 2.67188C22.9711 2.67188 28.8281 8.52891 28.8281 15.75C28.8281 22.9711 22.9711 28.8281 15.75 28.8281Z" fill="#6493E0"/>
<path d="M22.2188 14.625H16.875V9.28125C16.875 9.12656 16.7484 9 16.5938 9H14.9062C14.7516 9 14.625 9.12656 14.625 9.28125V14.625H9.28125C9.12656 14.625 9 14.7516 9 14.9062V16.5938C9 16.7484 9.12656 16.875 9.28125 16.875H14.625V22.2188C14.625 22.3734 14.7516 22.5 14.9062 22.5H16.5938C16.7484 22.5 16.875 22.3734 16.875 22.2188V16.875H22.2188C22.3734 16.875 22.5 16.7484 22.5 16.5938V14.9062C22.5 14.7516 22.3734 14.625 22.2188 14.625Z" fill="#6493E0"/>
</svg>
