<svg width="21" height="20" viewBox="0 0 21 20" fill="none" xmlns="http://www.w3.org/2000/svg">
<path d="M19.5909 0H4.36364C4.23864 0 4.13636 0.0803571 4.13636 0.178571V1.42857C4.13636 1.52679 4.23864 1.60714 4.36364 1.60714H18.4545V16.9643C18.4545 17.0625 18.5568 17.1429 18.6818 17.1429H20.2727C20.3977 17.1429 20.5 17.0625 20.5 16.9643V0.714286C20.5 0.319196 20.0938 0 19.5909 0ZM15.9545 2.85714H1.40909C0.90625 2.85714 0.5 3.17634 0.5 3.57143V15.4174C0.5 15.6071 0.596591 15.7879 0.767045 15.9219L5.69034 19.7902C5.75284 19.8393 5.82386 19.8795 5.90057 19.9129V19.9554H6.01989C6.11932 19.9844 6.22443 20 6.33239 20H15.9545C16.4574 20 16.8636 19.6808 16.8636 19.2857V3.57143C16.8636 3.17634 16.4574 2.85714 15.9545 2.85714ZM5.89773 17.683L3.4517 15.7589H5.89773V17.683ZM14.8182 18.3929H7.71591V15.2232C7.71591 14.7299 7.20739 14.3304 6.57955 14.3304H2.54545V4.46429H14.8182V18.3929Z" fill="#6493E0"/>
</svg>
