<svg width="22" height="24" viewBox="0 0 22 24" fill="none" xmlns="http://www.w3.org/2000/svg">
<path d="M5.41909 3.34863H19.9309C21.0095 3.34863 21.8841 4.42726 21.8841 5.30191V22.0464C21.8841 23.1251 21.0097 23.9997 19.9309 23.9997H5.41909C4.34047 23.9997 3.46582 22.9211 3.46582 22.0464V5.30191C3.46582 4.22328 4.34026 3.34863 5.41909 3.34863Z" fill="white"/>
<path d="M16.582 5.23156e-06H2.07025C1.55246 0.000623374 1.05608 0.206668 0.689967 0.572785C0.323829 0.938923 0.117768 1.4353 0.117188 1.95328V14.2328C0.128314 14.5243 0.29026 14.7891 0.544934 14.9317C0.799396 15.0745 1.10991 15.0745 1.36436 14.9317C1.61903 14.7891 1.78098 14.5243 1.79231 14.2328V1.95328C1.79231 1.79936 1.91656 1.6745 2.07026 1.67388H16.582C16.881 1.67388 17.1573 1.51441 17.3069 1.25541C17.4562 0.996412 17.4562 0.677461 17.3069 0.418474C17.1573 0.159475 16.881 0 16.582 0L16.582 5.23156e-06Z" fill="white"/>
</svg>
