<svg width="19" height="19" viewBox="0 0 19 19" fill="none" xmlns="http://www.w3.org/2000/svg">
<path d="M9.33997 13.5213C9.35898 13.5471 9.38327 13.568 9.41099 13.5823C9.43872 13.5967 9.46916 13.6041 9.5 13.6041C9.53084 13.6041 9.56128 13.5967 9.589 13.5823C9.61673 13.568 9.64102 13.5471 9.66003 13.5213L12.5049 9.69702C12.6091 9.55668 12.5151 9.34886 12.3449 9.34886H10.4627V0.215909C10.4627 0.0971591 10.3713 0 10.2595 0H8.73543C8.62366 0 8.53222 0.0971591 8.53222 0.215909V9.34616H6.65508C6.48489 9.34616 6.39091 9.55398 6.49505 9.69432L9.33997 13.5213ZM18.7968 12.5767H17.2727C17.161 12.5767 17.0695 12.6739 17.0695 12.7926V16.9489H1.93048V12.7926C1.93048 12.6739 1.83904 12.5767 1.72727 12.5767H0.203209C0.0914438 12.5767 0 12.6739 0 12.7926V18.1364C0 18.6141 0.363235 19 0.812834 19H18.1872C18.6368 19 19 18.6141 19 18.1364V12.7926C19 12.6739 18.9086 12.5767 18.7968 12.5767Z" fill="#6493E0"/>
</svg>
