<svg width="21" height="20" viewBox="0 0 21 20" fill="none" xmlns="http://www.w3.org/2000/svg">
<path d="M10.3316 14.233C10.3516 14.2601 10.3771 14.2821 10.4063 14.2972C10.4355 14.3123 10.4675 14.3202 10.5 14.3202C10.5325 14.3202 10.5645 14.3123 10.5937 14.2972C10.6229 14.2821 10.6484 14.2601 10.6684 14.233L13.6631 10.2074C13.7727 10.0597 13.6738 9.84091 13.4947 9.84091H11.5134V0.227273C11.5134 0.102273 11.4171 0 11.2995 0H9.69519C9.57754 0 9.48128 0.102273 9.48128 0.227273V9.83807H7.50535C7.3262 9.83807 7.22727 10.0568 7.3369 10.2045L10.3316 14.233ZM20.2861 13.2386H18.6818C18.5642 13.2386 18.4679 13.3409 18.4679 13.4659V17.8409H2.53209V13.4659C2.53209 13.3409 2.43583 13.2386 2.31818 13.2386H0.713904C0.596257 13.2386 0.5 13.3409 0.5 13.4659V19.0909C0.5 19.5938 0.882353 20 1.35561 20H19.6444C20.1176 20 20.5 19.5938 20.5 19.0909V13.4659C20.5 13.3409 20.4037 13.2386 20.2861 13.2386Z" fill="#6493E0"/>
</svg>
