<svg width="19" height="24" viewBox="0 0 19 24" fill="none" xmlns="http://www.w3.org/2000/svg">
<path d="M18.2594 12.5681C18.4966 12.3362 18.5621 11.992 18.4394 11.6962C18.3085 11.3921 18.0058 11.2001 17.6786 11.2001H13.5885V0.800006C13.5885 0.360003 13.2204 0 12.7705 0H6.22634C5.77643 0 5.40832 0.360003 5.40832 0.800006V11.2001H1.31823C0.991024 11.2001 0.688265 11.3921 0.565561 11.6962C0.44286 11.9923 0.508228 12.3362 0.745602 12.5681L8.92578 20.5682C9.08116 20.7202 9.28567 20.8002 9.49839 20.8002C9.71111 20.8002 9.91562 20.7202 10.0792 20.5682L18.2594 12.5681ZM1.31802 19.2C1.76793 19.2 2.13603 19.56 2.13603 20V22.4H16.8603V20C16.8603 19.56 17.2285 19.2 17.6784 19.2C18.1283 19.2 18.4964 19.56 18.4964 20V23.2C18.4964 23.64 18.1283 24 17.6784 24H1.31802C0.868107 24 0.5 23.64 0.5 23.2V20C0.5 19.56 0.868107 19.2 1.31802 19.2Z" fill="white"/>
</svg>
