<svg width="24" height="24" viewBox="0 0 24 24" fill="none" xmlns="http://www.w3.org/2000/svg">
<path d="M23.04 21.72H0.96C0.429 21.72 0 22.149 0 22.68V23.76C0 23.892 0.108 24 0.24 24H23.76C23.892 24 24 23.892 24 23.76V22.68C24 22.149 23.571 21.72 23.04 21.72ZM4.371 19.2C4.431 19.2 4.491 19.194 4.551 19.185L9.597 18.3C9.657 18.288 9.714 18.261 9.756 18.216L22.473 5.499C22.5008 5.47125 22.5229 5.43828 22.5379 5.40199C22.553 5.3657 22.5607 5.32679 22.5607 5.2875C22.5607 5.24821 22.553 5.2093 22.5379 5.17301C22.5229 5.13672 22.5008 5.10375 22.473 5.076L17.487 0.087C17.43 0.03 17.355 0 17.274 0C17.193 0 17.118 0.03 17.061 0.087L4.344 12.804C4.299 12.849 4.272 12.903 4.26 12.963L3.375 18.009C3.34582 18.1697 3.35624 18.3351 3.40538 18.4909C3.45452 18.6467 3.54088 18.7881 3.657 18.903C3.855 19.095 4.104 19.2 4.371 19.2ZM6.393 13.968L17.274 3.09L19.473 5.289L8.592 16.167L5.925 16.638L6.393 13.968Z" fill="#6493E0"/>
</svg>
