<svg width="40" height="40" viewBox="0 0 40 40" fill="none" xmlns="http://www.w3.org/2000/svg">
<g clip-path="url(#clip0_1069_6283)">
<path d="M18.333 25.0007H21.6663V28.334H18.333V25.0007ZM18.333 11.6673H21.6663V21.6673H18.333V11.6673ZM19.983 3.33398C10.783 3.33398 3.33301 10.8007 3.33301 20.0007C3.33301 29.2007 10.783 36.6673 19.983 36.6673C29.1997 36.6673 36.6663 29.2007 36.6663 20.0007C36.6663 10.8007 29.1997 3.33398 19.983 3.33398ZM19.9997 33.334C12.633 33.334 6.66634 27.3673 6.66634 20.0007C6.66634 12.634 12.633 6.66732 19.9997 6.66732C27.3663 6.66732 33.333 12.634 33.333 20.0007C33.333 27.3673 27.3663 33.334 19.9997 33.334Z" fill="#E84545"/>
</g>
<defs>
<clipPath id="clip0_1069_6283">
<rect width="40" height="40" fill="white"/>
</clipPath>
</defs>
</svg>
