<svg width="24" height="24" viewBox="0 0 24 24" fill="none" xmlns="http://www.w3.org/2000/svg">
<g clip-path="url(#clip0_1069_6148)">
<path d="M24 12C24 18.6274 18.6274 24 12 24C5.37258 24 0 18.6274 0 12C0 5.37258 5.37258 0 12 0C18.6274 0 24 5.37258 24 12ZM2.4 12C2.4 17.3019 6.69807 21.6 12 21.6C17.3019 21.6 21.6 17.3019 21.6 12C21.6 6.69807 17.3019 2.4 12 2.4C6.69807 2.4 2.4 6.69807 2.4 12Z" fill="#EAEAEB"/>
<path d="M4.36325 19.6368C3.89462 20.1054 3.12944 20.1088 2.70993 19.5957C1.16975 17.7121 0.232262 15.396 0.037797 12.9517C-0.188523 10.1069 0.606364 7.27466 2.27981 4.9631C3.95326 2.65154 6.39573 1.01201 9.1689 0.338746C11.5517 -0.239757 14.0447 -0.0723256 16.3151 0.802668C16.9335 1.041 17.1692 1.76898 16.8703 2.36051C16.5715 2.95203 15.8513 3.18143 15.2271 2.95864C13.4719 2.33213 11.563 2.22723 9.73512 2.671C7.51658 3.20961 5.56261 4.52123 4.22385 6.37048C2.88509 8.21973 2.24918 10.4856 2.43024 12.7613C2.57941 14.6364 3.27511 16.4171 4.41837 17.8889C4.82492 18.4123 4.83188 19.1681 4.36325 19.6368Z" fill="#6493E0"/>
</g>
<defs>
<clipPath id="clip0_1069_6148">
<rect width="24" height="24" fill="white"/>
</clipPath>
</defs>
</svg>
