<svg width="20" height="20" viewBox="0 0 20 20" fill="none" xmlns="http://www.w3.org/2000/svg">
<path d="M19.9489 18.6353L16.3974 15.0838C19.3675 11.4617 19.1608 6.09542 15.7649 2.70198C12.1647 -0.90066 6.31678 -0.90066 2.70198 2.70198C-0.90066 6.31678 -0.90066 12.1647 2.70198 15.7649C6.09542 19.1608 11.4617 19.3675 15.0838 16.3974L18.6353 19.9489C18.7132 20.017 18.8372 20.017 18.9029 19.9489L19.9489 18.9029C20.017 18.8372 20.017 18.7132 19.9489 18.6353ZM14.4756 14.4756C11.5857 17.3631 6.90546 17.3631 4.01557 14.4756C1.12811 11.5857 1.12811 6.90546 4.01557 4.01557C6.90546 1.12811 11.5857 1.12811 14.4756 4.01557C17.3631 6.90546 17.3631 11.5857 14.4756 14.4756Z" fill="#C4C4C4"/>
</svg>
