<svg width="40" height="40" viewBox="0 0 40 40" fill="none" xmlns="http://www.w3.org/2000/svg">
<g clip-path="url(#clip0_1069_6211)">
<path d="M27.6497 12.634L16.6663 23.6173L10.683 17.6507L8.33301 20.0007L16.6663 28.334L29.9997 15.0007L27.6497 12.634ZM19.9997 3.33398C10.7997 3.33398 3.33301 10.8007 3.33301 20.0007C3.33301 29.2007 10.7997 36.6673 19.9997 36.6673C29.1997 36.6673 36.6663 29.2007 36.6663 20.0007C36.6663 10.8007 29.1997 3.33398 19.9997 3.33398ZM19.9997 33.334C12.633 33.334 6.66634 27.3673 6.66634 20.0007C6.66634 12.634 12.633 6.66732 19.9997 6.66732C27.3663 6.66732 33.333 12.634 33.333 20.0007C33.333 27.3673 27.3663 33.334 19.9997 33.334Z" fill="#4EA466"/>
</g>
<defs>
<clipPath id="clip0_1069_6211">
<rect width="40" height="40" fill="white"/>
</clipPath>
</defs>
</svg>
