<svg width="54" height="50" viewBox="0 0 54 50" fill="none" xmlns="http://www.w3.org/2000/svg">
<path d="M18.6061 11.2041H23.8542V35.2287C23.8542 35.5412 24.1098 35.7969 24.4223 35.7969H28.6833C28.9957 35.7969 29.2514 35.5412 29.2514 35.2287V11.2041H34.5136C34.9894 11.2041 35.2522 10.6573 34.961 10.288L27.0073 0.217982C26.9541 0.150078 26.8862 0.0951619 26.8087 0.0573947C26.7312 0.0196275 26.6461 0 26.5599 0C26.4737 0 26.3886 0.0196275 26.311 0.0573947C26.2335 0.0951619 26.1656 0.150078 26.1125 0.217982L18.1587 10.2809C17.8676 10.6573 18.1303 11.2041 18.6061 11.2041V11.2041ZM52.5516 33.0983H48.2907C47.9782 33.0983 47.7226 33.3539 47.7226 33.6664V44.6028H5.39719V33.6664C5.39719 33.3539 5.14154 33.0983 4.82907 33.0983H0.568126C0.255657 33.0983 0 33.3539 0 33.6664V47.7275C0 48.9845 1.01552 50 2.2725 50H50.8473C52.1042 50 53.1198 48.9845 53.1198 47.7275V33.6664C53.1198 33.3539 52.8641 33.0983 52.5516 33.0983Z" fill="#6493E0"/>
</svg>
