<svg width="20" height="20" viewBox="0 0 20 20" fill="none" xmlns="http://www.w3.org/2000/svg">
<path d="M7.00535 4.48165H8.98128V14.0915C8.98128 14.2165 9.07754 14.3187 9.19519 14.3187H10.7995C10.9171 14.3187 11.0134 14.2165 11.0134 14.0915V4.48165H12.9947C13.1738 4.48165 13.2727 4.26292 13.1631 4.1152L10.1684 0.0871928C10.1484 0.0600313 10.1229 0.0380648 10.0937 0.0229579C10.0645 0.00785099 10.0325 0 10 0C9.96754 0 9.9355 0.00785099 9.90631 0.0229579C9.87712 0.0380648 9.85156 0.0600313 9.83155 0.0871928L6.8369 4.11236C6.72727 4.26292 6.8262 4.48165 7.00535 4.48165ZM19.7861 13.2393H18.1818C18.0642 13.2393 17.9679 13.3416 17.9679 13.4666V17.8411H2.03209V13.4666C2.03209 13.3416 1.93583 13.2393 1.81818 13.2393H0.213904C0.0962567 13.2393 0 13.3416 0 13.4666V19.091C0 19.5938 0.382353 20 0.855615 20H19.1444C19.6176 20 20 19.5938 20 19.091V13.4666C20 13.3416 19.9037 13.2393 19.7861 13.2393Z" fill="#6493E0"/>
</svg>
