<svg width="31" height="29" viewBox="0 0 31 29" fill="none" xmlns="http://www.w3.org/2000/svg">
<path d="M10.5268 6.33895H13.496V19.9314C13.496 20.1082 13.6406 20.2528 13.8174 20.2528H16.2281C16.4049 20.2528 16.5496 20.1082 16.5496 19.9314V6.33895H19.5268C19.796 6.33895 19.9446 6.02958 19.7799 5.82065L15.2799 0.123328C15.2498 0.0849098 15.2114 0.0538398 15.1676 0.0324722C15.1237 0.0111046 15.0756 0 15.0268 0C14.978 0 14.9299 0.0111046 14.886 0.0324722C14.8421 0.0538398 14.8037 0.0849098 14.7737 0.123328L10.2737 5.81663C10.1089 6.02958 10.2576 6.33895 10.5268 6.33895ZM29.7321 18.726H27.3214C27.1446 18.726 27 18.8707 27 19.0474V25.2349H3.05357V19.0474C3.05357 18.8707 2.90893 18.726 2.73214 18.726H0.321429C0.144643 18.726 0 18.8707 0 19.0474V27.0028C0 27.714 0.574554 28.2885 1.28571 28.2885H28.7679C29.479 28.2885 30.0536 27.714 30.0536 27.0028V19.0474C30.0536 18.8707 29.9089 18.726 29.7321 18.726Z" fill="#6493E0"/>
</svg>
