<svg xmlns="http://www.w3.org/2000/svg" width="22.366" height="28.609" viewBox="0 0 22.366 28.609"><defs><style>.a{fill:none;stroke:#646d82;stroke-linecap:round;stroke-linejoin:round;stroke-width:1.2px;}</style></defs><g transform="translate(-9.126 0.6)"><path class="a" d="M242.241,12.711a3.37,3.37,0,1,1,3.371-3.37A3.37,3.37,0,0,1,242.241,12.711Z" transform="translate(-225.1 -5.97)"/><path class="a" d="M230.2,196.544v13.774a1.5,1.5,0,0,0,1.454,1.623,1.607,1.607,0,0,0,1.591-1.623v-6a.872.872,0,1,1,1.744,0v6a1.607,1.607,0,0,0,1.591,1.623,1.5,1.5,0,0,0,1.454-1.623V196.544" transform="translate(-217.029 -184.532)"/><path class="a" d="M188.024,148.03a1.488,1.488,0,0,1-1.472,1.5,1.387,1.387,0,0,1-1.346-1.5v-5.186a3.435,3.435,0,0,1,3.435-3.435h6.636a3.435,3.435,0,0,1,3.436,3.435v5.186a1.387,1.387,0,0,1-1.346,1.5,1.488,1.488,0,0,1-1.472-1.5" transform="translate(-175.479 -130.999)"/><path class="a" d="M366.606,91.165a2.847,2.847,0,1,0-4.237-3.688" transform="translate(-339.117 -81.073)"/><path class="a" d="M396.408,246.03v4.8h0v6.105a1.266,1.266,0,0,1-1.228,1.371,1.357,1.357,0,0,1-1.343-1.371V252.22a.736.736,0,0,0-.736-.736" transform="translate(-367.911 -230.899)"/><path class="a" d="M438.071,204.684a1.256,1.256,0,0,0,1.243,1.269,1.172,1.172,0,0,0,1.137-1.269v-4a2.9,2.9,0,0,0-2.9-2.9h.184" transform="translate(-409.56 -185.69)"/></g></svg>