<svg xmlns="http://www.w3.org/2000/svg" width="57" height="57" viewBox="0 0 57 57"><defs><style>.a{fill:#de9d00;}.b,.d{fill:none;}.b{stroke:#de9d00;stroke-width:2px;}.c{stroke:none;}</style></defs><g transform="translate(-212 -526)"><g transform="translate(224.981 538.003)"><g transform="translate(0 0.499)"><g transform="translate(0 0)"><path class="a" d="M15.479.5a8.946,8.946,0,0,0-5.063,16.323A15.5,15.5,0,0,0,0,31.457H2.419A13.075,13.075,0,0,1,15.479,18.4a8.949,8.949,0,0,0,0-17.9Zm0,15.479a6.53,6.53,0,1,1,6.53-6.53A6.538,6.538,0,0,1,15.479,15.978Z" transform="translate(0 -0.499)"/></g></g><g transform="translate(18.442 18.88)"><path class="a" d="M311.9,308.985v-5.079h-2.419v5.079H304.4V311.4h5.079v5.079H311.9V311.4h5.079v-2.419Z" transform="translate(-304.405 -303.906)"/></g></g><g class="b" transform="translate(212 526)"><circle class="c" cx="28.5" cy="28.5" r="28.5"/><circle class="d" cx="28.5" cy="28.5" r="27.5"/></g></g></svg>