<svg xmlns="http://www.w3.org/2000/svg" xmlns:xlink="http://www.w3.org/1999/xlink" width="58" height="58" viewBox="0 0 58 58"><defs><style>.a{fill:#4e67d1;}.b{clip-path:url(#a);}</style><clipPath id="a"><rect class="a" width="58" height="58" transform="translate(0 0)"/></clipPath></defs><g transform="translate(-172 -855)"><g transform="translate(0 2)"><g transform="translate(172 853)"><rect class="a" width="12.567" height="1.933" transform="translate(22.233 9.667)"/><rect class="a" width="30.933" height="1.933" transform="translate(13.533 15.467)"/><rect class="a" width="21.267" height="1.933" transform="translate(13.533 21.267)"/><rect class="a" width="5.8" height="1.933" transform="translate(38.667 21.267)"/><rect class="a" width="30.933" height="1.933" transform="translate(13.533 27.067)"/><rect class="a" width="11.6" height="1.933" transform="translate(13.533 32.867)"/><rect class="a" width="4.833" height="1.933" transform="translate(13.533 37.7)"/><rect class="a" width="2.9" height="1.933" transform="translate(22.233 37.7)"/><g class="b"><path class="a" d="M431.5,0a4.839,4.839,0,0,0-4.833,4.833V6.767a.966.966,0,0,0,.967.967h7.733a.966.966,0,0,0,.967-.967V4.833A4.839,4.839,0,0,0,431.5,0m2.9,5.8h-5.8V4.833a2.9,2.9,0,1,1,5.8,0Z" transform="translate(-378.333)"/><path class="a" d="M113.7,0H73.1a4.839,4.839,0,0,0-4.833,4.833v46.4H70.2V4.833a2.9,2.9,0,0,1,2.9-2.9h36.735a4.808,4.808,0,0,0-.969,2.9V53.167a2.9,2.9,0,0,1-2.9,2.9H69.234V58h36.733a4.839,4.839,0,0,0,4.833-4.833V4.833a2.9,2.9,0,0,1,2.9-2.9A.967.967,0,1,0,113.7,0" transform="translate(-60.534)"/><path class="a" d="M45.433,449.534a2.9,2.9,0,0,1-2.9-2.9V444.7a.966.966,0,0,0-.967-.966H.967A.966.966,0,0,0,0,444.7v1.933a4.839,4.839,0,0,0,4.833,4.833h40.6a.967.967,0,0,0,0-1.933m-40.6,0a2.9,2.9,0,0,1-2.9-2.9v-.967H40.6v.967a4.808,4.808,0,0,0,.969,2.9Z" transform="translate(0 -393.467)"/></g></g></g><path class="a" d="M120.329,10.5a.7.7,0,0,0,.988,0h0L123.95,7.87a.7.7,0,0,0-.988-.988l-1.441,1.441V.7a.7.7,0,0,0-1.4,0V8.323l-1.441-1.441a.7.7,0,1,0-.988.988Z" transform="translate(88.928 887.499)"/><path class="a" d="M12.8,208a.7.7,0,0,0-.7.7v5.354H1.4V208.7a.7.7,0,1,0-1.4,0v5.587a1.164,1.164,0,0,0,1.164,1.164H12.337a1.164,1.164,0,0,0,1.164-1.164V208.7a.7.7,0,0,0-.7-.7" transform="translate(203 686.551)"/></g></svg>