<svg xmlns="http://www.w3.org/2000/svg" xmlns:xlink="http://www.w3.org/1999/xlink" width="174.526" height="212" viewBox="0 0 174.526 212"><defs><style>.a{fill:#fff;}.b{fill:none;}.c{opacity:0.308;}.d{fill:#5c9ef8;}.e{clip-path:url(#a);}.f{fill:#eff9ff;}.g{fill:#80b7e4;}.g,.i{fill-rule:evenodd;}.h{fill:#a1cff0;}.i{fill:#3e6f97;}.j{clip-path:url(#b);}.k{fill:#de9d00;}.l{fill:#ffcd54;}</style><clipPath id="a"><rect class="a" width="148.482" height="195.004"/></clipPath><clipPath id="b"><rect class="b" width="61.061" height="94.697"/></clipPath></defs><g transform="translate(-1342 -238.865)"><g class="c" transform="translate(1441.297 330.719)"><path class="d" d="M23.509,0H0V23.509H23.509Zm-4.7,18.807H4.7V4.7H18.807Z"/><rect class="d" width="4" height="4" transform="translate(9.704 9.145)"/><path class="d" d="M352,0V23.509h23.509V0Zm18.807,18.807H356.7V4.7h14.106Z" transform="translate(-300.28)"/><rect class="d" width="4" height="4" transform="translate(61.704 9.145)"/><path class="d" d="M0,375.509H23.509V352H0ZM4.7,356.7H18.807v14.106H4.7Z" transform="translate(0 -300.28)"/><rect class="d" width="4" height="4" transform="translate(9.704 61.145)"/><rect class="d" width="7" height="4" transform="translate(39.704 0.145)"/><path class="d" d="M201.4,46.106h4.7V41.4h4.7V36.7H196.7V32H192v9.4h9.4Z" transform="translate(-163.789 -27.298)"/><rect class="d" width="4" height="5" transform="translate(28.704 18.145)"/><path class="d" d="M210.807,160h-4.7v4.7H192v4.7h18.807Z" transform="translate(-163.789 -136.491)"/><path class="d" d="M4.7,206.105H9.4v-4.7H4.7V192H0v18.807H4.7Z" transform="translate(0 -163.789)"/><rect class="d" width="4" height="4" transform="translate(9.704 28.145)"/><path class="d" d="M110.105,210.807h9.4v-4.7h-4.7v-4.7h-9.4V192h-4.7v9.4H96v9.4h4.7v-4.7h9.4Z" transform="translate(-81.894 -163.789)"/><rect class="d" width="4" height="7" transform="translate(42.704 39.145)"/><path class="d" d="M206.105,352H192v4.7h9.4v14.106H192v4.7h14.105v-4.7h9.4v-4.7h-9.4Z" transform="translate(-163.789 -300.28)"/><rect class="d" width="4" height="4" transform="translate(28.704 61.145)"/><rect class="d" width="6" height="9" transform="translate(46.704 52.145)"/><path class="d" d="M398.105,416H384v14.106h4.7v-9.4h9.4Z" transform="translate(-327.578 -354.876)"/><rect class="d" width="9" height="5" transform="translate(65.704 70.145)"/><rect class="d" width="3" height="4" transform="translate(71.704 52.145)"/><path class="d" d="M356.7,302.105h4.7V288H352v4.7h4.7Z" transform="translate(-300.28 -245.683)"/><path class="d" d="M366.105,196.7h-4.7V192h-4.7v4.7H352v4.7h18.807v-4.7h4.7V192h-9.4Z" transform="translate(-300.28 -163.789)"/><rect class="d" width="9" height="3" transform="translate(65.704 43.145)"/></g><g class="c" transform="translate(1366.474 428.176)"><path class="d" d="M7.09,0H0V7.09H7.09ZM5.672,5.672H1.418V1.418H5.672Z"/><rect class="d" width="2" height="1" transform="translate(2.526 2.688)"/><path class="d" d="M352,0V7.09h7.09V0Zm5.672,5.672h-4.254V1.418h4.254Z" transform="translate(-336.403)"/><rect class="d" width="1" height="1" transform="translate(18.526 2.688)"/><path class="d" d="M0,359.09H7.09V352H0Zm1.418-5.672H5.672v4.254H1.418Z" transform="translate(0 -336.403)"/><rect class="d" width="2" height="1" transform="translate(2.526 18.688)"/><rect class="d" width="2" height="1" transform="translate(12.526 -0.312)"/><path class="d" d="M194.836,36.254h1.418V34.836h1.418V33.418h-4.254V32H192v2.836h2.836Z" transform="translate(-183.492 -30.582)"/><rect class="d" width="2" height="1" transform="translate(8.526 5.688)"/><path class="d" d="M197.672,160h-1.418v1.418H192v1.418h5.672Z" transform="translate(-183.492 -152.91)"/><path class="d" d="M1.418,196.254H2.836v-1.418H1.418V192H0v5.672H1.418Z" transform="translate(0 -183.492)"/><rect class="d" width="2" height="1" transform="translate(2.526 8.688)"/><path class="d" d="M100.254,197.672h2.836v-1.418h-1.418v-1.418H98.836V192H97.418v2.836H96v2.836h1.418v-1.418h2.836Z" transform="translate(-91.746 -183.492)"/><rect class="d" width="1" height="2" transform="translate(13.526 11.688)"/><path class="d" d="M196.254,352H192v1.418h2.836v4.254H192v1.418h4.254v-1.418h2.836v-1.418h-2.836Z" transform="translate(-183.492 -336.403)"/><rect class="d" width="2" height="1" transform="translate(8.526 18.688)"/><rect class="d" width="1" height="3" transform="translate(14.526 15.688)"/><path class="d" d="M388.254,416H384v4.254h1.418v-2.836h2.836Z" transform="translate(-366.985 -397.567)"/><rect class="d" width="3" height="2" transform="translate(19.526 20.688)"/><rect class="d" width="1" height="1" transform="translate(21.526 15.688)"/><path class="d" d="M353.418,292.254h1.418V288H352v1.418h1.418Z" transform="translate(-336.403 -275.238)"/><path class="d" d="M356.254,193.418h-1.418V192h-1.418v1.418H352v1.418h5.672v-1.418h1.418V192h-2.836Z" transform="translate(-336.403 -183.492)"/><rect class="d" width="3" height="1" transform="translate(19.526 12.688)"/></g><g transform="translate(1349.974 238.865)"><g class="e" transform="translate(0 0)"><path class="f" d="M.185,144.692l7.765-3.882c17.159-8.633,19.685-26.021,19.431-31.28V38.236C27.435,22.11,37.59,8.549,48.779,3.617L56.02,0,148.631,46.3l-.056.064-7.149,3.575c-11.189,4.933-21.344,18.493-21.4,34.619v71.293c.253,5.259-2.273,22.647-19.431,31.28l-7.765,3.882Z" transform="translate(-0.185 0.004)"/><path class="a" d="M145.962,52.387a24.147,24.147,0,0,1-17.94.038c-8.493,6.724-15.346,17.352-15.4,29.7l-.166,72.95a31.3,31.3,0,0,1-14.86,26.352,15.5,15.5,0,0,1,1.925.8c5.214,2.607,5.214,6.84,0,9.448l61.238,30.619c5.186-2.593,13.589-2.607,18.81-.042a31.308,31.308,0,0,0,14.712-26.262l.167-72.95c-.152-12.48,6.544-23.173,14.973-30.045a15.347,15.347,0,0,1-1.781-.749c-5.051-2.525-5.209-6.577-.475-9.2Z" transform="translate(-79.929 -42.19)"/><path class="g" d="M379.52,789.746l-92.647-46.324v3.985l92.647,46.323Z" transform="translate(-286.873 -598.727)"/><path class="h" d="M0,382.7l7.765-3.882c17.158-8.633,19.684-26.022,19.431-31.28V276.24c.054-16.126,10.209-29.687,21.4-34.619L55.835,238v3.985l-5.643,2.821A35.04,35.04,0,0,0,30.76,276.25v71.293A38.744,38.744,0,0,1,9.363,382L0,386.681Z" transform="translate(92.647 -191.677)"/><path class="i" d="M230.808,417.353c0-1.532.995-2.278,2.22-1.665l16.816,8.408a4.673,4.673,0,0,1,2.22,3.885c0,1.532-.995,2.278-2.22,1.665l-16.816-8.408a4.673,4.673,0,0,1-2.22-3.885" transform="translate(-148.505 -334.608)"/><path class="i" d="M293.252,205.377a3.526,3.526,0,0,1,5.016-1.765l26.066,13.033c1.461.73,1.881,2.956,1.059,5s-2.744,3.041-4.038,2.394l-26.9-13.449c-1.96-.98-2.027-3.169-1.2-5.208" transform="translate(-234.306 -163.63)"/><path class="i" d="M361.1,374.562c0-1.532.995-2.278,2.22-1.665l8.113,4.056a4.673,4.673,0,0,1,2.22,3.885c0,1.532-.995,2.278-2.22,1.665l-8.113-4.057a4.673,4.673,0,0,1-2.22-3.885" transform="translate(-295.454 -300.146)"/><path class="i" d="M230.808,584.714c0-1.532.995-2.278,2.22-1.665l16.816,8.408a4.673,4.673,0,0,1,2.22,3.885c0,1.532-.995,2.278-2.22,1.665L233.028,588.6a4.673,4.673,0,0,1-2.22-3.885" transform="translate(-148.505 -469.395)"/><path class="i" d="M361.1,535.465c0-1.532.995-2.278,2.22-1.665l10.627,5.313a4.673,4.673,0,0,1,2.22,3.885c0,1.532-.995,2.278-2.22,1.665l-10.627-5.313a4.673,4.673,0,0,1-2.22-3.885" transform="translate(-297.969 -429.732)"/><path class="i" d="M442.729,338.043c0-1.532.995-2.278,2.22-1.665l6.441,3.22a4.673,4.673,0,0,1,2.22,3.885c0,1.532-.995,2.278-2.22,1.665l-6.441-3.221a4.673,4.673,0,0,1-2.22-3.885" transform="translate(-391.298 -270.734)"/><path class="i" d="M307.692,446.588c0-1.532.995-2.278,2.22-1.665l12.27,6.135a4.673,4.673,0,0,1,2.22,3.885c0,1.532-.995,2.278-2.22,1.665l-12.27-6.135a4.672,4.672,0,0,1-2.22-3.885" transform="translate(-235.808 -358.153)"/><path class="i" d="M414.659,401.127c0-1.532.995-2.278,2.22-1.665l9.148,4.574a4.672,4.672,0,0,1,2.22,3.885c0,1.532-.995,2.278-2.22,1.665l-9.148-4.574a4.673,4.673,0,0,1-2.22-3.885" transform="translate(-360.472 -321.54)"/><path class="i" d="M230.808,499.891c0-1.532.995-2.278,2.22-1.665l6.486,3.243a4.673,4.673,0,0,1,2.22,3.885c0,1.532-.995,2.278-2.22,1.665l-6.486-3.243a4.673,4.673,0,0,1-2.22-3.885" transform="translate(-138.175 -401.082)"/><path class="i" d="M230.808,520.958c0-1.532.995-2.278,2.22-1.665l20.085,10.042a4.673,4.673,0,0,1,2.22,3.885c0,1.532-.995,2.278-2.22,1.665l-20.085-10.042a4.673,4.673,0,0,1-2.22-3.885" transform="translate(-151.774 -418.048)"/><path class="i" d="M230.808,677.21c0-1.532.995-2.278,2.22-1.665l15.328,7.664a4.674,4.674,0,0,1,2.22,3.885c0,1.532-.995,2.278-2.22,1.665L233.028,681.1a4.673,4.673,0,0,1-2.22-3.885" transform="translate(-147.017 -543.888)"/><path class="i" d="M499.123,701.77a2.644,2.644,0,0,1,3.265-.859l13.761,6.88a1.9,1.9,0,0,1,.721,2.852,2.645,2.645,0,0,1-3.266.859l-13.761-6.881a1.9,1.9,0,0,1-.721-2.852" transform="translate(-465.834 -564.288)"/><path class="i" d="M426.124,755.692a2.644,2.644,0,0,1,3.265-.859l6.979,3.49a1.9,1.9,0,0,1,.721,2.852,2.645,2.645,0,0,1-3.265.859l-6.979-3.49a1.9,1.9,0,0,1-.721-2.852" transform="translate(-371.845 -607.715)"/><path class="i" d="M377.952,471.368c0-1.532.995-2.278,2.22-1.665l10.749,5.375a4.673,4.673,0,0,1,2.22,3.885c0,1.532-.995,2.278-2.22,1.665l-10.749-5.375a4.673,4.673,0,0,1-2.22-3.885" transform="translate(-318.222 -378.11)"/></g></g><g transform="translate(1342 277.092)"><g class="j"><path class="k" d="M3.053,3.142c-.133-.051-.265-.1-.394-.136-.084-.025-.167-.05-.249-.07s-.153-.035-.228-.049c-.1-.019-.2-.035-.3-.045-.057-.006-.113-.013-.168-.017a3.513,3.513,0,0,0-.359-.007h-.08a3.153,3.153,0,0,0-.413.052c-.034.007-.067.015-.1.023a2.749,2.749,0,0,0-.306.088C.429,2.994.4,3,.366,3.016A2.645,2.645,0,0,0,0,3.19L4.844.375l.03-.018A2.712,2.712,0,0,1,5.155.22C5.173.213,5.192.208,5.21.2S5.273.179,5.3.167c.048-.017.1-.037.146-.051s.107-.025.16-.037c.034-.008.066-.017.1-.023.018,0,.035-.009.053-.012A3.1,3.1,0,0,1,6.1,0h.021c.026,0,.054,0,.08,0C6.292,0,6.38,0,6.471,0c.03,0,.062.007.092.009.056,0,.111.01.168.017s.1.008.157.015.093.021.139.03c.075.014.151.03.228.049.042.01.082.015.124.026s.084.03.125.043c.13.039.261.085.394.136.046.018.091.028.138.047.026.011.053.028.079.04a6.669,6.669,0,0,1,.7.349l44.9,25.921a8.32,8.32,0,0,1,.872.589c.048.037.1.071.145.109a10.1,10.1,0,0,1,.786.691c.022.021.045.037.067.058.041.04.078.086.119.127q.19.193.372.4c.039.044.081.083.12.128s.062.076.093.113c.074.087.145.175.217.264.047.059.1.115.143.175s.072.1.109.147c.052.07.1.139.155.21.036.049.073.1.108.146.058.083.112.169.169.253.036.054.073.107.108.161l.047.069q.149.234.288.473l.017.03c.018.031.035.063.053.095.065.114.131.229.193.345.028.053.054.107.081.16l.085.167c.025.05.051.1.075.148.063.13.122.261.18.393.01.024.022.047.032.071l.009.021q.109.25.205.5c.012.031.022.062.033.092.023.06.043.12.064.179.03.085.063.17.092.255.022.065.039.131.06.2s.047.153.07.229c.014.048.031.1.044.144.024.085.041.17.062.254s.049.191.07.286c.008.034.018.067.025.1.014.069.022.136.035.2.028.149.055.3.076.446.006.041.016.083.022.123s0,.075.007.113a8.348,8.348,0,0,1,.064.978l-.146,51.6A3.905,3.905,0,0,1,57.51,91.5L52.666,94.32a3.907,3.907,0,0,0,1.629-3.58l.146-51.6a8.446,8.446,0,0,0-.064-.978c-.009-.079-.018-.158-.029-.237-.021-.148-.048-.3-.076-.445-.02-.1-.037-.2-.06-.305s-.046-.19-.07-.286c-.034-.133-.068-.266-.106-.4-.022-.076-.046-.152-.07-.228q-.07-.226-.151-.451c-.022-.06-.042-.12-.064-.179-.077-.206-.159-.411-.248-.615-.01-.024-.022-.047-.032-.07-.08-.182-.166-.362-.255-.541-.027-.056-.056-.111-.084-.166q-.131-.257-.274-.507c-.018-.031-.034-.062-.052-.093-.112-.194-.23-.385-.352-.572-.035-.055-.072-.108-.108-.161q-.135-.2-.277-.4c-.051-.071-.1-.14-.155-.21-.083-.109-.167-.217-.253-.323-.072-.088-.143-.177-.217-.263s-.142-.162-.213-.242q-.183-.2-.372-.4-.092-.094-.186-.185a10.314,10.314,0,0,0-.786-.691c-.048-.038-.1-.072-.145-.109a8.477,8.477,0,0,0-.871-.589L3.972,3.578a6.823,6.823,0,0,0-.7-.349C3.2,3.2,3.126,3.17,3.053,3.142" transform="translate(1.776 0)"/><path class="l" d="M15.142,6.221c-3.083-1.78-5.592-.35-5.6,3.192l-.146,51.6A12.27,12.27,0,0,0,14.96,70.65l44.9,25.922c3.089,1.783,5.6.353,5.608-3.189l.146-51.6a12.274,12.274,0,0,0-5.572-9.644Z" transform="translate(-9.394 -2.642)"/><path class="a" d="M35.645,40.785l8.367,4.86v19.56l-3.864-6.649L35.95,60.9l7,12.042,4.2,7.225,4.2-2.348,7-3.912-4.2-7.225-3.864,2.161V49.285l8.367,4.86a14.44,14.44,0,0,1,6.547,11.266V91.634c0,4.122-2.931,5.761-6.547,3.661l-23-13.361A14.44,14.44,0,0,1,29.1,70.667V44.445c0-4.122,2.931-5.761,6.547-3.661" transform="translate(-19.136 -19.311)"/></g></g></g></svg>