<svg xmlns="http://www.w3.org/2000/svg" width="61.882" height="61.882" viewBox="0 0 61.882 61.882"><defs><style>.a{fill:#2cd889;}</style></defs><g transform="translate(-836.157 -788.156)"><path class="a" d="M61.087,41.595l-9.3-9.3a20.13,20.13,0,0,0,.806-23.222.907.907,0,1,0-1.515,1,18.328,18.328,0,1,1-2.368-2.9l.05.05a.907.907,0,0,0,1.287-1.278L50,5.885a20.146,20.146,0,0,0-28.46,0q-.37.37-.716.753H.906A.907.907,0,0,0,0,7.545v4.009a.906.906,0,1,0,1.813,0v-3.1H19.366a19.952,19.952,0,0,0-1.787,3.05H6.285a.906.906,0,1,0,0,1.813H16.828a20.044,20.044,0,0,0-.651,2.216H6.285a.906.906,0,0,0,0,1.813h9.558a20.252,20.252,0,0,0-.183,2.216H6.285a.907.907,0,0,0,0,1.813h9.407a20.146,20.146,0,0,0,2.029,7.656H16.2a.907.907,0,0,0-.906.907V56.772a.907.907,0,0,0,.906.907h7.252a.906.906,0,0,0,.906-.907V36.7a19.984,19.984,0,0,0,2.538,1.486V56.772a.907.907,0,0,0,.906.907h7.252a.907.907,0,0,0,.906-.907V40.232a20.437,20.437,0,0,0,2.116-.13v14a.906.906,0,1,0,1.813,0V39.81a19.987,19.987,0,0,0,8.056-3.669l9.3,9.3a2.72,2.72,0,0,0,3.847-3.846M22.541,55.865H17.1V30.843h1.633a20.134,20.134,0,0,0,2.8,3.506q.49.49,1.006.938Zm6.165,0v-16.9a20.179,20.179,0,0,0,5.439,1.205v15.7Zm31.1-11.707a.907.907,0,0,1-1.283,0l-9.183-9.184c.222-.2.442-.411.656-.626s.423-.433.627-.656L59.8,42.877a.907.907,0,0,1,0,1.282" transform="translate(836.157 788.157)"/><path class="a" d="M38.979,163.138a.906.906,0,0,0-.906.906V166.1H1.813V121.514a.906.906,0,0,0-1.813,0v45.492a.906.906,0,0,0,.906.906H38.979a.906.906,0,0,0,.906-.906v-2.962a.906.906,0,0,0-.906-.906" transform="translate(836.157 682.125)"/><path class="a" d="M32.5,301.1v19.583a.907.907,0,0,0,.906.906h7.252a.907.907,0,0,0,.906-.906V301.1a.907.907,0,0,0-.906-.906H33.406a.907.907,0,0,0-.906.906m1.813.907h5.439v17.769H34.313Z" transform="translate(807.586 524.245)"/><path class="a" d="M52.185,196.992a.907.907,0,0,0,0-1.813H45.406a.907.907,0,0,0,0,1.813Z" transform="translate(797.036 616.567)"/><path class="a" d="M175.967,29.987a16.474,16.474,0,1,0,11.666,4.826,16.386,16.386,0,0,0-11.666-4.826m10.384,26.878a14.706,14.706,0,1,1,4.294-10.385,14.584,14.584,0,0,1-4.294,10.385" transform="translate(695.956 761.794)"/></g></svg>