<svg xmlns="http://www.w3.org/2000/svg" width="47.623" height="47.623" viewBox="0 0 47.623 47.623"><defs><style>.a{fill:#2cd889;}</style></defs><path class="a" d="M198.581,118.462a5.587,5.587,0,1,0,4.806,2.748l4.044-4.044,4.933,4.933a1.4,1.4,0,0,0,1.973-1.973l-.986-.987,12.486-12.486h0l1.972-1.973a4.191,4.191,0,0,0,.817-4.763l3.13-3.129a4.193,4.193,0,0,0,.817-4.763l7.641-7.641a1.4,1.4,0,0,0-1.973-1.973L230.6,90.051a4.192,4.192,0,0,0-4.763.817L222.708,94a4.193,4.193,0,0,0-4.763.817l-14.46,14.46-.987-.987a1.4,1.4,0,1,0-1.973,1.973l4.933,4.933-4.044,4.044A5.542,5.542,0,0,0,198.581,118.462ZM227.81,92.841a1.4,1.4,0,0,1,1.973,1.973l-2.96,2.96L224.85,95.8Zm-7.892,3.946a1.4,1.4,0,0,1,1.973,0l3.946,3.946a1.4,1.4,0,0,1,0,1.973l-.986.987-2.96-2.96a1.4,1.4,0,0,0-1.973,1.973l2.96,2.96-1.973,1.973-2.96-2.96a1.4,1.4,0,1,0-1.973,1.973l2.959,2.959-2.212,2.213-2.96-2.96a1.4,1.4,0,1,0-1.973,1.973l2.959,2.959-3.368,3.368-5.919-5.919Zm-21.337,30.046a2.79,2.79,0,1,1,2.79-2.79A2.793,2.793,0,0,1,198.581,126.833Z" transform="translate(-193 -82.001)"/></svg>