<svg xmlns="http://www.w3.org/2000/svg" width="54.857" height="54.857" viewBox="0 0 54.857 54.857"><defs><style>.a{fill:#2cd889;}</style></defs><path class="a" d="M269.714,245.328a1.147,1.147,0,0,1-.443-.089c-.544-.231-13.271-5.73-13.271-16.971v-9.552a1.144,1.144,0,0,1,.777-1.083l12.571-4.245a1.144,1.144,0,0,1,.731,0l12.571,4.245a1.142,1.142,0,0,1,.777,1.083v9.552c0,11.241-12.727,16.74-13.271,16.971a1.147,1.147,0,0,1-.443.089Zm-11.428-25.79v8.729c0,8.649,9.268,13.618,11.428,14.658,2.158-1.042,11.429-6.032,11.429-14.658v-8.729l-11.429-3.861Z" transform="translate(-228.572 -190.471)"/><path class="a" d="M325.723,319.614a.536.536,0,0,1-.062,0,1.134,1.134,0,0,1-.83-.427l-4.571-5.714a1.143,1.143,0,0,1,1.785-1.428l3.771,4.715,7.1-7.095a1.143,1.143,0,1,1,1.616,1.616l-8,8a1.138,1.138,0,0,1-.807.336Z" transform="translate(-285.724 -276.186)"/><path class="a" d="M21.714,105.143h-16A5.719,5.719,0,0,1,0,99.428V69.714A5.719,5.719,0,0,1,5.714,64h4.571a1.143,1.143,0,1,1,0,2.286H5.714a3.433,3.433,0,0,0-3.429,3.429V99.428a3.433,3.433,0,0,0,3.429,3.429h16a1.143,1.143,0,0,1,0,2.286Z" transform="translate(0 -57.143)"/><path class="a" d="M266.286,76.571a1.143,1.143,0,0,1-1.143-1.143V69.714a3.433,3.433,0,0,0-3.429-3.429h-4.571a1.143,1.143,0,1,1,0-2.286h4.571a5.719,5.719,0,0,1,5.714,5.714v5.714A1.143,1.143,0,0,1,266.286,76.571Z" transform="translate(-228.572 -57.143)"/><path class="a" d="M102.476,13.714H88.762a3.433,3.433,0,0,1-3.429-3.429V5.714a1.143,1.143,0,0,1,1.143-1.143h3.543a5.716,5.716,0,0,1,11.2,0h3.543A1.143,1.143,0,0,1,105.9,5.714v4.571A3.433,3.433,0,0,1,102.476,13.714ZM87.619,6.857v3.429a1.146,1.146,0,0,0,1.143,1.143h13.714a1.146,1.146,0,0,0,1.143-1.143V6.857H100.19a1.143,1.143,0,0,1-1.143-1.143,3.429,3.429,0,0,0-6.857,0,1.143,1.143,0,0,1-1.143,1.143Z" transform="translate(-76.19)"/><path class="a" d="M88,172.953H65.143a1.143,1.143,0,1,1,0-2.286H88a1.143,1.143,0,1,1,0,2.286Z" transform="translate(-57.143 -152.381)"/><path class="a" d="M78.857,236.953H65.143a1.143,1.143,0,1,1,0-2.286H78.857a1.143,1.143,0,0,1,0,2.286Z" transform="translate(-57.143 -209.524)"/><path class="a" d="M78.857,300.953H65.143a1.143,1.143,0,1,1,0-2.286H78.857a1.143,1.143,0,0,1,0,2.286Z" transform="translate(-57.143 -266.667)"/></svg>