<svg xmlns="http://www.w3.org/2000/svg" width="59.587" height="129.196" viewBox="0 0 59.587 129.196"><defs><style>.a{fill:#f5f5f5;}</style></defs><g transform="translate(-968.39 -419.429)"><path class="a" d="M1543.273,121.013a10.3,10.3,0,0,0,7.641-3.108,11.314,11.314,0,0,0,0-15.75,9.907,9.907,0,0,0-7.641-3.31,11.1,11.1,0,0,0-8.174,3.31,10.786,10.786,0,0,0-3.2,7.8,10.652,10.652,0,0,0,3.25,7.951,11.436,11.436,0,0,0,8.125,3.108Z" transform="translate(-544.793 320.584)"/><path class="a" d="M1523.016,229.525a29.381,29.381,0,0,1-1.081-3.636c-.592-2.071-1.326-4.614-2.207-7.592-.842-2.989-1.875-6.288-2.8-9.777-.983-3.495-1.956-6.886-2.907-10.141a16.242,16.242,0,0,0-4.663-6.739,10.9,10.9,0,0,0-7.446-3.005h-16.87a10.689,10.689,0,0,0-7.272,3.005,13.48,13.48,0,0,0-4.527,6.739c-1.179,3.255-2.114,6.647-3.152,10.141s-2.016,6.788-2.919,9.777c-.875,2.978-1.62,5.522-2.158,7.592-.5,2.065-.929,3.3-1.038,3.636a2.561,2.561,0,0,0-.293,1.332c0,1.826.994,3.108,2.951,3.837l1.087.3a3.915,3.915,0,0,0,4.12-3.054c.114-.674.745-2.663,1.788-5.815.924-3.147,1.973-6.38,2.908-9.886,1.033-3.44,2.364-7.82,3.935-13.223h2.457l-14.359,48.456h13.81v36.853a4.276,4.276,0,0,0,1.484,3.494,5.048,5.048,0,0,0,3.647,1.38,4.64,4.64,0,0,0,4.864-4.875V251.471h2.516v36.853a4.61,4.61,0,0,0,1.277,3.494,5.3,5.3,0,0,0,7.136,0,4.057,4.057,0,0,0,1.533-3.494V251.471h13.576l-14.321-48.505h2.446c1.582,5.451,2.864,9.832,4,13.272,1.081,3.505,2.065,6.739,2.984,9.886.848,3.152,1.451,5.141,1.636,5.815a3.832,3.832,0,0,0,4.087,3.054l1.027-.3a3.837,3.837,0,0,0,3-4.076Z" transform="translate(-495.29 255.426)"/></g></svg>