<svg xmlns="http://www.w3.org/2000/svg" width="17.155" height="18.724" viewBox="0 0 17.155 18.724"><defs><style>.a{fill:#5c9ef8;}</style></defs><g transform="translate(-51.056 -161.138) rotate(-90)"><path class="a" d="M-100.741,129.036H-111.9a2.3,2.3,0,0,0-2.181-1.569,2.3,2.3,0,0,0-2.181,1.569H-118a.732.732,0,0,0-.732.732.732.732,0,0,0,.732.732h1.741a2.3,2.3,0,0,0,2.181,1.569A2.3,2.3,0,0,0-111.9,130.5h11.155a.732.732,0,0,0,.732-.732A.732.732,0,0,0-100.741,129.036Zm-13.337,1.569a.838.838,0,0,1-.837-.837.838.838,0,0,1,.837-.837.838.838,0,0,1,.837.837A.838.838,0,0,1-114.078,130.605Z" transform="translate(-61.129 -76.411)"/><path class="a" d="M-100.741,257.569h-1.741A2.305,2.305,0,0,0-104.664,256a2.3,2.3,0,0,0-2.181,1.569H-118a.732.732,0,0,0-.732.732.732.732,0,0,0,.732.732h11.155a2.305,2.305,0,0,0,2.181,1.569,2.305,2.305,0,0,0,2.181-1.569h1.741a.732.732,0,0,0,.732-.732A.732.732,0,0,0-100.741,257.569Zm-3.923,1.569a.838.838,0,0,1-.837-.837.838.838,0,0,1,.837-.837.838.838,0,0,1,.837.837A.838.838,0,0,1-104.664,259.138Z" transform="translate(-61.129 -198.668)"/><path class="a" d="M-100.741,386.1h-8.017a2.3,2.3,0,0,0-2.181-1.569,2.3,2.3,0,0,0-2.181,1.569H-118a.732.732,0,0,0-.732.732.732.732,0,0,0,.732.732h4.879a2.3,2.3,0,0,0,2.181,1.569,2.3,2.3,0,0,0,2.181-1.569h8.017a.732.732,0,0,0,.732-.732A.732.732,0,0,0-100.741,386.1Zm-10.2,1.569a.838.838,0,0,1-.837-.837.838.838,0,0,1,.837-.837.837.837,0,0,1,.837.837A.838.838,0,0,1-110.94,387.671Z" transform="translate(-61.129 -320.925)"/></g></svg>