<svg xmlns="http://www.w3.org/2000/svg" width="48.758" height="48.727" viewBox="0 0 48.758 48.727"><defs><style>.a{fill:#4ca07a;}</style></defs><g transform="translate(0 0)"><g transform="translate(0 0)"><path class="a" d="M276.952,226.833a.952.952,0,0,0-.952.952v1.968a.952.952,0,1,0,1.9,0v-1.968A.952.952,0,0,0,276.952,226.833Z" transform="translate(-260.192 -208.803)"/><path class="a" d="M316.952,226.833a.952.952,0,0,0-.952.952v1.968a.952.952,0,1,0,1.9,0v-1.968A.952.952,0,0,0,316.952,226.833Z" transform="translate(-296.382 -208.803)"/><path class="a" d="M356.952,226.833a.952.952,0,0,0-.952.952v1.968a.952.952,0,1,0,1.9,0v-1.968A.952.952,0,0,0,356.952,226.833Z" transform="translate(-332.573 -208.803)"/><path class="a" d="M396.952,226.833a.952.952,0,0,0-.952.952v1.968a.952.952,0,1,0,1.9,0v-1.968A.952.952,0,0,0,396.952,226.833Z" transform="translate(-368.764 -208.803)"/><path class="a" d="M436.952,226.833a.952.952,0,0,0-.952.952v1.968a.952.952,0,1,0,1.9,0v-1.968A.952.952,0,0,0,436.952,226.833Z" transform="translate(-404.955 -208.803)"/><path class="a" d="M216.952,489.5a.953.953,0,1,0,.673.279A.96.96,0,0,0,216.952,489.5Z" transform="translate(-205.906 -446.455)"/><path class="a" d="M216.952,406.833a.952.952,0,0,0-.952.952v4.125a.952.952,0,0,0,1.9,0v-4.125A.952.952,0,0,0,216.952,406.833Z" transform="translate(-205.906 -371.661)"/><path class="a" d="M272.952,406.833a.952.952,0,0,0-.952.952v7.872a.952.952,0,1,0,1.9,0v-7.872A.952.952,0,0,0,272.952,406.833Z" transform="translate(-256.573 -371.661)"/><path class="a" d="M328.952,406.833a.952.952,0,0,0-.952.952v7.872a.952.952,0,1,0,1.9,0v-7.872A.952.952,0,0,0,328.952,406.833Z" transform="translate(-307.24 -371.661)"/><path class="a" d="M384.952,406.833a.952.952,0,0,0-.952.952v7.872a.952.952,0,1,0,1.9,0v-7.872A.952.952,0,0,0,384.952,406.833Z" transform="translate(-357.907 -371.661)"/><path class="a" d="M440.952,406.833a.952.952,0,0,0-.952.952v7.872a.952.952,0,1,0,1.9,0v-7.872A.952.952,0,0,0,440.952,406.833Z" transform="translate(-408.574 -371.661)"/><path class="a" d="M496.952,406.829a.953.953,0,1,0,.673.279A.96.96,0,0,0,496.952,406.829Z" transform="translate(-459.241 -371.657)"/><path class="a" d="M496.952,446.833a.952.952,0,0,0-.952.952v4.063a.952.952,0,1,0,1.9,0v-4.063A.952.952,0,0,0,496.952,446.833Z" transform="translate(-459.241 -407.852)"/><path class="a" d="M256.952,310.333a.952.952,0,0,0-.952.952v1.968a.952.952,0,0,0,1.9,0v-1.968A.952.952,0,0,0,256.952,310.333Z" transform="translate(-242.096 -284.351)"/><path class="a" d="M296.952,310.333a.952.952,0,0,0-.952.952v1.968a.952.952,0,0,0,1.9,0v-1.968A.952.952,0,0,0,296.952,310.333Z" transform="translate(-278.287 -284.351)"/><path class="a" d="M336.952,310.333a.952.952,0,0,0-.952.952v1.968a.952.952,0,0,0,1.9,0v-1.968A.952.952,0,0,0,336.952,310.333Z" transform="translate(-314.478 -284.351)"/><path class="a" d="M376.952,310.333a.952.952,0,0,0-.952.952v1.968a.952.952,0,1,0,1.9,0v-1.968A.952.952,0,0,0,376.952,310.333Z" transform="translate(-350.669 -284.351)"/><path class="a" d="M416.953,310.333a.952.952,0,0,0-.952.952v1.968a.952.952,0,1,0,1.9,0v-1.968A.952.952,0,0,0,416.953,310.333Z" transform="translate(-386.859 -284.351)"/><path class="a" d="M456.952,310.333a.952.952,0,0,0-.952.952v1.968a.952.952,0,0,0,1.9,0v-1.968A.952.952,0,0,0,456.952,310.333Z" transform="translate(-423.05 -284.351)"/><path class="a" d="M157.806,71.37H154v-2.1a.952.952,0,0,0-.952-.952h-4.381V61.847h.667a.952.952,0,0,0,0-1.9h-2.666V54.986a.952.952,0,0,0-.1-1.9H144.22v-.825a9.854,9.854,0,0,0-8.888-9.794V38.452a.952.952,0,0,0-1.9,0v4.014a9.854,9.854,0,0,0-8.888,9.794v.825H122.19a.952.952,0,0,0-.1,1.9v4.957h-2.666a.952.952,0,0,0,0,1.9h.667v6.476h-4.381a.952.952,0,0,0-.952.952v2.1h-3.809a.952.952,0,0,0-.952.952V85.274a.952.952,0,0,0,.952.952h46.854a.952.952,0,0,0,.952-.952V72.323A.952.952,0,0,0,157.806,71.37Zm-31.363-19.11a7.936,7.936,0,0,1,15.872,0v.825H126.443ZM124,54.991h20.76v4.952H124Zm-2,6.857h24.76v6.476H122ZM111.9,73.275h2.857V84.322H111.9Zm4.762-.952v-2.1h35.426V84.322H116.666Zm40.188,12H154V73.275h2.857Z" transform="translate(-110 -37.5)"/></g></g></svg>