<svg xmlns="http://www.w3.org/2000/svg" width="53.364" height="135.987" viewBox="0 0 53.364 135.987"><defs><style>.a{fill:#f5f5f5;}</style></defs><path class="a" d="M1303.656,97.4a11.534,11.534,0,0,0,8.272-3.256,11.772,11.772,0,0,0-8.272-20.065,10.72,10.72,0,0,0-8.272,3.478,11.551,11.551,0,0,0,8.272,19.842Z" transform="translate(-1276.928 -74.084)"/><path class="a" d="M1275.906,167.448h-24.744a13.989,13.989,0,0,0-10.044,4.2,14.42,14.42,0,0,0-4.255,10.109v34.8a4.325,4.325,0,0,0,1.468,3.413,4.529,4.529,0,0,0,3.4,1.348,4.683,4.683,0,0,0,3.576-1.348,5.034,5.034,0,0,0,1.255-3.413V185.421h2.533v86.136a5.815,5.815,0,0,0,2.071,4.4,6.171,6.171,0,0,0,4.554,1.869,5.951,5.951,0,0,0,4.62-1.869,5.654,5.654,0,0,0,1.891-4.4V225.046h2.8v46.511a5.989,5.989,0,0,0,1.918,4.4,6.138,6.138,0,0,0,4.766,1.869,5.943,5.943,0,0,0,4.4-1.869,6.061,6.061,0,0,0,1.821-4.4V185.421h2.581v31.136a4.845,4.845,0,0,0,1.3,3.413,5.121,5.121,0,0,0,3.571,1.348,4.52,4.52,0,0,0,3.538-1.348,5.506,5.506,0,0,0,1.3-3.413v-34.8a13.917,13.917,0,0,0-4.217-10.054,13.565,13.565,0,0,0-10.1-4.25Z" transform="translate(-1236.863 -141.835)"/></svg>