<svg xmlns="http://www.w3.org/2000/svg" xmlns:xlink="http://www.w3.org/1999/xlink" width="42.82" height="42.82" viewBox="0 0 42.82 42.82"><defs><style>.a{fill:#fff;stroke:#fff;stroke-width:0.5px;}.b{fill:#e9efec;}.c{fill:#88c6a9;}.d{clip-path:url(#a);}</style><clipPath id="a"><rect class="a" width="19.925" height="19.126"/></clipPath></defs><g transform="translate(0.482 -0.242)"><path class="b" d="M21.41,0A21.41,21.41,0,1,1,0,21.41,21.41,21.41,0,0,1,21.41,0Z" transform="translate(-0.482 0.242)"/><path class="c" d="M17.293,0A17.293,17.293,0,1,1,0,17.293,17.293,17.293,0,0,1,17.293,0Z" transform="translate(3.635 4.36)"/><g class="d" transform="translate(10.965 11.867)"><path class="a" d="M196.236,37.632a.389.389,0,0,0-.473-.281,3.148,3.148,0,0,0-1.966,1.483.389.389,0,1,0,.674.389,2.375,2.375,0,0,1,1.484-1.118.389.389,0,0,0,.281-.473" transform="translate(-186.205 -35.886)"/><path class="a" d="M268.093,36.024l-.018,0a.392.392,0,1,0,.018,0" transform="translate(-257.213 -34.615)"/><path class="a" d="M17.939,11.383c-.286-.082-.6-.154-.925-.217a.392.392,0,0,0-.057-.01,17.951,17.951,0,0,0-3.228-.275c-.642,0-1.269.03-1.864.086L14.27,6.8A4.536,4.536,0,0,0,6.412,2.267L3.51,7.294h0l-2.9,5.027a4.532,4.532,0,0,0,3.917,6.8A4.572,4.572,0,0,0,7.8,17.738a3.61,3.61,0,0,0,1.715.886,16,16,0,0,0,4.213.5,16,16,0,0,0,4.213-.5c1.316-.376,1.983-.9,1.983-1.547V12.93c0-.649-.668-1.17-1.986-1.546m-4.209.276c.613,0,1.209.028,1.774.081L10.56,13.923c-.293-.057-.57-.122-.826-.2-1.166-.333-1.422-.689-1.422-.8s.255-.465,1.422-.8a15.2,15.2,0,0,1,4-.472m-6.643-9A3.758,3.758,0,0,1,13.6,6.414l-2.7,4.674-.031.005L4.378,7.347Zm.448,10.272v3.927a3.787,3.787,0,0,1-4.878.992A3.77,3.77,0,0,1,1.28,12.713L3.989,8.021l5.73,3.308-.2.054c-1.316.376-1.985.9-1.986,1.544m11.612,4.149c0,.11-.255.467-1.418.8a15.22,15.22,0,0,1-4,.471,15.22,15.22,0,0,1-4-.471c-1.164-.332-1.418-.689-1.418-.8V13.992a5.341,5.341,0,0,0,1.208.484c.305.087.638.164.99.229a.379.379,0,0,0,.052.009,18.051,18.051,0,0,0,3.167.263,15.981,15.981,0,0,0,4.209-.5,5.341,5.341,0,0,0,1.208-.484Zm0-4.147h0c0,.11-.259.465-1.422.8a15.2,15.2,0,0,1-4,.472c-.586,0-1.158-.025-1.7-.074l4.931-2.176c.271.054.527.115.765.183,1.164.333,1.421.688,1.422.8h0" transform="translate(0 0)"/></g></g></svg>