<svg xmlns="http://www.w3.org/2000/svg" width="44.293" height="48.667" viewBox="0 0 44.293 48.667"><defs><style>.a{fill:#4ca07a;}</style></defs><g transform="translate(0 -0.001)"><g transform="translate(0 0.001)"><path class="a" d="M216.056,116.06h-1.367V73.135a.82.82,0,0,0-.82-.82H198.558a.82.82,0,0,0-.82.82v3.554H196.1V73.135a.82.82,0,0,0-.82-.82h-3.555V69.854a.82.82,0,1,0-1.64,0v2.461h-3.554a.82.82,0,0,0-.82.82v3.554h-2.461a.82.82,0,0,0-.82.82v6.835h-6.835a.82.82,0,0,0-.82.82v30.9H173.4a.82.82,0,0,0,0,1.641h42.652a.82.82,0,0,0,0-1.64ZM187.348,73.955h7.109v2.734h-7.109Zm-2.734,42.105h-.547v-1.367a.82.82,0,1,0-1.64,0v1.367h-.547v-2.734h2.734Zm5.468-21.053V116.06h-3.828v-3.554a.82.82,0,0,0-.82-.82H181.06a.82.82,0,0,0-.82.82v3.554h-3.828V85.985h13.67v9.022Zm.82-10.663h-6.835V78.33h13.671V94.188h-6.015V91.454h2.461a.82.82,0,0,0,0-1.64h-2.461V87.079h2.461a.82.82,0,0,0,0-1.64h-2.461v-.273A.82.82,0,0,0,190.9,84.345Zm14.491,31.715H191.723V95.828h13.671Zm7.655,0h-6.015V93.914a.82.82,0,1,0-1.64,0v.273h-1.64v-.273a.82.82,0,0,0-1.64,0v.273h-2.734V73.955h13.67V116.06Z" transform="translate(-172.584 -69.034)"/><path class="a" d="M403.517,385.134a.82.82,0,0,0,.82-.82V369a.82.82,0,0,0-1.641,0v15.311A.82.82,0,0,0,403.517,385.134Z" transform="translate(-380.824 -339.748)"/><path class="a" d="M438.034,385.134a.82.82,0,0,0,.82-.82V369a.82.82,0,0,0-1.641,0v15.311A.82.82,0,0,0,438.034,385.134Z" transform="translate(-412.06 -339.748)"/><path class="a" d="M472.55,385.134a.82.82,0,0,0,.82-.82V369a.82.82,0,0,0-1.64,0v15.311A.82.82,0,0,0,472.55,385.134Z" transform="translate(-443.295 -339.748)"/><path class="a" d="M484.056,152.308a.82.82,0,0,0,.82-.82v-1.094a.82.82,0,0,0-1.64,0v1.094A.82.82,0,0,0,484.056,152.308Z" transform="translate(-453.707 -141.918)"/><path class="a" d="M518.573,152.308a.82.82,0,0,0,.821-.82v-1.094a.82.82,0,0,0-1.641,0v1.094A.82.82,0,0,0,518.573,152.308Z" transform="translate(-484.944 -141.918)"/><path class="a" d="M553.09,152.308a.82.82,0,0,0,.82-.82v-1.094a.82.82,0,1,0-1.64,0v1.094A.82.82,0,0,0,553.09,152.308Z" transform="translate(-516.18 -141.918)"/><path class="a" d="M484.056,209.835a.82.82,0,0,0,.82-.82v-1.094a.82.82,0,1,0-1.64,0v1.094A.82.82,0,0,0,484.056,209.835Z" transform="translate(-453.707 -193.977)"/><path class="a" d="M518.573,209.835a.82.82,0,0,0,.821-.82v-1.094a.82.82,0,0,0-1.641,0v1.094A.82.82,0,0,0,518.573,209.835Z" transform="translate(-484.944 -193.977)"/><path class="a" d="M553.09,209.835a.82.82,0,0,0,.82-.82v-1.094a.82.82,0,1,0-1.64,0v1.094A.82.82,0,0,0,553.09,209.835Z" transform="translate(-516.18 -193.977)"/><path class="a" d="M484.056,267.364a.82.82,0,0,0,.82-.82V265.45a.82.82,0,0,0-1.64,0v1.094A.82.82,0,0,0,484.056,267.364Z" transform="translate(-453.707 -246.038)"/><path class="a" d="M518.573,267.364a.82.82,0,0,0,.821-.82V265.45a.82.82,0,0,0-1.641,0v1.094A.82.82,0,0,0,518.573,267.364Z" transform="translate(-484.944 -246.038)"/><path class="a" d="M553.09,267.364a.82.82,0,0,0,.82-.82V265.45a.82.82,0,1,0-1.64,0v1.094A.82.82,0,0,0,553.09,267.364Z" transform="translate(-516.18 -246.038)"/><path class="a" d="M242.438,290.375a.82.82,0,0,0,.82-.82v-1.094a.82.82,0,0,0-1.64,0v1.094A.82.82,0,0,0,242.438,290.375Z" transform="translate(-235.056 -266.862)"/><path class="a" d="M276.955,290.375a.82.82,0,0,0,.82-.82v-1.094a.82.82,0,0,0-1.64,0v1.094A.82.82,0,0,0,276.955,290.375Z" transform="translate(-266.292 -266.862)"/><path class="a" d="M311.472,290.375a.82.82,0,0,0,.82-.82v-1.094a.82.82,0,0,0-1.641,0v1.094A.82.82,0,0,0,311.472,290.375Z" transform="translate(-297.528 -266.862)"/><path class="a" d="M242.438,347.9a.82.82,0,0,0,.82-.82v-1.094a.82.82,0,0,0-1.64,0v1.094A.82.82,0,0,0,242.438,347.9Z" transform="translate(-235.056 -318.922)"/><path class="a" d="M276.955,347.9a.82.82,0,0,0,.82-.82v-1.094a.82.82,0,1,0-1.64,0v1.094A.82.82,0,0,0,276.955,347.9Z" transform="translate(-266.292 -318.922)"/><path class="a" d="M311.472,347.9a.82.82,0,0,0,.82-.82v-1.094a.82.82,0,0,0-1.641,0v1.094A.82.82,0,0,0,311.472,347.9Z" transform="translate(-297.528 -318.922)"/><path class="a" d="M242.438,405.431a.82.82,0,0,0,.82-.82v-1.094a.82.82,0,1,0-1.64,0v1.094A.82.82,0,0,0,242.438,405.431Z" transform="translate(-235.056 -370.982)"/><path class="a" d="M276.955,405.431a.82.82,0,0,0,.82-.82v-1.094a.82.82,0,1,0-1.64,0v1.094A.82.82,0,0,0,276.955,405.431Z" transform="translate(-266.292 -370.982)"/><path class="a" d="M311.472,405.431a.82.82,0,0,0,.82-.82v-1.094a.82.82,0,1,0-1.641,0v1.094A.82.82,0,0,0,311.472,405.431Z" transform="translate(-297.528 -370.982)"/><path class="a" d="M242.438,462.959a.82.82,0,0,0,.82-.82v-1.094a.82.82,0,1,0-1.64,0v1.094A.82.82,0,0,0,242.438,462.959Z" transform="translate(-235.056 -423.041)"/><path class="a" d="M276.955,462.959a.82.82,0,0,0,.82-.82v-1.094a.82.82,0,1,0-1.64,0v1.094A.82.82,0,0,0,276.955,462.959Z" transform="translate(-266.292 -423.041)"/><path class="a" d="M311.472,462.959a.82.82,0,0,0,.82-.82v-1.094a.82.82,0,1,0-1.641,0v1.094A.82.82,0,0,0,311.472,462.959Z" transform="translate(-297.528 -423.041)"/><path class="a" d="M553.09,324.892a.82.82,0,0,0,.82-.82v-1.094a.82.82,0,1,0-1.64,0v1.094A.82.82,0,0,0,553.09,324.892Z" transform="translate(-516.18 -298.098)"/><path class="a" d="M553.09,382.42a.82.82,0,0,0,.82-.82v-1.094a.82.82,0,1,0-1.64,0V381.6A.82.82,0,0,0,553.09,382.42Z" transform="translate(-516.18 -350.158)"/><path class="a" d="M553.09,439.948a.82.82,0,0,0,.82-.82v-1.094a.82.82,0,1,0-1.64,0v1.094A.82.82,0,0,0,553.09,439.948Z" transform="translate(-516.18 -402.218)"/><path class="a" d="M553.09,497.476a.82.82,0,0,0,.82-.82v-1.094a.82.82,0,1,0-1.64,0v1.094A.82.82,0,0,0,553.09,497.476Z" transform="translate(-516.18 -454.277)"/><path class="a" d="M330.359,196.416a.82.82,0,0,0-.82-.82h-6.562a.82.82,0,1,0,0,1.64h6.562A.82.82,0,0,0,330.359,196.416Z" transform="translate(-307.94 -183.566)"/></g></g></svg>