<svg xmlns="http://www.w3.org/2000/svg" xmlns:xlink="http://www.w3.org/1999/xlink" width="24" height="24" viewBox="0 0 24 24"><defs><style>.a{fill:#fff;}.b{fill:#fc573b;}.c{clip-path:url(#a);}</style><clipPath id="a"><rect class="a" width="16" height="16" transform="translate(-0.096 0)"/></clipPath></defs><g transform="translate(-1653 -628)"><g transform="translate(1653.392 628.207)"><circle class="b" cx="12" cy="12" r="12" transform="translate(-0.392 -0.207)"/></g><g transform="translate(1657.247 632.15)"><g class="c" transform="translate(-0.151 -0.151)"><path class="a" d="M0,7.863A7.863,7.863,0,1,0,7.863,0,7.872,7.872,0,0,0,0,7.863m14.451,0A6.585,6.585,0,0,1,3.68,12.949l9.269-9.269a6.558,6.558,0,0,1,1.5,4.184M7.863,1.275a6.558,6.558,0,0,1,4.184,1.5L2.778,12.047A6.585,6.585,0,0,1,7.863,1.275" transform="translate(0.089 0.089)"/></g></g></g></svg>