<svg xmlns="http://www.w3.org/2000/svg" width="22.684" height="20.737" viewBox="0 0 22.684 20.737"><defs><style>.a{fill:#fc573b;}</style></defs><g transform="translate(-937.316 -421.2)"><path class="a" d="M219.391,312.5a1.166,1.166,0,0,0,0,2.332,1.166,1.166,0,0,0,0-2.332" transform="translate(729.267 123.272)"/><path class="a" d="M22.132,18.7a3.981,3.981,0,0,0,.009-4.029l-7.3-12.646a4.023,4.023,0,0,0-6.985,0L.542,14.684a4.039,4.039,0,0,0,3.5,6.053H18.625A4.016,4.016,0,0,0,22.132,18.7m-1.585-.914A2.2,2.2,0,0,1,18.62,18.9H4.034a2.173,2.173,0,0,1-1.9-1.091,2.207,2.207,0,0,1,0-2.224L9.439,2.933a2.2,2.2,0,0,1,3.814,0L20.56,15.593a2.177,2.177,0,0,1-.014,2.2" transform="translate(937.316 421.2)"/><path class="a" d="M218.625,136.327a1.268,1.268,0,0,0-.9,1.273c.028.368.051.741.079,1.11.079,1.4.159,2.779.238,4.183a.854.854,0,0,0,.872.821.872.872,0,0,0,.872-.849c0-.289,0-.555.028-.849.051-.9.107-1.8.159-2.7.028-.583.079-1.166.107-1.749a1.44,1.44,0,0,0-.107-.583,1.169,1.169,0,0,0-1.348-.658" transform="translate(729.745 291.261)"/></g></svg>