<svg xmlns="http://www.w3.org/2000/svg" width="90.012" height="90" viewBox="0 0 90.012 90"><defs><style>.a{fill:#fff;}</style></defs><g transform="translate(0 -0.002)"><path class="a" d="M34.817,23.776,16.126,10.189a2.254,2.254,0,0,0-3.579,1.818V39.172a2.247,2.247,0,0,0,1.231,2.01,2.27,2.27,0,0,0,1.024.243,2.24,2.24,0,0,0,1.324-.437L34.817,27.412a2.236,2.236,0,0,0,0-3.636Z" transform="translate(25.035 19.466)"/><path class="a" d="M45.007,0a45,45,0,1,0,45,45.007A45,45,0,0,0,45.007,0Zm0,82.491A37.489,37.489,0,1,1,82.491,45.009,37.484,37.484,0,0,1,45.007,82.493Z" transform="translate(0 0)"/></g></svg>