<svg xmlns="http://www.w3.org/2000/svg" width="32.078" height="32.079" viewBox="0 0 32.078 32.079"><defs><style>.a{fill:#646d82;stroke:rgba(0,0,0,0);stroke-miterlimit:10;}</style></defs><path class="a" d="M8812.384,6269.864l-3.837-3.142h-8.586a2.552,2.552,0,0,1-2.549-2.549v-5.315a10.03,10.03,0,0,1-7.433-1.925l-2.58.675a.614.614,0,0,1-.62-.2.605.605,0,0,1-.086-.642l1.016-2.235a9.925,9.925,0,0,1-1.708-5.6,10.033,10.033,0,0,1,1.343-5.017.607.607,0,1,1,1.051.608,8.809,8.809,0,0,0,.5,9.584.606.606,0,0,1,.063.608l-.631,1.387,1.611-.422a.607.607,0,0,1,.56.108,8.709,8.709,0,0,0,5.519,1.947,8.8,8.8,0,1,0-4.4-16.432.607.607,0,1,1-.606-1.051,10.021,10.021,0,0,1,15.021,8.679q0,.461-.04.909h8.537a2.552,2.552,0,0,1,2.549,2.549v11.776a2.552,2.552,0,0,1-2.549,2.549h-1.155v2.671a.607.607,0,0,1-.991.471Zm-13.757-11.254v5.563a1.337,1.337,0,0,0,1.334,1.337h8.568c.325,0,.469,0,.635.15l3,2.452v-2a.6.6,0,0,1,.606-.606h1.762a1.338,1.338,0,0,0,1.334-1.337V6252.4a1.337,1.337,0,0,0-1.334-1.334h-8.723A10.057,10.057,0,0,1,8798.627,6258.609Zm4.711,4.488a.642.642,0,0,1-.33-.843l.771-1.75a.639.639,0,0,1,.272-1.217h.261l2.063-4.7a.639.639,0,0,1,1.171,0l2.062,4.7h.262a.639.639,0,0,1,.271,1.217l.769,1.75a.641.641,0,0,1-.328.843.661.661,0,0,1-.257.053.644.644,0,0,1-.586-.383l-.967-2.2h-3.625l-.967,2.2a.638.638,0,0,1-.841.33Zm2.37-3.811h2.5l-1.253-2.852ZM8795.272,6253v-1.4h-.04a1.579,1.579,0,0,1-1.091.38,1.846,1.846,0,0,1-1.89-1.921,1.971,1.971,0,0,1,2.319-1.969l.221,1.21c-.659-.139-1.15.179-1.15.779a.747.747,0,0,0,.79.75.839.839,0,0,0,.841-.91v-2.541h-3.6v-1.088h8.579v1.088h-3.58v1.151h.042a1.577,1.577,0,0,1,1.089-.4,1.822,1.822,0,0,1,1.869,1.91,1.961,1.961,0,0,1-2.3,1.98l-.221-1.21c.661.142,1.13-.19,1.13-.79a.71.71,0,0,0-.75-.739.855.855,0,0,0-.86.91V6253Z" transform="translate(-8785.501 -6238.422)"/></svg>
