<svg xmlns="http://www.w3.org/2000/svg" width="31.079" height="43" viewBox="0 0 31.079 43"><defs><style>.a,.c{fill:#646d82;}.a{font-size:10px;font-family:ProximaNova-Bold, Proxima Nova;font-weight:700;}.b{font-family:KohinoorDevanagari-Bold, Kohinoor Devanagari;}</style></defs><g transform="translate(-81.516 -562.379)"><text class="a" transform="translate(87.488 570.379)"><tspan x="0" y="0"></tspan><tspan class="b"><tspan x="0" y="18">क</tspan></tspan></text><path class="c" d="M28.529,10.926H19.992c.027-.3.042-.6.042-.909A10.019,10.019,0,0,0,5.012,1.338a.607.607,0,1,0,.607,1.051,8.8,8.8,0,1,1,4.4,16.43A8.7,8.7,0,0,1,4.5,16.873a.607.607,0,0,0-.559-.107l-1.611.421L2.958,15.8a.607.607,0,0,0-.062-.609,8.808,8.808,0,0,1-.5-9.583A.607.607,0,0,0,1.345,5a10.024,10.024,0,0,0,.364,10.614L.693,17.846a.607.607,0,0,0,.706.839L3.98,18.01a10.015,10.015,0,0,0,7.432,1.926v5.315A2.552,2.552,0,0,0,13.961,27.8h8.585l3.839,3.141a.607.607,0,0,0,.991-.47V27.8h1.153a2.552,2.552,0,0,0,2.549-2.549V13.476a2.552,2.552,0,0,0-2.549-2.549m1.335,14.325a1.337,1.337,0,0,1-1.335,1.335h-1.76a.607.607,0,0,0-.607.607v2l-3-2.453c-.165-.151-.31-.151-.635-.151H13.961a1.337,1.337,0,0,1-1.335-1.335V19.688a10.051,10.051,0,0,0,7.181-7.548h8.723a1.337,1.337,0,0,1,1.335,1.335Z" transform="translate(81.516 574.3)"/><path class="c" d="M294.571,256.381a.639.639,0,0,0-.272-1.217h-.262l-2.062-4.7a.639.639,0,0,0-1.171,0l-2.062,4.7h-.262a.639.639,0,0,0-.272,1.217l-.768,1.75a.639.639,0,1,0,1.171.514l.967-2.2H293.2l.967,2.2a.639.639,0,1,0,1.171-.514Zm-4.433-1.217,1.251-2.851,1.251,2.851Z" transform="translate(-188.914 339.501)"/></g></svg>