<svg xmlns="http://www.w3.org/2000/svg" xmlns:xlink="http://www.w3.org/1999/xlink" width="168" height="182.906" viewBox="0 0 168 182.906"><defs><style>.a{fill:#fff;}.b{clip-path:url(#a);}.c{fill:#eff9ff;}.d{fill:#80b7e4;}.d,.f{fill-rule:evenodd;}.e{fill:#a1cff0;}.f{fill:#3e6f97;}.g{fill:#de9d00;}.h{opacity:0.165;}.i{fill:#2cd889;}.j{fill:#f7fbf9;}.k{fill:#f0faf8;}.l{fill:#88c6a9;}</style><clipPath id="a"><rect class="a" width="108.968" height="143.11"/></clipPath></defs><g transform="translate(-960 -1384.154)"><g transform="translate(959.999 1384.154)"><g transform="translate(1.305 0)"><g transform="translate(10.688 16.75)"><g class="b" transform="translate(0 0)"><path class="c" d="M.185,106.186l5.7-2.849A25.964,25.964,0,0,0,20.144,80.38V28.06c.04-11.835,7.492-21.787,15.7-25.406L41.161,0l67.965,33.983-.041.047-5.247,2.623c-8.211,3.62-15.664,13.572-15.7,25.407v52.321a25.964,25.964,0,0,1-14.26,22.956l-5.7,2.849Z" transform="translate(-0.185 0.004)"/><path class="a" d="M133.09,52.387a17.721,17.721,0,0,1-13.166.028c-6.233,4.934-11.262,12.734-11.305,21.8l-.122,53.537a22.973,22.973,0,0,1-10.905,19.339,11.375,11.375,0,0,1,1.413.586c3.827,1.913,3.827,5.02,0,6.933l44.941,22.471a17.491,17.491,0,0,1,13.8-.031,22.977,22.977,0,0,0,10.8-19.273l.122-53.537c-.112-9.159,4.8-17.006,10.988-22.049a11.263,11.263,0,0,1-1.307-.549c-3.707-1.853-3.823-4.826-.349-6.75Z" transform="translate(-84.63 -44.904)"/><path class="d" d="M354.865,777.419l-67.992-34v2.924l67.992,34Z" transform="translate(-286.873 -637.233)"/><path class="e" d="M0,344.19l5.7-2.849a25.964,25.964,0,0,0,14.26-22.956V266.064c.04-11.835,7.492-21.787,15.7-25.407L40.976,238v2.924l-4.141,2.071a25.715,25.715,0,0,0-14.261,23.076v52.321a28.434,28.434,0,0,1-15.7,25.286L0,347.114Z" transform="translate(67.992 -204.004)"/><path class="f" d="M230.808,416.853c0-1.124.73-1.671,1.629-1.222l12.341,6.17a3.429,3.429,0,0,1,1.629,2.851c0,1.124-.73,1.672-1.629,1.222l-12.341-6.17a3.43,3.43,0,0,1-1.629-2.851" transform="translate(-170.407 -356.127)"/><path class="f" d="M293.119,204.792a2.588,2.588,0,0,1,3.681-1.3l19.129,9.565c1.072.536,1.381,2.169.777,3.666s-2.013,2.232-2.963,1.757L294,208.614c-1.439-.719-1.487-2.326-.884-3.822" transform="translate(-249.86 -174.154)"/><path class="f" d="M361.1,374.062c0-1.124.73-1.672,1.629-1.222l5.954,2.977a3.43,3.43,0,0,1,1.629,2.851c0,1.124-.73,1.672-1.629,1.222l-5.954-2.977a3.43,3.43,0,0,1-1.629-2.851" transform="translate(-312.924 -319.449)"/><path class="f" d="M230.808,584.214c0-1.124.73-1.672,1.629-1.222l12.341,6.17a3.429,3.429,0,0,1,1.629,2.851c0,1.124-.73,1.672-1.629,1.222l-12.341-6.17a3.43,3.43,0,0,1-1.629-2.851" transform="translate(-170.407 -499.583)"/><path class="f" d="M361.1,534.965c0-1.124.73-1.672,1.629-1.222l7.8,3.9a3.429,3.429,0,0,1,1.629,2.851c0,1.124-.73,1.672-1.629,1.222l-7.8-3.9a3.429,3.429,0,0,1-1.629-2.851" transform="translate(-314.769 -457.369)"/><path class="f" d="M442.729,337.543c0-1.124.73-1.672,1.629-1.222l4.727,2.363a3.429,3.429,0,0,1,1.629,2.851c0,1.124-.73,1.672-1.629,1.222l-4.727-2.364a3.43,3.43,0,0,1-1.629-2.851" transform="translate(-404.985 -288.146)"/><path class="f" d="M307.692,446.088c0-1.124.73-1.672,1.629-1.222l9.005,4.5a3.429,3.429,0,0,1,1.629,2.851c0,1.124-.73,1.672-1.629,1.222l-9.005-4.5a3.429,3.429,0,0,1-1.629-2.851" transform="translate(-254.937 -381.187)"/><path class="f" d="M414.659,400.627c0-1.124.73-1.672,1.629-1.222L423,402.762a3.429,3.429,0,0,1,1.629,2.851c0,1.124-.73,1.672-1.629,1.222l-6.714-3.357a3.429,3.429,0,0,1-1.629-2.851" transform="translate(-374.892 -342.22)"/><path class="f" d="M230.808,499.391c0-1.124.73-1.672,1.629-1.222l4.76,2.38a3.43,3.43,0,0,1,1.629,2.851c0,1.124-.73,1.672-1.629,1.222l-4.76-2.38a3.429,3.429,0,0,1-1.629-2.851" transform="translate(-162.826 -426.876)"/><path class="f" d="M230.808,520.458c0-1.124.73-1.672,1.629-1.222l14.74,7.37a3.429,3.429,0,0,1,1.629,2.851c0,1.124-.73,1.672-1.629,1.222l-14.74-7.37a3.43,3.43,0,0,1-1.629-2.851" transform="translate(-172.806 -444.934)"/><path class="f" d="M230.808,676.71c0-1.124.73-1.672,1.629-1.222l11.249,5.624a3.43,3.43,0,0,1,1.629,2.851c0,1.124-.73,1.672-1.629,1.222l-11.249-5.624a3.429,3.429,0,0,1-1.629-2.851" transform="translate(-169.315 -578.867)"/><path class="f" d="M499.025,701.475a1.941,1.941,0,0,1,2.4-.63l10.1,5.049a1.393,1.393,0,0,1,.529,2.093,1.941,1.941,0,0,1-2.4.63l-10.1-5.05a1.392,1.392,0,0,1-.529-2.093" transform="translate(-474.594 -600.579)"/><path class="f" d="M426.026,755.4a1.941,1.941,0,0,1,2.4-.63l5.122,2.561a1.393,1.393,0,0,1,.529,2.093,1.941,1.941,0,0,1-2.4.63l-5.122-2.561a1.392,1.392,0,0,1-.529-2.093" transform="translate(-386.191 -646.798)"/><path class="f" d="M377.952,470.868c0-1.124.73-1.672,1.629-1.222l7.889,3.944a3.429,3.429,0,0,1,1.629,2.851c0,1.124-.73,1.672-1.629,1.222l-7.889-3.944a3.429,3.429,0,0,1-1.629-2.851" transform="translate(-334.117 -402.428)"/></g></g><path class="g" d="M207.787,94.825a1.965,1.965,0,1,1-1.69.967l-1.422-1.422L202.939,96.1a.491.491,0,0,1-.694-.694l.347-.347L198.2,90.671h0l-.694-.694a1.474,1.474,0,0,1-.287-1.675l-1.1-1.1a1.475,1.475,0,0,1-.287-1.675l-2.688-2.688a.491.491,0,0,1,.694-.694l2.688,2.688a1.474,1.474,0,0,1,1.675.287l1.1,1.1a1.475,1.475,0,0,1,1.675.287l5.086,5.086.347-.347a.491.491,0,0,1,.694.694l-1.735,1.735,1.422,1.422A1.949,1.949,0,0,1,207.787,94.825Zm-10.28-9.011a.491.491,0,1,0-.694.694l1.041,1.041.694-.694Zm2.776,1.388a.491.491,0,0,0-.694,0L198.2,88.589a.491.491,0,0,0,0,.694l.347.347,1.041-1.041a.491.491,0,0,1,.694.694l-1.041,1.041.694.694,1.041-1.041a.491.491,0,1,1,.694.694l-1.041,1.041.778.778,1.041-1.041a.491.491,0,0,1,.694.694L202.1,93.184l1.185,1.185,2.082-2.082Zm7.5,10.568a.981.981,0,1,0-.981-.981A.982.982,0,0,0,207.787,97.769Z" transform="translate(-193 -82.001)"/><g class="h" transform="translate(77.708 83.897)"><g transform="translate(0 0)"><path class="i" d="M17.253,0H0V17.253H17.253ZM13.8,13.8H3.451V3.451H13.8Z" transform="translate(0 0.263)"/><rect class="i" width="4" height="4" transform="translate(6.988 7.009)"/><path class="i" d="M352,0V17.253h17.253V0Zm13.8,13.8H355.451V3.451H365.8Z" transform="translate(-314.043 0.263)"/><rect class="i" width="3" height="4" transform="translate(44.988 7.009)"/><path class="i" d="M0,369.253H17.253V352H0Zm3.451-13.8H13.8V365.8H3.451Z" transform="translate(0 -313.78)"/><rect class="i" width="4" height="2" transform="translate(6.988 46.01)"/><rect class="i" width="6" height="4" transform="translate(28.988 0.009)"/><path class="i" d="M198.9,42.352h3.451V38.9H205.8V35.451H195.451V32H192v6.9h6.9Z" transform="translate(-171.296 -28.286)"/><rect class="i" width="3" height="4" transform="translate(20.988 13.009)"/><path class="i" d="M205.8,160h-3.451v3.451H192V166.9h13.8Z" transform="translate(-171.296 -142.484)"/><path class="i" d="M3.451,202.352H6.9V198.9H3.451V192H0v13.8H3.451Z" transform="translate(0 -171.033)"/><rect class="i" width="4" height="4" transform="translate(6.988 20.009)"/><path class="i" d="M106.352,205.8h6.9v-3.451H109.8V198.9h-6.9V192H99.451v6.9H96v6.9h3.451v-3.451h6.9Z" transform="translate(-85.648 -171.033)"/><rect class="i" width="3" height="6" transform="translate(31.988 28.01)"/><path class="i" d="M202.352,352H192v3.451h6.9V365.8H192v3.451h10.352V365.8h6.9v-3.451h-6.9Z" transform="translate(-171.296 -313.78)"/><rect class="i" width="3" height="2" transform="translate(20.988 46.01)"/><rect class="i" width="4" height="7" transform="translate(34.988 39.01)"/><path class="i" d="M394.352,416H384v10.352h3.451v-6.9h6.9Z" transform="translate(-342.593 -370.879)"/><rect class="i" width="7" height="4" transform="translate(47.988 52.009)"/><rect class="i" width="3" height="2" transform="translate(51.988 39.01)"/><path class="i" d="M355.451,298.352H358.9V288H352v3.451h3.451Z" transform="translate(-314.043 -256.681)"/><path class="i" d="M362.352,195.451H358.9V192h-3.451v3.451H352V198.9h13.8v-3.451h3.451V192h-6.9Z" transform="translate(-314.043 -171.033)"/><rect class="i" width="7" height="1" transform="translate(47.988 33.01)"/></g></g><g class="h" transform="translate(22.797 155.682)"><g transform="translate(0 0)"><path class="i" d="M5.2,0H0V5.2H5.2ZM4.162,4.162H1.041V1.041H4.162Z"/><rect class="i" width="1" transform="translate(1.898 2.224)"/><path class="i" d="M352,0V5.2h5.2V0Zm4.162,4.162h-3.122V1.041h3.122Z" transform="translate(-340.553)"/><rect class="i" width="1" transform="translate(13.898 2.224)"/><path class="i" d="M0,357.2H5.2V352H0Zm1.041-4.162H4.162v3.122H1.041Z" transform="translate(0 -340.553)"/><rect class="i" width="1" height="1" transform="translate(1.898 13.224)"/><rect class="i" width="2" height="1" transform="translate(8.898 0.224)"/><path class="i" d="M194.081,35.122h1.041V34.081h1.041V33.041h-3.122V32H192v2.081h2.081Z" transform="translate(-185.756 -30.959)"/><rect class="i" width="2" height="1" transform="translate(4.898 3.224)"/><path class="i" d="M196.162,160h-1.041v1.041H192v1.041h4.162Z" transform="translate(-185.756 -154.797)"/><path class="i" d="M1.041,195.122H2.081v-1.041H1.041V192H0v4.162H1.041Z" transform="translate(0 -185.756)"/><rect class="i" width="1" height="1" transform="translate(1.898 7.224)"/><path class="i" d="M99.122,196.162H101.2v-1.041h-1.041v-1.041H98.081V192H97.041v2.081H96v2.081h1.041v-1.041h2.081Z" transform="translate(-92.878 -185.756)"/><rect class="i" width="1" height="1" transform="translate(9.898 9.224)"/><path class="i" d="M195.122,352H192v1.041h2.081v3.122H192V357.2h3.122v-1.041H197.2v-1.041h-2.081Z" transform="translate(-185.756 -340.553)"/><rect class="i" width="2" height="1" transform="translate(4.898 13.224)"/><rect class="i" height="1" transform="translate(10.898 12.224)"/><path class="i" d="M387.122,416H384v3.122h1.041v-2.081h2.081Z" transform="translate(-371.513 -402.472)"/><rect class="i" width="1" height="3" transform="translate(14.898 15.224)"/><rect class="i" width="1" transform="translate(14.898 12.224)"/><path class="i" d="M353.041,291.122h1.041V288H352v1.041h1.041Z" transform="translate(-340.553 -278.635)"/><path class="i" d="M355.122,193.041h-1.041V192h-1.041v1.041H352v1.041h4.162v-1.041H357.2V192h-2.081Z" transform="translate(-340.553 -185.756)"/><rect class="i" width="1" height="1" transform="translate(14.898 9.224)"/></g></g><circle class="j" cx="23.5" cy="23.5" r="23.5" transform="translate(119.696 135.906)"/><path class="g" d="M196.044,101.887a3.047,3.047,0,1,0,2.621,1.5l2.206-2.206,2.691,2.69a.761.761,0,0,0,1.076-1.076l-.538-.538,6.81-6.81h0l1.076-1.076a2.286,2.286,0,0,0,.445-2.6l1.707-1.707a2.287,2.287,0,0,0,.446-2.6l4.168-4.168a.761.761,0,0,0-1.076-1.076l-4.168,4.168a2.286,2.286,0,0,0-2.6.445L209.2,88.543a2.287,2.287,0,0,0-2.6.446l-7.887,7.887-.538-.538a.761.761,0,0,0-1.076,1.076l2.69,2.69-2.206,2.206A3.023,3.023,0,0,0,196.044,101.887Zm15.942-13.974a.761.761,0,0,1,1.076,1.076L211.447,90.6l-1.076-1.076Zm-4.3,2.152a.762.762,0,0,1,1.076,0l2.152,2.152a.762.762,0,0,1,0,1.076l-.538.538-1.614-1.614a.761.761,0,0,0-1.076,1.076l1.614,1.614-1.076,1.076L206.6,94.37a.761.761,0,0,0-1.076,1.076l1.614,1.614-1.207,1.207-1.614-1.614a.761.761,0,0,0-1.076,1.076l1.614,1.614-1.837,1.837-3.228-3.228Zm-11.637,16.387a1.522,1.522,0,1,1,1.522-1.522A1.524,1.524,0,0,1,196.044,106.453Z" transform="translate(-62.902 63.912)"/></g><g transform="translate(0 57.695)"><ellipse class="k" cx="26" cy="26.5" rx="26" ry="26.5" transform="translate(0 0.211)"/><ellipse class="l" cx="21" cy="21.5" rx="21" ry="21.5" transform="translate(5 5.211)"/><g transform="translate(15.652 19.618)"><g transform="translate(0 0)"><path class="a" d="M143.978,165.881a1.657,1.657,0,0,0-2.344-.062l-10.584,10.037L126,170.673a1.658,1.658,0,0,0-2.375,2.313l6.189,6.354a1.658,1.658,0,0,0,2.329.046l11.771-11.163A1.657,1.657,0,0,0,143.978,165.881Z" transform="translate(-123.158 -165.364)"/></g></g></g></g></g></svg>