<svg width="26" height="26" viewBox="0 0 26 26" fill="none" xmlns="http://www.w3.org/2000/svg">
<g clip-path="url(#clip0)">
<path d="M22.1924 3.8076C19.737 1.35225 16.4724 0 13 0C9.52744 0 6.26295 1.35225 3.8076 3.8076C1.35225 6.26295 0 9.52744 0 13C0 16.4724 1.35225 19.737 3.8076 22.1924C6.26295 24.6478 9.52744 26 13 26C16.4724 26 19.737 24.6478 22.1924 22.1924C24.6478 19.737 26 16.4724 26 13C26 9.52744 24.6478 6.26295 22.1924 3.8076V3.8076ZM6.51726 22.465C7.06097 19.3344 9.7738 17.0252 13 17.0252C16.2264 17.0252 18.939 19.3344 19.4827 22.465C17.637 23.7331 15.4038 24.4766 13 24.4766C10.5962 24.4766 8.36304 23.7331 6.51726 22.465ZM8.86649 11.3683C8.86649 9.08885 10.7208 7.23474 13 7.23474C15.2792 7.23474 17.1335 9.08905 17.1335 11.3683C17.1335 13.6475 15.2792 15.5018 13 15.5018C10.7208 15.5018 8.86649 13.6475 8.86649 11.3683V11.3683ZM20.8023 21.4083C20.3922 19.9509 19.578 18.6286 18.4366 17.5957C17.7363 16.9619 16.9393 16.4619 16.0824 16.1094C17.6312 15.0991 18.6572 13.3513 18.6572 11.3683C18.6572 8.24898 16.1193 5.7113 13 5.7113C9.88072 5.7113 7.34305 8.24898 7.34305 11.3683C7.34305 13.3513 8.36899 15.0991 9.91762 16.1094C9.06088 16.4619 8.26366 16.9617 7.56343 17.5955C6.42224 18.6284 5.60776 19.9507 5.19774 21.4081C2.93936 19.3108 1.52344 16.3178 1.52344 13C1.52344 6.67178 6.67178 1.52344 13 1.52344C19.3282 1.52344 24.4766 6.67178 24.4766 13C24.4766 16.318 23.0606 19.311 20.8023 21.4083V21.4083Z" fill="#646D82"/>
</g>
<defs>
<clipPath id="clip0">
<rect width="26" height="26" fill="white"/>
</clipPath>
</defs>
</svg>
