<svg xmlns="http://www.w3.org/2000/svg" width="27.659" height="27.641" viewBox="0 0 27.659 27.641"><defs><style>.a{fill:#737783;}</style></defs><g transform="translate(0 0)"><path class="a" d="M276.54,226.833a.54.54,0,0,0-.54.54v1.116a.54.54,0,1,0,1.08,0v-1.116A.54.54,0,0,0,276.54,226.833Z" transform="translate(-267.033 -216.605)"/><path class="a" d="M316.54,226.833a.54.54,0,0,0-.54.54v1.116a.54.54,0,1,0,1.08,0v-1.116A.54.54,0,0,0,316.54,226.833Z" transform="translate(-304.872 -216.605)"/><path class="a" d="M356.54,226.833a.54.54,0,0,0-.54.54v1.116a.54.54,0,1,0,1.08,0v-1.116A.54.54,0,0,0,356.54,226.833Z" transform="translate(-342.711 -216.605)"/><path class="a" d="M396.54,226.833a.54.54,0,0,0-.54.54v1.116a.54.54,0,1,0,1.08,0v-1.116A.54.54,0,0,0,396.54,226.833Z" transform="translate(-380.55 -216.605)"/><path class="a" d="M436.54,226.833a.54.54,0,0,0-.54.54v1.116a.54.54,0,0,0,1.08,0v-1.116A.54.54,0,0,0,436.54,226.833Z" transform="translate(-418.389 -216.605)"/><path class="a" d="M216.54,489.5a.54.54,0,1,0,.382.158A.544.544,0,0,0,216.54,489.5Z" transform="translate(-210.274 -465.082)"/><path class="a" d="M216.54,406.833a.54.54,0,0,0-.54.54v2.34a.54.54,0,0,0,1.08,0v-2.34A.54.54,0,0,0,216.54,406.833Z" transform="translate(-210.274 -386.881)"/><path class="a" d="M272.54,406.833a.54.54,0,0,0-.54.54v4.466a.54.54,0,1,0,1.08,0v-4.466A.54.54,0,0,0,272.54,406.833Z" transform="translate(-263.249 -386.881)"/><path class="a" d="M328.54,406.833a.54.54,0,0,0-.54.54v4.466a.54.54,0,1,0,1.08,0v-4.466A.54.54,0,0,0,328.54,406.833Z" transform="translate(-316.223 -386.881)"/><path class="a" d="M384.54,406.833a.54.54,0,0,0-.54.54v4.466a.54.54,0,1,0,1.08,0v-4.466A.54.54,0,0,0,384.54,406.833Z" transform="translate(-369.198 -386.881)"/><path class="a" d="M440.54,406.833a.54.54,0,0,0-.54.54v4.466a.54.54,0,1,0,1.08,0v-4.466A.54.54,0,0,0,440.54,406.833Z" transform="translate(-422.173 -386.881)"/><path class="a" d="M496.54,406.829a.541.541,0,1,0,.382.158A.545.545,0,0,0,496.54,406.829Z" transform="translate(-475.148 -386.878)"/><path class="a" d="M496.54,446.833a.54.54,0,0,0-.54.54v2.3a.54.54,0,0,0,1.08,0v-2.3A.54.54,0,0,0,496.54,446.833Z" transform="translate(-475.148 -424.721)"/><path class="a" d="M256.54,310.333a.54.54,0,0,0-.54.54v1.116a.54.54,0,0,0,1.08,0v-1.116A.54.54,0,0,0,256.54,310.333Z" transform="translate(-248.113 -295.594)"/><path class="a" d="M296.54,310.333a.54.54,0,0,0-.54.54v1.116a.54.54,0,0,0,1.08,0v-1.116A.54.54,0,0,0,296.54,310.333Z" transform="translate(-285.952 -295.594)"/><path class="a" d="M336.54,310.333a.54.54,0,0,0-.54.54v1.116a.54.54,0,0,0,1.08,0v-1.116A.54.54,0,0,0,336.54,310.333Z" transform="translate(-323.791 -295.594)"/><path class="a" d="M376.54,310.333a.54.54,0,0,0-.54.54v1.116a.54.54,0,1,0,1.08,0v-1.116A.54.54,0,0,0,376.54,310.333Z" transform="translate(-361.631 -295.594)"/><path class="a" d="M416.54,310.333a.54.54,0,0,0-.54.54v1.116a.54.54,0,0,0,1.08,0v-1.116A.54.54,0,0,0,416.54,310.333Z" transform="translate(-399.47 -295.594)"/><path class="a" d="M456.54,310.333a.54.54,0,0,0-.54.54v1.116a.54.54,0,0,0,1.08,0v-1.116A.54.54,0,0,0,456.54,310.333Z" transform="translate(-437.309 -295.594)"/><path class="a" d="M137.118,56.713h-2.161V55.525a.54.54,0,0,0-.54-.54h-2.485V51.311h.378a.54.54,0,0,0,0-1.08H130.8V47.419a.54.54,0,0,0-.054-1.078h-1.333v-.468a5.59,5.59,0,0,0-5.042-5.556V38.04a.54.54,0,0,0-1.08,0v2.277a5.59,5.59,0,0,0-5.042,5.556v.468h-1.333a.54.54,0,0,0-.054,1.078v2.812h-1.513a.54.54,0,0,0,0,1.08h.378v3.673h-2.485a.54.54,0,0,0-.54.54v1.188H110.54a.54.54,0,0,0-.54.54V64.6a.54.54,0,0,0,.54.54h26.578a.54.54,0,0,0,.54-.54V57.254A.54.54,0,0,0,137.118,56.713Zm-17.791-10.84a4.5,4.5,0,1,1,9,0v.468h-9Zm-1.387,1.549h11.777v2.809H117.941Zm-1.134,3.889h14.045v3.673H116.807Zm-5.726,6.483H112.7V64.06H111.08Zm2.7-.54V56.065h20.1v8h-20.1Zm22.8,6.807h-1.621V57.794h1.621Z" transform="translate(-110 -37.5)"/></g></svg>