<svg xmlns="http://www.w3.org/2000/svg" width="52" height="52" viewBox="0 0 52 52"><defs><style>.a{fill:#f0faf8;}.b{fill:#88c6a9;}.c{fill:#fff;}</style></defs><g transform="translate(0.482 -0.242)"><circle class="a" cx="26" cy="26" r="26" transform="translate(-0.482 0.242)"/><circle class="b" cx="21" cy="21" r="21" transform="translate(4.518 5.242)"/><path class="c" d="M195.774,100.125a2.777,2.777,0,1,0,2.389,1.366l2.01-2.01,2.452,2.452a.693.693,0,1,0,.981-.981l-.49-.491,6.207-6.207h0l.98-.981a2.083,2.083,0,0,0,.406-2.368l1.556-1.556a2.084,2.084,0,0,0,.406-2.368l3.8-3.8a.694.694,0,0,0-.981-.981l-3.8,3.8a2.084,2.084,0,0,0-2.368.406l-1.556,1.556a2.084,2.084,0,0,0-2.368.406l-7.188,7.188-.491-.491a.694.694,0,0,0-.981.981l2.452,2.452-2.01,2.01A2.755,2.755,0,0,0,195.774,100.125ZM210.3,87.389a.694.694,0,0,1,.981.981l-1.471,1.471-.981-.981Zm-3.923,1.962a.694.694,0,0,1,.981,0l1.962,1.962a.694.694,0,0,1,0,.981l-.49.491-1.471-1.471a.694.694,0,0,0-.981.981l1.471,1.471-.981.981L205.4,93.274a.694.694,0,1,0-.981.981l1.471,1.471-1.1,1.1-1.471-1.471a.694.694,0,0,0-.981.981l1.471,1.471-1.674,1.674-2.942-2.942Zm-10.606,14.936a1.387,1.387,0,1,1,1.387-1.387A1.389,1.389,0,0,1,195.774,104.286Z" transform="translate(-178.999 -67.847)"/></g></svg>