<svg xmlns="http://www.w3.org/2000/svg" width="25.156" height="27.641" viewBox="0 0 25.156 27.641"><defs><style>.a{fill:#737783;}</style></defs><path class="a" d="M197.274,95.743H196.5V71.363a.466.466,0,0,0-.466-.466h-8.7a.466.466,0,0,0-.466.466v2.019h-.932V71.363a.466.466,0,0,0-.466-.466h-2.019V69.5a.466.466,0,1,0-.932,0v1.4H180.5a.466.466,0,0,0-.466.466v2.019h-1.4a.466.466,0,0,0-.466.466V77.73h-3.882a.466.466,0,0,0-.466.466V95.743h-.777a.466.466,0,0,0,0,.932h24.224a.466.466,0,0,0,0-.932Zm-16.3-23.914h4.037v1.553h-4.037Zm-1.553,23.914h-.311v-.776a.466.466,0,1,0-.932,0v.776h-.311V94.19h1.553Zm3.106-11.957V95.743h-2.174V93.724a.466.466,0,0,0-.466-.466H177.4a.466.466,0,0,0-.466.466v2.019h-2.174V78.662h7.764v5.124Zm.466-6.056h-3.882V74.314h7.764V83.32h-3.416V81.767h1.4a.466.466,0,0,0,0-.932h-1.4V79.283h1.4a.466.466,0,0,0,0-.932h-1.4V78.2A.466.466,0,0,0,182.988,77.73Zm8.23,18.013h-7.764V84.252h7.764Zm4.348,0H192.15V83.165a.466.466,0,1,0-.932,0v.155h-.932v-.155a.466.466,0,0,0-.932,0v.155H187.8V71.829h7.764V95.743Z" transform="translate(-172.584 -69.034)"/><path class="a" d="M403.163,377.811a.466.466,0,0,0,.466-.466v-8.7a.466.466,0,1,0-.932,0v8.7A.466.466,0,0,0,403.163,377.811Z" transform="translate(-390.274 -352.033)"/><path class="a" d="M437.68,377.811a.466.466,0,0,0,.466-.466v-8.7a.466.466,0,1,0-.932,0v8.7A.466.466,0,0,0,437.68,377.811Z" transform="translate(-422.928 -352.033)"/><path class="a" d="M472.2,377.811a.466.466,0,0,0,.466-.466v-8.7a.466.466,0,1,0-.932,0v8.7A.466.466,0,0,0,472.2,377.811Z" transform="translate(-455.58 -352.033)"/><path class="a" d="M483.7,151.127a.466.466,0,0,0,.466-.466v-.621a.466.466,0,0,0-.932,0v.621A.466.466,0,0,0,483.7,151.127Z" transform="translate(-466.465 -145.226)"/><path class="a" d="M518.219,151.127a.466.466,0,0,0,.466-.466v-.621a.466.466,0,1,0-.932,0v.621A.466.466,0,0,0,518.219,151.127Z" transform="translate(-499.119 -145.226)"/><path class="a" d="M552.736,151.127a.466.466,0,0,0,.466-.466v-.621a.466.466,0,1,0-.932,0v.621A.466.466,0,0,0,552.736,151.127Z" transform="translate(-531.772 -145.226)"/><path class="a" d="M483.7,208.654a.466.466,0,0,0,.466-.466v-.621a.466.466,0,0,0-.932,0v.621A.466.466,0,0,0,483.7,208.654Z" transform="translate(-466.465 -199.647)"/><path class="a" d="M518.219,208.654a.466.466,0,0,0,.466-.466v-.621a.466.466,0,1,0-.932,0v.621A.466.466,0,0,0,518.219,208.654Z" transform="translate(-499.119 -199.647)"/><path class="a" d="M552.736,208.654a.466.466,0,0,0,.466-.466v-.621a.466.466,0,1,0-.932,0v.621A.466.466,0,0,0,552.736,208.654Z" transform="translate(-531.772 -199.647)"/><path class="a" d="M483.7,266.183a.466.466,0,0,0,.466-.466V265.1a.466.466,0,0,0-.932,0v.621A.466.466,0,0,0,483.7,266.183Z" transform="translate(-466.465 -254.071)"/><path class="a" d="M518.219,266.183a.466.466,0,0,0,.466-.466V265.1a.466.466,0,0,0-.932,0v.621A.466.466,0,0,0,518.219,266.183Z" transform="translate(-499.119 -254.071)"/><path class="a" d="M552.736,266.183a.466.466,0,0,0,.466-.466V265.1a.466.466,0,0,0-.932,0v.621A.466.466,0,0,0,552.736,266.183Z" transform="translate(-531.772 -254.071)"/><path class="a" d="M242.084,289.194a.466.466,0,0,0,.466-.466v-.621a.466.466,0,0,0-.932,0v.621A.466.466,0,0,0,242.084,289.194Z" transform="translate(-237.891 -275.839)"/><path class="a" d="M276.6,289.194a.466.466,0,0,0,.466-.466v-.621a.466.466,0,0,0-.932,0v.621A.466.466,0,0,0,276.6,289.194Z" transform="translate(-270.545 -275.839)"/><path class="a" d="M311.118,289.194a.466.466,0,0,0,.466-.466v-.621a.466.466,0,0,0-.932,0v.621A.466.466,0,0,0,311.118,289.194Z" transform="translate(-303.198 -275.839)"/><path class="a" d="M242.084,346.722a.466.466,0,0,0,.466-.466v-.621a.466.466,0,0,0-.932,0v.621A.466.466,0,0,0,242.084,346.722Z" transform="translate(-237.891 -330.262)"/><path class="a" d="M276.6,346.722a.466.466,0,0,0,.466-.466v-.621a.466.466,0,0,0-.932,0v.621A.466.466,0,0,0,276.6,346.722Z" transform="translate(-270.545 -330.262)"/><path class="a" d="M311.118,346.722a.466.466,0,0,0,.466-.466v-.621a.466.466,0,0,0-.932,0v.621A.466.466,0,0,0,311.118,346.722Z" transform="translate(-303.198 -330.262)"/><path class="a" d="M242.084,404.25a.466.466,0,0,0,.466-.466v-.621a.466.466,0,1,0-.932,0v.621A.466.466,0,0,0,242.084,404.25Z" transform="translate(-237.891 -384.684)"/><path class="a" d="M276.6,404.25a.466.466,0,0,0,.466-.466v-.621a.466.466,0,1,0-.932,0v.621A.466.466,0,0,0,276.6,404.25Z" transform="translate(-270.545 -384.684)"/><path class="a" d="M311.118,404.25a.466.466,0,0,0,.466-.466v-.621a.466.466,0,1,0-.932,0v.621A.466.466,0,0,0,311.118,404.25Z" transform="translate(-303.198 -384.684)"/><path class="a" d="M242.084,461.778a.466.466,0,0,0,.466-.466v-.621a.466.466,0,1,0-.932,0v.621A.466.466,0,0,0,242.084,461.778Z" transform="translate(-237.891 -439.106)"/><path class="a" d="M276.6,461.778a.466.466,0,0,0,.466-.466v-.621a.466.466,0,1,0-.932,0v.621A.466.466,0,0,0,276.6,461.778Z" transform="translate(-270.545 -439.106)"/><path class="a" d="M311.118,461.778a.466.466,0,0,0,.466-.466v-.621a.466.466,0,1,0-.932,0v.621A.466.466,0,0,0,311.118,461.778Z" transform="translate(-303.198 -439.106)"/><path class="a" d="M552.736,323.711a.466.466,0,0,0,.466-.466v-.621a.466.466,0,1,0-.932,0v.621A.466.466,0,0,0,552.736,323.711Z" transform="translate(-531.772 -308.493)"/><path class="a" d="M552.736,381.239a.466.466,0,0,0,.466-.466v-.621a.466.466,0,0,0-.932,0v.621A.466.466,0,0,0,552.736,381.239Z" transform="translate(-531.772 -362.915)"/><path class="a" d="M552.736,438.767a.466.466,0,0,0,.466-.466v-.621a.466.466,0,1,0-.932,0v.621A.466.466,0,0,0,552.736,438.767Z" transform="translate(-531.772 -417.338)"/><path class="a" d="M552.736,496.295a.466.466,0,0,0,.466-.466v-.621a.466.466,0,0,0-.932,0v.621A.466.466,0,0,0,552.736,496.295Z" transform="translate(-531.772 -471.76)"/><path class="a" d="M326.816,196.062a.466.466,0,0,0-.466-.466h-3.727a.466.466,0,1,0,0,.932h3.727A.466.466,0,0,0,326.816,196.062Z" transform="translate(-314.082 -188.763)"/></svg>