<svg xmlns="http://www.w3.org/2000/svg" width="40.666" height="37.761" viewBox="0 0 40.666 37.761"><defs><style>.a{fill:#4e4e4e;}</style></defs><g transform="translate(-106.667 -170.667)"><path class="a" d="M145.881,208.428H108.119a1.453,1.453,0,0,1-1.452-1.452V172.119a1.453,1.453,0,0,1,1.452-1.452h37.761a1.453,1.453,0,0,1,1.452,1.452v34.857A1.453,1.453,0,0,1,145.881,208.428Zm-36.309-2.9h34.857V173.572H109.572Z"/><path class="a" d="M193.452,208.428A1.453,1.453,0,0,1,192,206.976V172.119a1.452,1.452,0,0,1,2.9,0v34.857A1.453,1.453,0,0,1,193.452,208.428Z" transform="translate(-73.714)"/><path class="a" d="M145.881,237.572H108.119a1.452,1.452,0,0,1,0-2.9h37.761a1.452,1.452,0,0,1,0,2.9Z" transform="translate(0 -55.286)"/><path class="a" d="M145.881,301.572H108.119a1.452,1.452,0,0,1,0-2.9h37.761a1.452,1.452,0,0,1,0,2.9Z" transform="translate(0 -110.572)"/><path class="a" d="M145.881,365.572H108.119a1.452,1.452,0,0,1,0-2.9h37.761a1.452,1.452,0,0,1,0,2.9Z" transform="translate(0 -165.857)"/></g></svg>