<svg xmlns="http://www.w3.org/2000/svg" width="44.686" height="37.241" viewBox="0 0 44.686 37.241"><defs><style>.a{fill:#4e4e4e;}</style></defs><g transform="translate(0.006 -85.329)"><g transform="translate(-0.006 85.35)"><path class="a" d="M1.589,115.491c-.141,0-.222,0-.236,0a1.4,1.4,0,0,1-1.357-1.434A1.413,1.413,0,0,1,1.429,112.7c1.238.03,30.677.51,37.657-26.089a1.4,1.4,0,0,1,2.7.709C34.58,114.78,4.57,115.491,1.589,115.491Z" transform="translate(0.006 -85.568)"/></g><g transform="translate(34.259 85.329)"><path class="a" d="M401.592,92.96a1.394,1.394,0,0,1-1.21-.7l-2.095-3.629-3.629,2.095a1.4,1.4,0,0,1-1.4-2.417l4.838-2.793a1.394,1.394,0,0,1,1.907.51l2.793,4.838a1.4,1.4,0,0,1-.51,1.907A1.365,1.365,0,0,1,401.592,92.96Z" transform="translate(-392.564 -85.329)"/></g><g transform="translate(39.097 96.502)"><path class="a" d="M449.4,239.4A1.4,1.4,0,0,1,448,238V214.73a1.4,1.4,0,1,1,2.793,0V238A1.4,1.4,0,0,1,449.4,239.4Z" transform="translate(-448 -213.333)"/></g><g transform="translate(27.925 109.536)"><path class="a" d="M321.4,375.7a1.4,1.4,0,0,1-1.4-1.4V364.064a1.4,1.4,0,0,1,2.793,0V374.3A1.4,1.4,0,0,1,321.4,375.7Z" transform="translate(-320 -362.667)"/></g><g transform="translate(16.753 115.122)"><path class="a" d="M193.4,434.115a1.4,1.4,0,0,1-1.4-1.4v-4.655a1.4,1.4,0,1,1,2.793,0v4.655A1.4,1.4,0,0,1,193.4,434.115Z" transform="translate(-192 -426.667)"/></g><g transform="translate(5.581 117.915)"><path class="a" d="M65.4,463.322a1.4,1.4,0,0,1-1.4-1.4v-1.862a1.4,1.4,0,0,1,2.793,0v1.862A1.4,1.4,0,0,1,65.4,463.322Z" transform="translate(-64 -458.667)"/></g></g></svg>