<svg xmlns="http://www.w3.org/2000/svg" xmlns:xlink="http://www.w3.org/1999/xlink" width="58.221" height="65.82" viewBox="0 0 58.221 65.82"><defs><style>.a{fill:#de9d00;}.b{clip-path:url(#a);}</style><clipPath id="a"><rect class="a" width="58.221" height="65.82"/></clipPath></defs><g class="b"><path class="a" d="M81.5,59.115A21.382,21.382,0,1,0,102.881,80.5,21.406,21.406,0,0,0,81.5,59.115m0,38.9A17.518,17.518,0,1,1,99.017,80.5,17.538,17.538,0,0,1,81.5,98.015" transform="translate(-52.389 -51.515)"/><path class="a" d="M49.695,8.526A29.112,29.112,0,1,0,22.913,57.557l6.2,8.263,6.2-8.263A29.113,29.113,0,0,0,49.695,8.526M33.843,53.912l-.736.139-4,5.329-4-5.328-.736-.139a25.246,25.246,0,1,1,9.465,0"/></g></svg>