<svg xmlns="http://www.w3.org/2000/svg" width="45.88" height="51.082" viewBox="0 0 45.88 51.082"><defs><style>.a{fill:#4e4e4e;stroke:#4e4e4e;}</style></defs><g transform="translate(-26.059 0.509)"><g transform="translate(26.56 0)"><path class="a" d="M71.3,16.671l-1.563-2.3a.8.8,0,0,0-.687-.352l-3.03.079a.8.8,0,0,0-.648.357l-.309.462-3.144,2.012a.8.8,0,0,0-.367.6l-.068.731h-1.22l-2.4-1.955a.8.8,0,0,0-1.239.287l-1,2.164-9.558-4.08.548-2.09a.8.8,0,0,0-.518-.965l-.793-.272L44,9.353l.187-.046a.8.8,0,0,0,.508-1.18l-.451-.792,1.726-3.543A.8.8,0,0,0,45.66,2.75l-1.551-.934a.8.8,0,0,0-.458-.114l-3.311.175L36.213.068a.8.8,0,0,0-.736.047L33.252,1.446a.8.8,0,0,0-.117,1.3l1.24,1.087.068,2.756a.8.8,0,0,0,.212.524l2.039,2.22L35,12.377a.8.8,0,0,0-.1.375l-.006.335-2.972,3.266-1.507-.483a.8.8,0,0,0-1.007.507l-.83,2.433a.8.8,0,0,0,.273.9l.427.327,1.088,2.226.008.485-3.283,1.177a.8.8,0,0,0-.083,1.48l1,.492a.8.8,0,0,0-.2,1.1l1.227,1.827a.8.8,0,0,0,.312.273l1.99.982a.8.8,0,0,0,1-.234l.877-1.149.472,1.119-.283,1.49a.805.805,0,0,0,.036.429l6.589,17.809a.813.813,0,0,0,.755.525.8.8,0,0,0,.287-.053l1.613-.616a.805.805,0,0,0,.43-.386l.354-.695.55-.672L45.4,45.993a.8.8,0,0,0,.174-.374l.729-4.1a.8.8,0,0,0-.028-.394l-.385-1.162.734-2.219.613-.378L48,37.274a.8.8,0,0,0,.554-.323l.951-1.3a3.115,3.115,0,0,0,.957-.478c.305-.284.592-.592.886-.887a2.4,2.4,0,0,0,.6-.745c.149-.35.292-.7.437-1.053l2.861-1.572a.8.8,0,0,0,.411-.606l.14-1.131,1.07-.818,1.436.286a.8.8,0,0,0,.933-1L57.87,22.625l1.679-.7,1.153.754a.8.8,0,0,0,.352.126l.852.094-.955,1.412a.8.8,0,0,0,.706,1.254l.629-.031,1.455,1.987a.8.8,0,0,0,1.444-.349l.4-2.5.676.129a.8.8,0,0,0,.946-.664l.437-2.745.389-.513a.8.8,0,0,0,.156-.38l.066-.493,2.367-.822a.8.8,0,0,0,.523-.593l.278-1.31A.8.8,0,0,0,71.3,16.671Zm-1.636,1.151-2.406.836a.8.8,0,0,0-.533.654l-.1.774-.382.5a.805.805,0,0,0-.153.36l-.338,2.124-.676-.13a.8.8,0,0,0-.946.664L63.9,25.015l-.569-.778a.8.8,0,0,0-.237-.216l.895-1.323a.8.8,0,0,0-.579-1.251l-1.987-.218-1.348-.881a.8.8,0,0,0-.748-.07L56.6,21.41a.8.8,0,0,0-.468.955l1.212,4.453-.517-.1a.8.8,0,0,0-.646.15L54.553,28.11a.8.8,0,0,0-.31.54l-.131,1.058-2.748,1.51a.8.8,0,0,0-.355.4l-.529,1.273-1.06,1.061-.736.307a.8.8,0,0,0-.339.267l-.876,1.195-.6.07a.806.806,0,0,0-.328.114l-1.014.625a.8.8,0,0,0-.342.432l-.91,2.75a.8.8,0,0,0,0,.506l.4,1.221-.656,3.69-1.25,1.5-.61.744a.8.8,0,0,0-.094.145l-.253.5-.564.216L35.027,31.389l.287-1.509a.806.806,0,0,0-.049-.463l-.657-1.556.038-1.285a.8.8,0,0,0-1.444-.512l-1.741,2.282-1.2-.594-.55-.934.454-.238a.8.8,0,0,0-.019-1.436l-.38-.186-.333-.163,2.034-.729A.8.8,0,0,0,32,23.3l-.021-1.24a.8.8,0,0,0-.082-.34l-1.25-2.557a.8.8,0,0,0-.234-.286l-.119-.091.388-1.138,1.247.4a.8.8,0,0,0,.841-.225l3.524-3.872a.8.8,0,0,0,.209-.526l.008-.437L38.383,9.6a.8.8,0,0,0-.111-.935L36.045,6.243l-.07-2.807a.805.805,0,0,0-.274-.585l-.675-.592.921-.551,3.922,1.72a.806.806,0,0,0,.366.067l3.255-.172.709.427L42.61,7.012a.8.8,0,0,0,.024.751L42.768,8l-.256.063a.8.8,0,0,0-.482,1.222l2.08,3.18a.8.8,0,0,0,.413.321l.347.119-.535,2.039a.8.8,0,0,0,.462.944l10.915,4.66a.8.8,0,0,0,1.046-.4l.892-1.932,1.817,1.48a.8.8,0,0,0,.508.181h2.239a.8.8,0,0,0,.8-.73l.1-1.07,2.955-1.891a.8.8,0,0,0,.235-.231l.171-.255,2.174-.057,1.124,1.655Z" transform="translate(-26.56 0)"/></g></g></svg>