<svg xmlns="http://www.w3.org/2000/svg" width="232.082" height="66.634" viewBox="0 0 232.082 66.634"><defs><style>.a{fill:#1d1d1d;}.b,.c{fill:none;stroke-width:3px;}.b{stroke:#4e67d1;stroke-miterlimit:10;}.c{stroke:#fc573b;stroke-linecap:round;stroke-linejoin:round;}</style></defs><g transform="translate(-34.519 -51.46)"><g transform="translate(113.826 54.175)"><path class="a" d="M373.915,73.157c0,3.1,1.08,5.045,4.322,5.045a5.279,5.279,0,0,0,2.991-.864l.362-.216a2.355,2.355,0,0,1,1.549-.54,2.27,2.27,0,0,1,2.378,2.162c0,2.089-3.639,3.855-7.459,3.855-6.306,0-9.189-3.756-9.189-9.44V66.022c0-5.693,2.883-9.442,9.189-9.442,3.82,0,7.459,1.768,7.459,3.857a2.27,2.27,0,0,1-2.378,2.162,2.338,2.338,0,0,1-1.549-.542l-.362-.214a5.3,5.3,0,0,0-2.991-.864c-3.242,0-4.322,1.946-4.322,5.045Z" transform="translate(-368.87 -56.578)"/><path class="a" d="M456.1,115.165h-8.966a2.263,2.263,0,0,1-2.413-2.2,2.306,2.306,0,0,1,2.413-2.2h8.973a2.3,2.3,0,0,1,2.378,2.2A2.261,2.261,0,0,1,456.1,115.165Z" transform="translate(-426.913 -98.046)"/><path class="a" d="M524.094,62.782l-2.848,1.726a3.814,3.814,0,0,1-2.125.758,2.073,2.073,0,0,1-2.308-2.092,2.214,2.214,0,0,1,1.118-2.017l7.142-4.181a2.628,2.628,0,0,1,1.409-.4A2.5,2.5,0,0,1,529.146,59v21.3a2.469,2.469,0,0,1-2.521,2.305,2.442,2.442,0,0,1-2.521-2.305Z" transform="translate(-482.08 -56.577)"/><path class="a" d="M607.472,72.321a7.026,7.026,0,0,1-3.892,1.08c-4.395,0-8.179-2.737-8.179-8.217,0-4.7,2.817-8.614,8.614-8.614,6.665,0,8.611,5.226,8.611,12.4,0,8.757-2.918,13.659-9.046,13.659-1.477,0-6.306-.289-6.592-2.817a2.054,2.054,0,0,1,2.233-2.233c1.19,0,2.235.648,3.928.683C606.575,78.338,607.221,75.708,607.472,72.321Zm.108-5.08c0-3.172-.648-6.09-3.756-6.09-2.559,0-3.423,1.909-3.423,3.991,0,2.559,1.333,3.756,3.521,3.756a5.588,5.588,0,0,0,3.639-1.225Z" transform="translate(-542.218 -56.57)"/></g><g transform="translate(114.835 91.857)"><path class="a" d="M378.213,235.218v6.592a2.526,2.526,0,0,1-5.043,0V221.057a2.753,2.753,0,0,1,2.817-2.6h5.289c6.775,0,9.189,4.038,9.189,8.433,0,5.334-3.6,8.325-9.189,8.325Zm0-4.578h3.064c2.7,0,4.144-1.188,4.144-3.782,0-1.878-.756-3.82-4.144-3.82h-3.064Z" transform="translate(-373.17 -218.136)"/><path class="a" d="M473.586,233.018l4.93,7.423c1.188,1.8-.578,3.712-2.2,3.712a2.451,2.451,0,0,1-2.127-1.117l-6.055-9.475H465.7v8.25a2.539,2.539,0,0,1-2.559,2.381,2.449,2.449,0,0,1-2.486-2.381V221.057a2.71,2.71,0,0,1,2.737-2.6h6.266c6.775,0,8.938,3.857,8.938,7.639A6.791,6.791,0,0,1,473.586,233.018Zm-4.071-9.971H465.7v5.982h4.036c2.486,0,3.82-1.045,3.82-2.921C473.55,224.587,472.792,223.047,469.515,223.047Z" transform="translate(-440.113 -218.136)"/><path class="a" d="M551.51,233.657v-7.135c0-5.118,2.629-9.442,9.37-9.442s9.367,4.324,9.367,9.442v7.135c0,5.261-3.134,9.478-9.367,9.478S551.51,238.918,551.51,233.657Zm5.045-7.135v7.135c0,2.883,1.369,4.9,4.324,4.9s4.324-2.017,4.324-4.9v-7.135c0-2.921-1.155-4.864-4.324-4.864S556.555,223.6,556.555,226.522Z" transform="translate(-509.642 -217.08)"/><path class="a" d="M649.7,233.657c0,3.1,1.08,5.045,4.324,5.045a6.1,6.1,0,0,0,2.989-.747v-5.634h-1.878a2.27,2.27,0,0,1,0-4.54h3.928c1.657,0,2.956.794,2.956,2.521v7.963c0,3.388-4.461,4.829-8.179,4.829-6.306,0-9.189-3.756-9.189-9.44v-7.132c0-5.693,2.883-9.442,9.189-9.442,3.82,0,7.459,1.765,7.459,3.857a2.27,2.27,0,0,1-2.378,2.162,2.343,2.343,0,0,1-1.549-.542l-.362-.216a5.584,5.584,0,0,0-2.989-.864c-3.244,0-4.324,1.946-4.324,5.045Z" transform="translate(-580.915 -217.08)"/><path class="a" d="M747.851,233.018l4.93,7.423c1.188,1.8-.578,3.712-2.2,3.712a2.446,2.446,0,0,1-2.113-1.117l-6.055-9.475h-2.451v8.25a2.537,2.537,0,0,1-2.557,2.381,2.472,2.472,0,0,1-2.486-2.381V221.057a2.709,2.709,0,0,1,2.737-2.6h6.271c6.773,0,8.935,3.857,8.935,7.639A6.809,6.809,0,0,1,747.851,233.018Zm-4.069-9.971h-3.82v5.982H744c2.489,0,3.82-1.045,3.82-2.921C747.818,224.587,747.062,223.047,743.782,223.047Z" transform="translate(-649.993 -218.136)"/><path class="a" d="M829.362,241.439a2.693,2.693,0,0,1-2.378,1.7,2.417,2.417,0,0,1-2.594-2.308,3.049,3.049,0,0,1,.108-.791l7.027-20.5c.47-1.409,1.19-2.451,2.92-2.451s2.449,1.01,2.953,2.451l7.027,20.5a2.952,2.952,0,0,1,.108.791,2.378,2.378,0,0,1-2.594,2.308,2.77,2.77,0,0,1-2.451-1.7l-1.261-3.639h-7.674Zm5.735-13.91a22.564,22.564,0,0,1-.648-3.522,22.489,22.489,0,0,1-.65,3.522l-1.909,6.163h5.045Z" transform="translate(-718.458 -217.08)"/><path class="a" d="M944.581,240.864a2.432,2.432,0,0,1-2.486,2.27,2.5,2.5,0,0,1-2.557-2.27v-12.4l-4.108,8.078a2.724,2.724,0,0,1-4.726,0l-4.111-8.078v12.4a2.483,2.483,0,0,1-2.582,2.27,2.376,2.376,0,0,1-2.451-2.27V219.458a2.433,2.433,0,0,1,2.6-2.378,2.625,2.625,0,0,1,2.521,1.409l6.414,12.72,6.414-12.757a2.532,2.532,0,0,1,2.486-1.371,2.465,2.465,0,0,1,2.582,2.378Z" transform="translate(-792.816 -217.08)"/></g><g transform="translate(35.58 57.833)"><line class="b" y1="4.216" x2="4.216" transform="translate(27.872 37.8)"/><g transform="translate(0)"><line class="b" y1="4.214" x2="4.214" transform="translate(32.532 42.46)"/><path class="b" d="M113.271,182.072a3.226,3.226,0,0,1-.6,3.735l-9.571,9.574a3.233,3.233,0,0,1-4.572,0h0L71.13,168" transform="translate(-62.784 -145.498)"/><line class="b" x2="2.291" y2="2.291" transform="translate(22.491 8.346)"/><path class="b" d="M68.666,88.786l-16.453,16.45a2.515,2.515,0,0,1-3.556,0l0,0h0a2.515,2.515,0,0,1,0-3.556l0,0L65.1,85.227a2.519,2.519,0,0,1,3.561,0h0A2.519,2.519,0,0,1,68.666,88.786Z" transform="translate(-45.02 -81.593)"/><line class="b" y1="4.214" x2="4.214" transform="translate(23.214 33.142)"/><path class="b" d="M220.591,250.9l3.263,3.263a2.054,2.054,0,0,1,0,2.9l-3.364,3.362a2.05,2.05,0,0,1-2.9,0h0l-3.261-3.261" transform="translate(-172.365 -208.935)"/><line class="b" x2="9.393" y2="9.393" transform="translate(49.808 49.808)"/><line class="b" x1="6.261" y1="6.259" transform="translate(5.599 5.599)"/><line class="b" y1="11.198" x2="11.198"/><line class="b" y1="4.214" x2="4.214" transform="translate(13.896 23.824)"/><line class="b" y1="4.214" x2="4.216" transform="translate(18.554 28.484)"/></g></g><g transform="translate(64.2 53.44)"><circle class="c" cx="13.175" cy="13.175" r="13.175" transform="translate(0 18.774) rotate(-45)"/><path class="c" d="M257.935,56.17l-3.345,8.081" transform="translate(-231.794 -55.529)"/><path class="c" d="M207.557,176.84l-3.477,8.4" transform="translate(-193.142 -147.87)"/><path class="c" d="M263,53.76l2.74,1.134" transform="translate(-238.229 -53.685)"/><path class="c" d="M198.24,210.21l2.74,1.125" transform="translate(-188.673 -173.405)"/><path class="c" d="M160.53,101.82l7.947,3.287" transform="translate(-159.816 -90.462)"/><path class="c" d="M280.09,151.31l7.982,3.306" transform="translate(-251.307 -128.333)"/><path class="c" d="M158.11,98.735,159.244,96" transform="translate(-157.964 -86.008)"/><path class="c" d="M311.69,162.3l1.134-2.737" transform="translate(-275.488 -134.646)"/><path class="c" d="M209.92,66.73c1.533,3.7,1.225,2.956,2.759,6.656" transform="translate(-197.611 -63.61)"/><path class="c" d="M252.71,171.63c1.533,3.7,1.312,3.172,2.848,6.872" transform="translate(-230.355 -143.883)"/><path class="c" d="M204.09,65.446l2.737-1.136" transform="translate(-193.149 -61.758)"/><path class="c" d="M259,199.624l2.737-1.134" transform="translate(-235.168 -164.437)"/><path class="c" d="M160.16,153.254l8.686-3.6" transform="translate(-159.533 -127.063)"/><path class="c" d="M277.09,103.494,286.9,99.43" transform="translate(-249.011 -88.633)"/><path class="c" d="M158.876,161.89l-1.136-2.74" transform="translate(-157.681 -134.333)"/><path class="c" d="M317.586,96.33q-.57-1.369-1.136-2.74" transform="translate(-279.131 -84.164)"/><path class="c" d="M236.79,53.44v5.6" transform="translate(-218.173 -53.44)"/><path class="c" d="M236.88,189.74v4.93" transform="translate(-218.241 -157.741)"/><path class="c" d="M230.48,53.44h2.965" transform="translate(-213.344 -53.44)"/><path class="c" d="M230.57,210.78h2.965" transform="translate(-213.413 -173.842)"/><path class="c" d="M163.58,133.53h4.026" transform="translate(-162.15 -114.727)"/><path class="c" d="M293,133.4h4.984" transform="translate(-261.186 -114.628)"/><path class="c" d="M163.59,130.185V127.22" transform="translate(-162.158 -109.899)"/><path class="c" d="M314.23,130.045V127.08" transform="translate(-277.432 -109.792)"/><path class="c" d="M279.592,80.32l-3.122,3.125" transform="translate(-248.537 -74.009)"/><path class="c" d="M185.7,173.12l-3.522,3.522" transform="translate(-176.383 -145.023)"/><path class="c" d="M285.3,75.86l2.1,2.1" transform="translate(-255.294 -70.597)"/><path class="c" d="M177.71,183.67q1.047,1.049,2.1,2.1" transform="translate(-172.963 -153.096)"/><path class="c" d="M182.15,78.72q1.761,1.765,3.522,3.522" transform="translate(-176.36 -72.785)"/><path class="c" d="M276.52,173.14l4.132,4.127" transform="translate(-248.575 -145.038)"/><path class="c" d="M177.68,76.356l2.1-2.1" transform="translate(-172.94 -69.372)"/><path class="c" d="M289.66,188.356l2.094-2.1" transform="translate(-258.63 -155.078)"/><circle class="c" cx="5.308" cy="5.308" r="5.308" transform="translate(13.326 13.468)"/></g></g></svg>