<svg width="111" height="62" viewBox="0 0 111 62" fill="none" xmlns="http://www.w3.org/2000/svg">
<g clip-path="url(#clip0_456_4864)">
<path opacity="0.1" d="M111 40.52C111.006 43.7413 110.129 46.9022 108.466 49.6575C108.466 53.0271 106.9 56.0813 104.359 58.3073C103.724 58.8637 103.039 59.3614 102.314 59.7945C102.285 59.813 102.255 59.8305 102.225 59.8481C102.17 59.8802 102.116 59.9123 102.061 59.9454L102.009 59.9756C101.778 60.107 101.541 60.2335 101.299 60.3522C99.0728 61.4504 96.6233 62.0167 94.1424 62.0069H21.0716C20.4894 62.0069 19.9124 61.9835 19.3406 61.9368C17.3085 61.7762 15.3117 61.3124 13.4161 60.5605C13.0461 60.4139 12.6832 60.2562 12.3274 60.0875C12.158 60.0077 11.9901 59.9256 11.8239 59.8412C11.72 59.7887 11.6162 59.7342 11.5134 59.6797C10.8893 59.3468 10.2848 58.9783 9.70283 58.5759C9.17096 58.2108 8.65919 57.817 8.16979 57.3963C4.86793 54.5542 2.82549 50.6211 2.82549 46.2811C0.97474 43.4223 -0.0069662 40.0851 3.72112e-05 36.6764C3.72112e-05 27.027 7.68853 19.2045 17.174 19.2045C17.4651 19.2045 17.7562 19.2132 18.0472 19.2288C18.089 19.2288 18.1297 19.2288 18.1714 19.2347C19.7705 16.5006 21.908 13.9885 24.4783 11.7771C31.4876 5.75233 41.7318 1.95447 53.1432 1.95447C62.7315 1.95447 71.4961 4.63594 78.2094 9.06646C80.7534 7.6239 83.6267 6.86769 86.549 6.87164C96.0325 6.87164 103.723 14.6942 103.723 24.3436C103.722 24.9541 103.689 25.5642 103.626 26.1715C105.912 27.7947 107.775 29.9457 109.059 32.443C110.342 34.9402 111.008 37.7105 111 40.52V40.52Z" fill="#6AD590"/>
<path opacity="0.1" d="M88.3624 26.6659V25.6215C89.1767 25.2899 89.8507 24.6845 90.2691 23.9092C90.6875 23.1339 90.8242 22.2368 90.6557 21.3715C90.4873 20.5062 90.0242 19.7266 89.3458 19.1661C88.6674 18.6056 87.8159 18.2991 86.937 18.2991C86.0581 18.2991 85.2066 18.6056 84.5282 19.1661C83.8498 19.7266 83.3867 20.5062 83.2183 21.3715C83.0499 22.2368 83.1865 23.1339 83.6049 23.9092C84.0233 24.6845 84.6974 25.2899 85.5117 25.6215V26.6659C84.5624 26.9306 83.7047 27.4538 83.0336 28.1774C82.3229 27.1077 81.2526 26.3299 80.018 25.9855V24.9402C80.8323 24.6085 81.5063 24.0032 81.9247 23.2279C82.3431 22.4526 82.4798 21.5555 82.3113 20.6902C82.1429 19.8249 81.6798 19.0453 81.0014 18.4848C80.323 17.9243 79.4715 17.6178 78.5926 17.6178C77.7137 17.6178 76.8622 17.9243 76.1838 18.4848C75.5054 19.0453 75.0423 19.8249 74.8739 20.6902C74.7055 21.5555 74.8421 22.4526 75.2605 23.2279C75.6789 24.0032 76.353 24.6085 77.1673 24.9402V25.9846C76.3232 26.2196 75.5497 26.6595 74.9152 27.2654C74.2072 26.3121 73.2034 25.6218 72.0617 25.3032V24.2589C72.876 23.9272 73.55 23.3219 73.9684 22.5466C74.3868 21.7713 74.5235 20.8742 74.355 20.0089C74.1866 19.1436 73.7235 18.364 73.0451 17.8035C72.3667 17.243 71.5152 16.9365 70.6363 16.9365C69.7574 16.9365 68.9059 17.243 68.2275 17.8035C67.5491 18.364 67.086 19.1436 66.9176 20.0089C66.7492 20.8742 66.8858 21.7713 67.3042 22.5466C67.7226 23.3219 68.3967 23.9272 69.211 24.2589V25.3032C68.2397 25.5748 67.3651 26.1167 66.6882 26.8664C66.3866 26.0904 65.9088 25.3957 65.2929 24.8371C64.677 24.2786 63.9399 23.8717 63.1399 23.6486V22.6042C63.9543 22.2726 64.6283 21.6673 65.0467 20.892C65.4651 20.1166 65.6017 19.2195 65.4333 18.3542C65.2649 17.489 64.8018 16.7093 64.1234 16.1488C63.445 15.5883 62.5935 15.2819 61.7146 15.2819C60.8357 15.2819 59.9842 15.5883 59.3058 16.1488C58.6274 16.7093 58.1643 17.489 57.9959 18.3542C57.8274 19.2195 57.9641 20.1166 58.3825 20.892C58.8009 21.6673 59.4749 22.2726 60.2893 22.6042V23.6486C59.2495 23.939 58.322 24.5388 57.6291 25.3689C56.9362 26.199 56.5105 27.2203 56.4081 28.2981C55.9184 27.9571 55.3749 27.7014 54.8004 27.5419V26.4975C55.6147 26.1658 56.2888 25.5605 56.7071 24.7852C57.1255 24.0099 57.2622 23.1128 57.0938 22.2475C56.9253 21.3822 56.4623 20.6026 55.7839 20.0421C55.1055 19.4816 54.2539 19.1751 53.375 19.1751C52.4962 19.1751 51.6446 19.4816 50.9662 20.0421C50.2878 20.6026 49.8248 21.3822 49.6563 22.2475C49.4879 23.1128 49.6246 24.0099 50.0429 24.7852C50.4613 25.5605 51.1354 26.1658 51.9497 26.4975V27.5419C51.225 27.7443 50.5509 28.0977 49.9714 28.579C49.392 29.0604 48.9202 29.6588 48.5867 30.3353C48.1371 30.0455 47.6465 29.8256 47.1313 29.6831V28.6388C47.9456 28.3071 48.6197 27.7018 49.038 26.9265C49.4564 26.1512 49.5931 25.2541 49.4247 24.3888C49.2562 23.5235 48.7932 22.7439 48.1148 22.1834C47.4364 21.6229 46.5848 21.3164 45.7059 21.3164C44.8271 21.3164 43.9755 21.6229 43.2971 22.1834C42.6187 22.7439 42.1557 23.5235 41.9872 24.3888C41.8188 25.2541 41.9555 26.1512 42.3739 26.9265C42.7922 27.7018 43.4663 28.3071 44.2806 28.6388V29.6831C43.7945 29.8177 43.3302 30.0216 42.9018 30.2885C42.5661 29.6231 42.0958 29.0352 41.521 28.5623C40.9461 28.0894 40.2793 27.7419 39.5631 27.5419V26.4975C40.3774 26.1658 41.0515 25.5605 41.4699 24.7852C41.8882 24.0099 42.0249 23.1128 41.8565 22.2475C41.688 21.3822 41.225 20.6026 40.5466 20.0421C39.8682 19.4816 39.0166 19.1751 38.1378 19.1751C37.2589 19.1751 36.4073 19.4816 35.7289 20.0421C35.0505 20.6026 34.5875 21.3822 34.4191 22.2475C34.2506 23.1128 34.3873 24.0099 34.8057 24.7852C35.2241 25.5605 35.8981 26.1658 36.7124 26.4975V27.5419C35.9416 27.757 35.2287 28.1429 34.6263 28.6711C34.024 29.1994 33.5475 29.8566 33.232 30.5942C32.6894 30.1763 32.0718 29.867 31.4128 29.6831V28.6388C32.2271 28.3071 32.9011 27.7018 33.3195 26.9265C33.7379 26.1512 33.8746 25.2541 33.7061 24.3888C33.5377 23.5235 33.0746 22.7439 32.3962 22.1834C31.7178 21.6229 30.8663 21.3164 29.9874 21.3164C29.1085 21.3164 28.257 21.6229 27.5786 22.1834C26.9002 22.7439 26.4371 23.5235 26.2687 24.3888C26.1003 25.2541 26.2369 26.1512 26.6553 26.9265C27.0737 27.7018 27.7478 28.3071 28.5621 28.6388V29.6831C27.4376 29.9958 26.4462 30.6695 25.7398 31.6012C25.0334 32.5329 24.6509 33.6712 24.6509 34.8417V58.9799H35.3181V56.8386H40.3636V58.9799H51.0367V56.8386H58.7019V52.9453H65.2998V54.5999H73.2561V55.2813H81.6005V55.9626H92.2736V31.8244C92.2735 30.6539 91.891 29.5156 91.1846 28.5839C90.4782 27.6523 89.4869 26.9785 88.3624 26.6659Z" fill="#6AD590"/>
<path d="M47.6196 16.449H56.4908C58.6606 16.4488 60.8092 16.8774 62.8138 17.7103C64.8185 18.5431 66.6399 19.7639 68.1742 21.3029C69.7085 22.8419 70.9256 24.669 71.756 26.6799C72.5864 28.6907 73.0137 30.846 73.0137 33.0225V55.4788H31.0977V33.0225C31.0977 28.627 32.8384 24.4114 35.9368 21.3033C39.0353 18.1951 43.2377 16.449 47.6196 16.449Z" fill="#2F2E41"/>
<path opacity="0.2" d="M48.5898 17.3522H55.5205C57.6903 17.352 59.8388 17.7806 61.8435 18.6135C63.8481 19.4463 65.6696 20.6671 67.2039 22.2061C68.7382 23.7451 69.9553 25.5722 70.7856 27.5831C71.616 29.5939 72.0434 31.7492 72.0434 33.9257V54.5746H32.0679V33.9257C32.0679 29.5302 33.8086 25.3146 36.907 22.2065C40.0055 19.0983 44.2079 17.3522 48.5898 17.3522Z" fill="black"/>
<path d="M101.297 58.6509V60.3503C99.0707 61.4484 96.6212 62.0147 94.1402 62.0049H21.0714C20.4892 62.0049 19.9122 61.9815 19.3404 61.9348C17.3083 61.7743 15.3115 61.3104 13.4159 60.5585C13.0459 60.4119 12.683 60.2542 12.3272 60.0855C12.1578 60.0057 11.9899 59.9236 11.8237 59.8393C11.7198 59.7867 11.616 59.7322 11.5132 59.6777C10.8892 59.3454 10.2847 58.9776 9.70264 58.5759V53.9605C9.70264 53.2144 9.99807 52.499 10.5239 51.9715C11.0498 51.4439 11.763 51.1476 12.5067 51.1476H93.1593C93.8377 51.1488 94.4927 51.3968 95.0028 51.8454L100.339 56.5368C100.64 56.8004 100.881 57.1254 101.046 57.49C101.211 57.8546 101.297 58.2504 101.297 58.6509Z" fill="#2F2E41"/>
<path d="M46.8324 21.9783C44.7166 22.1185 42.6088 22.3456 40.5091 22.6597C39.9124 22.7492 39.3069 22.8485 38.7626 23.1132C38.3396 23.3354 37.9497 23.6159 37.6041 23.9464C36.0455 25.3471 34.7905 27.0543 33.917 28.9619C33.3766 30.1444 32.9885 31.3951 32.4791 32.5874C30.6656 36.8457 27.3764 40.3282 25.462 44.5417C25.0477 45.4537 24.6984 46.4056 24.5597 47.3974C24.4161 48.4232 24.5791 49.6204 25.4193 50.22C25.8074 50.4954 26.279 50.6093 26.7409 50.7066C32.5549 51.9982 38.4366 52.9617 44.3582 53.5925C43.7169 52.9715 43.5024 52.0089 43.5869 51.1193C43.6713 50.2297 44.0196 49.3888 44.3631 48.5644C41.0117 47.8227 37.6688 47.044 34.3343 46.2284C33.8365 46.1067 33.2388 45.878 33.1777 45.368C33.1466 45.1081 33.2747 44.858 33.4009 44.6293C34.823 42.046 36.5283 39.6302 38.4851 37.4268C38.4851 40.1579 38.3503 43.2423 38.3503 45.9744H69.797C69.4188 44.4156 69.1965 42.8228 69.1334 41.2197C68.9868 35.9872 70.7431 30.7946 70.287 25.5728C70.2443 25.091 70.1783 24.5946 69.927 24.1819C69.4933 23.4695 68.6278 23.1745 67.8322 22.9312C64.7816 22.0007 61.667 21.0595 58.4787 21.1325C57.5307 21.1549 56.5867 21.2659 55.6445 21.3778C52.7735 21.7175 49.7171 21.7866 46.8324 21.9783Z" fill="#6AD590"/>
<path d="M32.1045 53.3687L34.3943 60.7201C34.409 60.7667 34.4381 60.8074 34.4773 60.8362C34.5166 60.8651 34.564 60.8807 34.6127 60.8807H44.4387L42.11 52.3156L32.3044 53.0718C32.2702 53.0746 32.2371 53.0851 32.2075 53.1025C32.178 53.1199 32.1526 53.1437 32.1335 53.1722C32.1143 53.2007 32.1017 53.2331 32.0967 53.2671C32.0917 53.3011 32.0943 53.3358 32.1045 53.3687Z" fill="#656478"/>
<path d="M48.9021 25.1397C48.4751 25.3859 47.9774 25.4745 47.4922 25.5592L44.3611 26.1042C43.7518 26.2103 43.1105 26.331 42.6408 26.7349C41.6803 27.5593 41.8879 29.0767 42.179 30.3109L42.7612 32.787C43.1997 34.648 43.648 36.5313 44.5474 38.2171C46.1183 41.1594 49 43.2783 52.169 44.2993C53.3013 44.6643 54.4977 44.9018 55.6795 44.7714C57.9945 44.5164 59.9749 42.8608 61.1955 40.8703C62.4161 38.8799 62.9973 36.5712 63.53 34.2956C64.0413 32.1173 64.5274 29.9079 64.4944 27.6693C64.4847 26.9724 64.4149 26.2444 64.0442 25.6536C63.2321 24.3561 61.3915 24.2588 59.8827 24.4983C59.6479 24.5362 59.4044 24.5771 59.1783 24.506C58.4991 24.2939 58.4836 23.3585 58.1925 22.7093C57.6423 21.4849 56.0103 21.2678 54.6762 21.3788C53.3421 21.4897 51.2647 21.6328 50.1023 22.391C48.9845 23.1161 50.2129 24.3815 48.9021 25.1397Z" fill="#FBBEBE"/>
<path opacity="0.1" d="M48.9021 25.1397C48.4751 25.3859 47.9774 25.4745 47.4922 25.5592L44.3611 26.1042C43.7518 26.2103 43.1105 26.331 42.6408 26.7349C41.6803 27.5593 41.8879 29.0767 42.179 30.3109L42.7612 32.787C43.1997 34.648 43.648 36.5313 44.5474 38.2171C46.1183 41.1594 49 43.2783 52.169 44.2993C53.3013 44.6643 54.4977 44.9018 55.6795 44.7714C57.9945 44.5164 59.9749 42.8608 61.1955 40.8703C62.4161 38.8799 62.9973 36.5712 63.53 34.2956C64.0413 32.1173 64.5274 29.9079 64.4944 27.6693C64.4847 26.9724 64.4149 26.2444 64.0442 25.6536C63.2321 24.3561 61.3915 24.2588 59.8827 24.4983C59.6479 24.5362 59.4044 24.5771 59.1783 24.506C58.4991 24.2939 58.4836 23.3585 58.1925 22.7093C57.6423 21.4849 56.0103 21.2678 54.6762 21.3788C53.3421 21.4897 51.2647 21.6328 50.1023 22.391C48.9845 23.1161 50.2129 24.3815 48.9021 25.1397Z" fill="black"/>
<path d="M46.3104 27.9291C46.7839 28.9258 47.1391 29.9828 47.7115 30.926C48.1666 31.6754 48.7497 32.3363 49.3299 32.9933C50.8329 34.6985 52.3553 36.4174 54.2153 37.7158C54.9856 33.7463 56.8464 30.0718 59.5877 27.1067C60.3892 26.2434 61.3925 25.3927 62.5684 25.4248C63.2981 25.4452 63.9715 25.8083 64.5789 26.2122C65.2581 26.6629 65.9004 27.1855 66.3884 27.8347C67.1598 28.8684 67.4926 30.1775 67.5528 31.4671C67.6129 32.7568 67.413 34.0435 67.2151 35.3185L66.1963 41.9088C66.1371 42.2904 66.0547 42.7118 65.7442 42.9405C65.5678 43.0526 65.3691 43.1244 65.162 43.1508C61.4584 43.8739 57.6414 43.4048 53.8679 43.3678C49.6957 43.3279 45.4081 43.8048 41.4561 42.4733C41.2495 42.4033 41.035 42.3225 40.8953 42.156C40.8035 42.0305 40.7376 41.8879 40.7013 41.7365C39.7805 38.7465 40.5188 35.5336 41.0651 32.4531C41.4976 30.0119 41.8056 27.5501 41.9878 25.0773C42.0043 24.8544 44.4456 25.3469 44.7182 25.5046C45.4605 25.9455 45.9534 27.1777 46.3104 27.9291Z" fill="#6AD590"/>
<g opacity="0.2">
<path opacity="0.2" d="M16.1912 52.2465C16.1912 52.2913 16.1864 52.3351 16.1815 52.3779C15.8115 52.2312 15.4486 52.0736 15.0929 51.9049C14.9028 51.8798 14.7261 51.7933 14.5893 51.6586C14.4855 51.606 14.3817 51.5515 14.2788 51.497C14.3021 51.4481 14.3283 51.4006 14.3574 51.3549C14.5573 51.0376 14.861 50.8391 15.1957 50.8498C15.5305 50.8605 15.8206 51.0775 16.0001 51.4055C16.1374 51.6638 16.2034 51.9541 16.1912 52.2465Z" fill="#3F3D56"/>
<path opacity="0.2" d="M16.2433 50.5801C16.2367 50.872 16.1526 51.1569 15.9998 51.4055C15.7999 51.7218 15.4962 51.9204 15.1614 51.9096L15.0925 51.9048C14.9025 51.8797 14.7257 51.7933 14.589 51.6585C14.4962 51.5702 14.418 51.4677 14.3571 51.3549C14.2232 51.0958 14.1577 50.8066 14.1669 50.5149C14.176 50.2231 14.2596 49.9387 14.4095 49.6885C14.6093 49.3712 14.913 49.1727 15.2478 49.1834C15.5825 49.1941 15.8727 49.4112 16.0522 49.7392C16.1894 49.9974 16.2554 50.2877 16.2433 50.5801Z" fill="#3F3D56"/>
<path opacity="0.2" d="M16.296 48.9164C16.3197 48.1636 15.8744 47.5387 15.3013 47.5205C14.7282 47.5024 14.2444 48.0978 14.2207 48.8506C14.197 49.6033 14.6423 50.2282 15.2154 50.2464C15.7885 50.2646 16.2723 49.6691 16.296 48.9164Z" fill="#3F3D56"/>
<path opacity="0.2" d="M16.3488 47.25C16.3725 46.4973 15.9271 45.8723 15.354 45.8542C14.7809 45.836 14.2971 46.4315 14.2734 47.1842C14.2497 47.9369 14.6951 48.5618 15.2681 48.58C15.8412 48.5982 16.325 48.0027 16.3488 47.25Z" fill="#3F3D56"/>
<path opacity="0.2" d="M16.401 45.5837C16.4247 44.831 15.9794 44.206 15.4063 44.1879C14.8332 44.1697 14.3494 44.7652 14.3257 45.5179C14.3019 46.2707 14.7473 46.8956 15.3204 46.9138C15.8935 46.9319 16.3773 46.3364 16.401 45.5837Z" fill="#3F3D56"/>
<path opacity="0.2" d="M11.8376 34.0221C11.7009 33.8365 11.5777 33.6414 11.4689 33.4381L14.2109 33.0751L11.2554 33.005C10.992 32.3783 10.8588 31.7043 10.864 31.0241C10.8692 30.344 11.0126 29.6721 11.2855 29.0495L15.1783 31.2336L11.6125 28.4266C11.9722 27.843 12.448 27.34 13.0102 26.9491C13.5724 26.5583 14.2089 26.2879 14.8799 26.1549C15.5509 26.0219 16.2421 26.0291 16.9103 26.176C17.5784 26.323 18.2092 26.6066 18.7631 27.0091C19.3171 27.4116 19.7824 27.9243 20.13 28.5153C20.4775 29.1063 20.6999 29.7628 20.7831 30.4438C20.8664 31.1249 20.8087 31.8159 20.6138 32.4736C20.4189 33.1313 20.0909 33.7416 19.6503 34.2664C19.8626 34.5552 20.0432 34.8662 20.1888 35.194L16.592 36.9304L20.4081 35.779C20.6485 36.5741 20.6874 37.4168 20.5214 38.2309C20.3554 39.0449 19.9896 39.8046 19.4572 40.4411C20.0114 41.1953 20.3428 42.0907 20.4135 43.025C20.4842 43.9592 20.2913 44.8946 19.8569 45.724C19.4225 46.5535 18.7641 47.2435 17.9571 47.7152C17.1501 48.1869 16.227 48.4212 15.2935 48.3913C14.3599 48.3614 13.4536 48.0685 12.6782 47.5462C11.9028 47.0238 11.2897 46.2931 10.9089 45.4376C10.5281 44.582 10.395 43.6362 10.5249 42.7084C10.6549 41.7806 11.0425 40.9082 11.6435 40.191C10.9816 39.2898 10.6409 38.1917 10.6761 37.0729C10.7113 35.9541 11.1203 34.8796 11.8376 34.0221Z" fill="#6AD590"/>
<path opacity="0.1" d="M20.6185 37.3869C20.5843 38.5066 20.174 39.5818 19.4542 40.4382C20.0092 41.1921 20.3413 42.0875 20.4127 43.0219C20.4841 43.9563 20.2918 44.892 19.8578 45.7218C19.4238 46.5517 18.7656 47.2423 17.9587 47.7145C17.1517 48.1866 16.2285 48.4214 15.2948 48.3918C14.361 48.3623 13.4544 48.0696 12.6787 47.5473C11.903 47.0251 11.2896 46.2943 10.9086 45.4386C10.5276 44.5829 10.3945 43.6369 10.5245 42.7089C10.6544 41.7809 11.0422 40.9083 11.6434 40.191C11.0001 39.3209 20.636 36.8272 20.6185 37.3869Z" fill="black"/>
</g>
<path opacity="0.1" d="M6.59969 15.8465C7.75878 15.8465 8.69841 14.904 8.69841 13.7413C8.69841 12.5786 7.75878 11.636 6.59969 11.636C5.4406 11.636 4.50098 12.5786 4.50098 13.7413C4.50098 14.904 5.4406 15.8465 6.59969 15.8465Z" fill="#6AD590"/>
<path opacity="0.1" d="M15.3468 4.21055C16.5059 4.21055 17.4455 3.26799 17.4455 2.10527C17.4455 0.942564 16.5059 0 15.3468 0C14.1877 0 13.248 0.942564 13.248 2.10527C13.248 3.26799 14.1877 4.21055 15.3468 4.21055Z" fill="#6AD590"/>
<path opacity="0.1" d="M14.6359 13.6273C16.5785 13.6273 18.1532 12.0477 18.1532 10.0991C18.1532 8.15046 16.5785 6.5708 14.6359 6.5708C12.6934 6.5708 11.1187 8.15046 11.1187 10.0991C11.1187 12.0477 12.6934 13.6273 14.6359 13.6273Z" fill="#6AD590"/>
<path d="M52.686 26.2308C57.1873 26.2308 60.8363 22.5704 60.8363 18.055C60.8363 13.5396 57.1873 9.87915 52.686 9.87915C48.1847 9.87915 44.5356 13.5396 44.5356 18.055C44.5356 22.5704 48.1847 26.2308 52.686 26.2308Z" fill="#FBBEBE"/>
<path d="M49.3756 2.01186C47.2012 2.28828 44.8541 2.65328 43.3172 4.22031C42.4575 5.09629 41.9539 6.26427 41.5396 7.42056C40.8973 9.22119 40.4189 11.1191 40.5693 13.0298C40.7032 14.7389 41.3339 16.487 40.8236 18.1241C40.5887 18.8774 40.1279 19.5354 39.7698 20.2371C39.1062 21.5404 38.7937 23.0013 38.6792 24.4603C38.5997 25.4638 38.6152 26.4965 38.9441 27.4474C39.2944 28.4597 39.9775 29.3211 40.4102 30.3002C41.0506 31.7466 41.1146 33.3739 41.1641 34.9556C41.2136 36.5372 41.2553 38.1081 41.2922 39.6839C41.3155 40.6747 41.3174 41.7357 40.7712 42.562C42.7884 41.7512 44.8337 40.9239 46.5598 39.6002C48.286 38.2765 49.6832 36.3678 49.9063 34.1993C50.0868 32.4415 49.4949 30.709 48.9846 29.0174C47.7232 24.8321 46.9082 20.3705 47.8261 16.0967C48.1569 14.5579 48.9613 12.84 50.505 12.5567C51.4471 12.3845 52.3873 12.8156 53.2363 13.2614C55.2429 14.3145 57.3115 15.6772 58.0586 17.8214C58.7378 19.7602 58.1663 21.92 57.2824 23.7712C56.3985 25.6225 55.1953 27.3248 54.5084 29.2597C53.4537 32.2283 53.7506 35.704 55.5029 38.3193C57.2552 40.9346 60.4931 42.5435 63.6067 42.1211C63.3632 41.066 62.5995 40.2134 62.1901 39.2109C61.4459 37.3898 61.9475 35.2953 62.748 33.4985C63.5485 31.7018 64.641 30.0267 65.1417 28.119C65.4949 26.7758 65.5375 25.3723 65.5356 23.9834C65.5356 21.7974 65.4279 19.6103 65.2183 17.434C65.0087 15.2577 64.6886 13.0541 63.9977 10.9605C63.4427 9.28153 62.6345 7.65805 61.4255 6.37036C60.1389 4.99896 58.4642 4.06944 56.8196 3.15842C55.8357 2.61532 54.8305 2.0654 53.7263 1.86197C52.8531 1.70138 51.9352 1.47265 51.0445 1.45805C50.439 1.44929 49.8025 1.58069 49.3756 2.01186Z" fill="#2F2E41"/>
<path d="M64.7156 12.5644L59.472 11.5439C59.3195 11.5142 59.1718 11.6142 59.1422 11.7672L56.63 24.7562C56.6004 24.9092 56.7 25.0574 56.8526 25.087L62.0962 26.1076C62.2488 26.1373 62.3964 26.0373 62.426 25.8843L64.9383 12.8953C64.9679 12.7422 64.8682 12.5941 64.7156 12.5644Z" fill="#656478"/>
<path d="M65.1121 12.6416L59.8685 11.621C59.716 11.5913 59.5683 11.6913 59.5387 11.8444L57.0264 24.8333C56.9968 24.9864 57.0965 25.1345 57.2491 25.1642L62.4927 26.1847C62.6452 26.2144 62.7929 26.1144 62.8225 25.9614L65.3348 12.9724C65.3644 12.8194 65.2647 12.6712 65.1121 12.6416Z" fill="#3F3D56"/>
<path d="M62.3118 15.1403C62.4143 14.6099 62.3205 14.1455 62.1022 14.103C61.8839 14.0606 61.6238 14.456 61.5212 14.9864C61.4186 15.5167 61.5124 15.9811 61.7307 16.0236C61.9491 16.0661 62.2092 15.6706 62.3118 15.1403Z" fill="#6AD590"/>
<path d="M63.5534 19.5636C63.2972 19.109 63.0236 18.6389 62.5919 18.3479C62.3437 18.1952 62.0769 18.0752 61.7982 17.9907C60.858 17.6608 59.9022 17.3279 58.9077 17.2753C58.7457 17.2675 58.5603 17.2753 58.4546 17.3999C58.2372 17.6559 58.5817 18.0043 58.8796 18.1591L61.249 19.3903L59.0649 19.1587C58.7476 19.1246 58.2954 19.2112 58.3187 19.5305C58.3343 19.7398 58.5632 19.8536 58.7612 19.9198C60.1632 20.4065 61.7836 20.788 62.5511 22.0611C61.5284 21.9638 60.4834 21.8664 59.4811 22.0923C59.2065 22.1545 58.9222 22.2509 58.7427 22.4679C58.5632 22.685 58.5429 23.0519 58.7689 23.2242C58.9087 23.3284 59.0969 23.3313 59.2716 23.3215C59.9828 23.2875 60.7124 23.1454 61.3955 23.3488C62.0786 23.5522 62.685 24.2705 62.4492 24.9441C63.0547 24.9986 63.7707 24.9441 64.3306 24.6822C64.9477 24.3902 64.9331 23.8413 64.8953 23.1794C64.8148 21.883 64.1734 20.6732 63.5534 19.5636Z" fill="#FBBEBE"/>
<path opacity="0.1" d="M62.941 40.7808C62.398 36.9506 61.653 33.1519 60.7093 29.4008C60.2242 27.4542 59.6731 25.4745 59.8118 23.4714C61.8164 23.7274 63.6124 23.9172 65.4598 23.0957C65.4899 24.1479 66.2506 25.0423 66.5271 26.0594C66.7124 26.7408 66.6426 27.462 66.7153 28.1637C66.7881 28.8655 67.0064 29.5458 67.1937 30.2281C68.1228 33.6092 68.3419 37.1469 67.837 40.6173C66.1225 40.8217 64.6516 41.0465 62.941 40.7808Z" fill="black"/>
<path d="M62.6499 40.7808C62.107 36.9506 61.362 33.1519 60.4183 29.4008C59.9332 27.4542 59.382 25.4745 59.5208 23.4714C61.5254 23.7274 63.3214 23.9172 65.1688 23.0957C65.1989 24.1479 65.9596 25.0423 66.2361 26.0594C66.4214 26.7408 66.3516 27.462 66.4243 28.1637C66.4971 28.8655 66.7154 29.5458 66.9027 30.2281C67.8318 33.6092 68.0509 37.1469 67.546 40.6173C65.8315 40.8217 64.3605 41.0465 62.6499 40.7808Z" fill="#6AD590"/>
<path d="M34.6032 59.739L35.5531 36.1002C35.5682 35.7244 35.7286 35.3694 36.0003 35.1102C36.272 34.8511 36.6337 34.7084 37.0085 34.7122L74.5118 35.0724C74.7105 35.0744 74.9066 35.1176 75.0879 35.1994C75.2692 35.2811 75.4317 35.3995 75.5651 35.5472C75.6986 35.6949 75.8002 35.8687 75.8636 36.0576C75.9269 36.2466 75.9506 36.4466 75.9332 36.6452L73.9519 59.2913C73.9208 59.6474 73.7593 59.9793 73.4986 60.223C73.2379 60.4668 72.8965 60.605 72.5402 60.6111L36.0693 61.2437C35.8729 61.2471 35.678 61.2102 35.4964 61.1353C35.3148 61.0604 35.1503 60.9491 35.013 60.8082C34.8758 60.6674 34.7686 60.4999 34.6982 60.316C34.6277 60.1322 34.5954 59.9358 34.6032 59.739Z" fill="#3F3D56"/>
<path d="M55.5484 47.4003C56.4594 47.4003 57.1979 46.5288 57.1979 45.4537C57.1979 44.3786 56.4594 43.5071 55.5484 43.5071C54.6374 43.5071 53.8989 44.3786 53.8989 45.4537C53.8989 46.5288 54.6374 47.4003 55.5484 47.4003Z" fill="#6AD590"/>
<path d="M90.818 44.1163L90.7403 44.784L89.479 55.5742C86.1907 57.8741 83.633 55.6637 83.6107 55.5742L82.0214 44.7334L81.9312 44.1163H90.818Z" fill="#3F3D56"/>
<path opacity="0.1" d="M90.818 44.1163L90.7403 44.784C87.0358 46.9448 83.0839 45.2629 82.0214 44.7334L81.9312 44.1163H90.818Z" fill="black"/>
<path d="M81.7461 43.5304V44.5037C81.7461 44.5037 86.646 47.3614 91.0608 44.5037V43.5304H81.7461Z" fill="#6AD590"/>
<path d="M82.3156 42.2446C82.3156 42.2446 82.173 42.9016 81.7461 42.959V43.7873H91.0608V43.0447C91.0608 43.0447 90.4912 42.9016 90.5757 42.2446H82.3156Z" fill="#6AD590"/>
<path d="M86.3751 43.5305C88.6955 43.5305 90.5765 42.9866 90.5765 42.3158C90.5765 41.6449 88.6955 41.1011 86.3751 41.1011C84.0548 41.1011 82.1738 41.6449 82.1738 42.3158C82.1738 42.9866 84.0548 43.5305 86.3751 43.5305Z" fill="#6AD590"/>
<path opacity="0.1" d="M86.3751 43.5305C88.6955 43.5305 90.5765 42.9866 90.5765 42.3158C90.5765 41.6449 88.6955 41.1011 86.3751 41.1011C84.0548 41.1011 82.1738 41.6449 82.1738 42.3158C82.1738 42.9866 84.0548 43.5305 86.3751 43.5305Z" fill="black"/>
<path opacity="0.1" d="M90.0633 42.2447C90.0633 42.7314 88.4701 43.1304 86.5033 43.1304H86.3985C85.078 43.1207 83.9369 42.9358 83.3548 42.6593C83.0918 42.5347 82.9424 42.3936 82.9424 42.2447C82.9424 41.9975 83.3499 41.7736 84.0097 41.613C84.8295 41.4332 85.6671 41.348 86.5062 41.359C88.4701 41.359 90.0633 41.7551 90.0633 42.2447Z" fill="black"/>
<path opacity="0.1" d="M86.3988 43.1304C85.0782 43.1207 83.9371 42.9358 83.355 42.6593L84.007 41.6091L86.3988 43.1304Z" fill="black"/>
<path opacity="0.1" d="M82.6776 42.3128C82.6271 42.3021 82.5601 42.3196 82.5504 42.3703C82.5492 42.396 82.5559 42.4215 82.5699 42.4433C82.6811 42.6197 82.8427 42.7584 83.0337 42.8413C83.0663 42.8598 83.1022 42.8713 83.1394 42.8754C83.1588 42.8777 83.1784 42.8741 83.1957 42.8651C83.213 42.8561 83.2272 42.842 83.2364 42.8248C83.2418 42.8101 83.244 42.7944 83.2428 42.7788C83.2416 42.7632 83.2371 42.748 83.2297 42.7343C83.2 42.6816 83.1589 42.6364 83.1093 42.6019C82.9793 42.4997 82.8464 42.3411 82.6776 42.3128Z" fill="black"/>
<path d="M86.517 52.7165C87.9011 52.7165 89.0232 51.5909 89.0232 50.2024C89.0232 48.8139 87.9011 47.6884 86.517 47.6884C85.1328 47.6884 84.0107 48.8139 84.0107 50.2024C84.0107 51.5909 85.1328 52.7165 86.517 52.7165Z" fill="#6AD590"/>
<path d="M18.2734 50.2084H19.4484C20.0917 50.2084 20.7087 50.4647 21.1636 50.9211C21.6185 51.3774 21.8741 51.9963 21.8741 52.6417V56.2575H15.8477V52.6417C15.8477 51.9963 16.1032 51.3774 16.5581 50.9211C17.013 50.4647 17.63 50.2084 18.2734 50.2084Z" fill="#3F3D56"/>
<path opacity="0.1" d="M18.2734 50.2084H19.4484C20.0917 50.2084 20.7087 50.4647 21.1636 50.9211C21.6185 51.3774 21.8741 51.9963 21.8741 52.6417V56.2575H15.8477V52.6417C15.8477 51.9963 16.1032 51.3774 16.5581 50.9211C17.013 50.4647 17.63 50.2084 18.2734 50.2084Z" fill="black"/>
<path d="M18.6194 51.5389C18.8858 51.5389 19.1017 51.3223 19.1017 51.0551C19.1017 50.788 18.8858 50.5714 18.6194 50.5714C18.3531 50.5714 18.1372 50.788 18.1372 51.0551C18.1372 51.3223 18.3531 51.5389 18.6194 51.5389Z" fill="#3F3D56"/>
<path d="M18.6194 50.9344C18.8858 50.9344 19.1017 50.7178 19.1017 50.4507C19.1017 50.1835 18.8858 49.9669 18.6194 49.9669C18.3531 49.9669 18.1372 50.1835 18.1372 50.4507C18.1372 50.7178 18.3531 50.9344 18.6194 50.9344Z" fill="#3F3D56"/>
<path d="M18.6194 50.329C18.8858 50.329 19.1017 50.1125 19.1017 49.8453C19.1017 49.5781 18.8858 49.3616 18.6194 49.3616C18.3531 49.3616 18.1372 49.5781 18.1372 49.8453C18.1372 50.1125 18.3531 50.329 18.6194 50.329Z" fill="#3F3D56"/>
<path d="M18.6194 49.7246C18.8858 49.7246 19.1017 49.508 19.1017 49.2408C19.1017 48.9737 18.8858 48.7571 18.6194 48.7571C18.3531 48.7571 18.1372 48.9737 18.1372 49.2408C18.1372 49.508 18.3531 49.7246 18.6194 49.7246Z" fill="#3F3D56"/>
<path d="M18.6194 49.1202C18.8858 49.1202 19.1017 48.9036 19.1017 48.6364C19.1017 48.3693 18.8858 48.1527 18.6194 48.1527C18.3531 48.1527 18.1372 48.3693 18.1372 48.6364C18.1372 48.9036 18.3531 49.1202 18.6194 49.1202Z" fill="#3F3D56"/>
<path d="M18.6194 48.5157C18.8858 48.5157 19.1017 48.2991 19.1017 48.032C19.1017 47.7648 18.8858 47.5482 18.6194 47.5482C18.3531 47.5482 18.1372 47.7648 18.1372 48.032C18.1372 48.2991 18.3531 48.5157 18.6194 48.5157Z" fill="#3F3D56"/>
<path d="M18.6194 47.9113C18.8858 47.9113 19.1017 47.6947 19.1017 47.4276C19.1017 47.1604 18.8858 46.9438 18.6194 46.9438C18.3531 46.9438 18.1372 47.1604 18.1372 47.4276C18.1372 47.6947 18.3531 47.9113 18.6194 47.9113Z" fill="#3F3D56"/>
<path d="M19.3436 48.1526C19.6099 48.1526 19.8258 47.9361 19.8258 47.6689C19.8258 47.4018 19.6099 47.1852 19.3436 47.1852C19.0772 47.1852 18.8613 47.4018 18.8613 47.6689C18.8613 47.9361 19.0772 48.1526 19.3436 48.1526Z" fill="#3F3D56"/>
<path d="M19.8255 47.9113C20.0918 47.9113 20.3077 47.6947 20.3077 47.4276C20.3077 47.1604 20.0918 46.9438 19.8255 46.9438C19.5592 46.9438 19.3433 47.1604 19.3433 47.4276C19.3433 47.6947 19.5592 47.9113 19.8255 47.9113Z" fill="#3F3D56"/>
<path d="M20.3079 47.6689C20.5742 47.6689 20.7901 47.4523 20.7901 47.1852C20.7901 46.918 20.5742 46.7014 20.3079 46.7014C20.0416 46.7014 19.8257 46.918 19.8257 47.1852C19.8257 47.4523 20.0416 47.6689 20.3079 47.6689Z" fill="#3F3D56"/>
<path d="M18.6194 47.3068C18.8858 47.3068 19.1017 47.0902 19.1017 46.8231C19.1017 46.5559 18.8858 46.3394 18.6194 46.3394C18.3531 46.3394 18.1372 46.5559 18.1372 46.8231C18.1372 47.0902 18.3531 47.3068 18.6194 47.3068Z" fill="#3F3D56"/>
<path d="M18.6194 46.7025C18.8858 46.7025 19.1017 46.4859 19.1017 46.2187C19.1017 45.9516 18.8858 45.735 18.6194 45.735C18.3531 45.735 18.1372 45.9516 18.1372 46.2187C18.1372 46.4859 18.3531 46.7025 18.6194 46.7025Z" fill="#3F3D56"/>
<path d="M18.6194 46.0971C18.8858 46.0971 19.1017 45.8805 19.1017 45.6134C19.1017 45.3462 18.8858 45.1296 18.6194 45.1296C18.3531 45.1296 18.1372 45.3462 18.1372 45.6134C18.1372 45.8805 18.3531 46.0971 18.6194 46.0971Z" fill="#3F3D56"/>
<path d="M18.6194 45.4926C18.8858 45.4926 19.1017 45.276 19.1017 45.0089C19.1017 44.7417 18.8858 44.5251 18.6194 44.5251C18.3531 44.5251 18.1372 44.7417 18.1372 45.0089C18.1372 45.276 18.3531 45.4926 18.6194 45.4926Z" fill="#3F3D56"/>
<path d="M20.6185 43.4496C20.4991 43.4671 20.3788 43.4798 20.2585 43.4876C20.3707 43.3891 20.4749 43.2817 20.5699 43.1664C20.5028 42.9633 20.4046 42.7718 20.2789 42.5989C20.1593 42.6663 20.0272 42.7081 19.8907 42.7216C19.7714 42.7391 19.6511 42.7518 19.5308 42.7605C19.6889 42.6311 19.8364 42.4364 19.9917 42.2739C19.6329 41.9475 19.1703 41.7594 18.6863 41.743C18.2023 41.7266 17.7281 41.8829 17.3482 42.1842C16.9682 42.4854 16.7071 42.9121 16.6113 43.3883C16.5154 43.8645 16.5911 44.3594 16.8247 44.7849C17.0584 45.2105 17.435 45.5391 17.8874 45.7123C18.3399 45.8856 18.839 45.8922 19.2958 45.7311C19.7527 45.5699 20.1378 45.2515 20.3827 44.8323C20.6275 44.4131 20.7162 43.9204 20.633 43.4418L20.6185 43.4496Z" fill="#6AD590"/>
<path d="M22.2301 45.8527C22.1071 45.9285 21.9683 45.9748 21.8245 45.988C21.7052 46.0055 21.5849 46.0192 21.4645 46.0269C21.5924 45.9119 21.7118 45.7876 21.8216 45.6551C21.5309 45.5791 21.2223 45.6146 20.9562 45.7546C20.6902 45.8947 20.4858 46.1292 20.3829 46.4124C20.2801 46.6956 20.2863 47.0071 20.4002 47.286C20.5142 47.5649 20.7278 47.7911 20.9991 47.9204C21.2705 48.0498 21.5803 48.0729 21.8678 47.9853C22.1553 47.8978 22.3999 47.7058 22.5538 47.4469C22.7077 47.1881 22.7598 46.8809 22.6999 46.5856C22.6401 46.2902 22.4725 46.0278 22.2301 45.8498V45.8527Z" fill="#6AD590"/>
<path d="M17.8968 48.1526C18.1631 48.1526 18.379 47.9361 18.379 47.6689C18.379 47.4018 18.1631 47.1852 17.8968 47.1852C17.6305 47.1852 17.4146 47.4018 17.4146 47.6689C17.4146 47.9361 17.6305 48.1526 17.8968 48.1526Z" fill="#3F3D56"/>
<path d="M17.4144 47.9113C17.6807 47.9113 17.8966 47.6947 17.8966 47.4276C17.8966 47.1604 17.6807 46.9438 17.4144 46.9438C17.148 46.9438 16.9321 47.1604 16.9321 47.4276C16.9321 47.6947 17.148 47.9113 17.4144 47.9113Z" fill="#3F3D56"/>
<path d="M16.9324 47.6689C17.1988 47.6689 17.4147 47.4523 17.4147 47.1852C17.4147 46.918 17.1988 46.7014 16.9324 46.7014C16.6661 46.7014 16.4502 46.918 16.4502 47.1852C16.4502 47.4523 16.6661 47.6689 16.9324 47.6689Z" fill="#3F3D56"/>
<path d="M15.0101 45.8527C15.1331 45.9286 15.2719 45.9749 15.4157 45.988C15.5351 46.0055 15.6554 46.0192 15.7757 46.0269C15.6476 45.9121 15.5282 45.7878 15.4186 45.6551C15.7094 45.5791 16.0179 45.6146 16.284 45.7546C16.55 45.8947 16.7545 46.1292 16.8573 46.4124C16.9601 46.6956 16.9539 47.0071 16.84 47.286C16.726 47.5649 16.5125 47.7911 16.2411 47.9204C15.9697 48.0498 15.66 48.0729 15.3725 47.9853C15.085 47.8978 14.8403 47.7058 14.6865 47.4469C14.5326 47.1881 14.4805 46.8809 14.5403 46.5856C14.6002 46.2902 14.7677 46.0278 15.0101 45.8498V45.8527Z" fill="#6AD590"/>
<path d="M18.2734 50.5714H19.4484C20.0917 50.5714 20.7087 50.8278 21.1636 51.2841C21.6185 51.7404 21.8741 52.3593 21.8741 53.0047V56.204C21.8741 56.3134 21.8307 56.4184 21.7536 56.4958C21.6764 56.5732 21.5718 56.6167 21.4627 56.6167H16.2591C16.1499 56.6167 16.0453 56.5732 15.9682 56.4958C15.891 56.4184 15.8477 56.3134 15.8477 56.204V53.0047C15.8477 52.3593 16.1032 51.7404 16.5581 51.2841C17.013 50.8278 17.63 50.5714 18.2734 50.5714Z" fill="#3F3D56"/>
<g opacity="0.1">
<path opacity="0.1" d="M20.6552 43.5819C20.6064 43.6342 20.5546 43.6836 20.5 43.7299C20.5553 43.7299 20.6096 43.7211 20.6649 43.7153C20.6669 43.6705 20.6601 43.6257 20.6552 43.5819Z" fill="black"/>
<path opacity="0.1" d="M19.7764 43.0038C19.8977 42.996 20.017 42.9833 20.1373 42.9658C20.2453 42.9521 20.3507 42.9233 20.4507 42.8802C20.4019 42.7827 20.3454 42.6893 20.2819 42.6008C20.2215 42.6377 20.1562 42.6656 20.0878 42.6836C19.9927 42.7985 19.8885 42.9055 19.7764 43.0038Z" fill="black"/>
<path opacity="0.1" d="M16.8121 44.0423C16.8114 43.6733 16.9099 43.3109 17.0972 42.9934C17.2846 42.6758 17.5538 42.4148 17.8766 42.2378C18.1994 42.0609 18.5638 41.9745 18.9315 41.9879C19.2991 42.0013 19.6563 42.1138 19.9655 42.3137L19.9966 42.2806C19.7948 42.1005 19.5594 41.9622 19.3041 41.8738C19.0488 41.7853 18.7786 41.7484 18.509 41.7652C18.2394 41.7819 17.9758 41.852 17.7333 41.9715C17.4909 42.0909 17.2744 42.2573 17.0963 42.461C16.9182 42.6647 16.7821 42.9018 16.6958 43.1586C16.6094 43.4153 16.5746 43.6866 16.5933 43.9569C16.612 44.2272 16.6838 44.4912 16.8046 44.7335C16.9254 44.9758 17.0928 45.1918 17.2972 45.3689C16.9834 44.9987 16.8114 44.5283 16.8121 44.0423Z" fill="black"/>
</g>
<g opacity="0.1">
<path opacity="0.1" d="M21.4648 46.2684C21.5852 46.2606 21.7055 46.2479 21.8248 46.2304C21.9686 46.2168 22.1074 46.1702 22.2304 46.0942C22.3666 46.1948 22.4802 46.3231 22.5638 46.4706C22.6474 46.6182 22.6991 46.7818 22.7155 46.9507C22.7202 46.9083 22.7225 46.8658 22.7223 46.8232C22.7232 46.6341 22.6798 46.4475 22.5955 46.2784C22.5113 46.1094 22.3885 45.9625 22.2372 45.8499C22.1142 45.9256 21.9754 45.9719 21.8316 45.9851L21.7346 45.9978C21.6518 46.0949 21.5616 46.1853 21.4648 46.2684Z" fill="black"/>
<path opacity="0.1" d="M21.5132 45.8556C21.5534 45.8561 21.5936 45.859 21.6335 45.8644C21.6966 45.7972 21.7587 45.7252 21.8217 45.6551C21.6434 45.6073 21.4564 45.6014 21.2754 45.6377C21.0943 45.674 20.924 45.7516 20.7777 45.8645C20.6313 45.9775 20.5129 46.1227 20.4314 46.2889C20.35 46.4551 20.3078 46.6379 20.3081 46.8231C20.3081 46.864 20.3081 46.9039 20.3139 46.9438C20.3438 46.6456 20.483 46.3691 20.7046 46.168C20.9262 45.9669 21.2144 45.8556 21.5132 45.8556Z" fill="black"/>
</g>
<g opacity="0.1">
<path opacity="0.1" d="M15.7756 46.2684C15.6552 46.2606 15.5349 46.2479 15.4156 46.2304C15.2717 46.217 15.1329 46.1704 15.01 46.0942C14.8738 46.1948 14.7602 46.3231 14.6766 46.4706C14.593 46.6182 14.5413 46.7818 14.5249 46.9507C14.5202 46.9083 14.5179 46.8658 14.5181 46.8232C14.5172 46.6341 14.5606 46.4475 14.6449 46.2784C14.7292 46.1094 14.8519 45.9625 15.0032 45.8499C15.1262 45.9257 15.265 45.9721 15.4088 45.9851L15.5058 45.9978C15.5881 46.0953 15.6783 46.1858 15.7756 46.2684Z" fill="black"/>
<path opacity="0.1" d="M15.727 45.8556C15.6864 45.8561 15.6459 45.859 15.6057 45.8644C15.5436 45.7972 15.4815 45.7252 15.4185 45.6551C15.5968 45.6073 15.7838 45.6014 15.9648 45.6377C16.1459 45.674 16.3162 45.7516 16.4625 45.8645C16.6089 45.9775 16.7273 46.1227 16.8088 46.2889C16.8902 46.4551 16.9324 46.6379 16.9321 46.8231C16.9321 46.864 16.9321 46.9039 16.9263 46.9438C16.8964 46.6456 16.7572 46.3691 16.5356 46.168C16.314 45.9669 16.0258 45.8556 15.727 45.8556Z" fill="black"/>
</g>
</g>
<defs>
<clipPath id="clip0_456_4864">
<rect width="111" height="62" fill="white"/>
</clipPath>
</defs>
</svg>
