<svg xmlns="http://www.w3.org/2000/svg" width="31.133" height="22.341" viewBox="0 0 31.133 22.341"><defs><style>.a{fill:#2cd889;}</style></defs><g transform="translate(0 0)"><path class="a" d="M28.267,72.3H2.866A2.865,2.865,0,0,0,0,75.166V91.775a2.865,2.865,0,0,0,2.866,2.866h25.4a2.865,2.865,0,0,0,2.866-2.866V75.166A2.865,2.865,0,0,0,28.267,72.3Zm1.042,19.474a1.042,1.042,0,0,1-1.042,1.042H2.866a1.042,1.042,0,0,1-1.042-1.042V75.166a1.042,1.042,0,0,1,1.042-1.042h25.4a1.042,1.042,0,0,1,1.042,1.042Z" transform="translate(0 -72.3)"/><path class="a" d="M87.655,206.419a3.355,3.355,0,1,0-5,0,4.822,4.822,0,0,0-2.318,4.119.912.912,0,0,0,.912.912h7.816a.912.912,0,0,0,.912-.912,4.822,4.822,0,0,0-2.318-4.118Zm-2.5-3.762a1.53,1.53,0,1,1-1.53,1.53A1.532,1.532,0,0,1,85.153,202.657ZM82.3,209.626a3,3,0,0,1,5.708,0Z" transform="translate(-75.448 -193.017)"/><path class="a" d="M296.951,216.9h-6.839a.912.912,0,0,0,0,1.824h6.839a.912.912,0,0,0,0-1.824Z" transform="translate(-271.614 -208.107)"/><path class="a" d="M100.785,136.566H81.245a.912.912,0,0,0,0,1.824h19.539a.912.912,0,0,0,0-1.824Z" transform="translate(-75.448 -132.658)"/><path class="a" d="M296.951,281.167h-6.839a.912.912,0,0,0,0,1.824h6.839a.912.912,0,0,0,0-1.824Z" transform="translate(-271.614 -268.466)"/><path class="a" d="M295,345.434h-4.885a.912.912,0,0,0,0,1.824H295a.912.912,0,0,0,0-1.824Z" transform="translate(-271.614 -328.825)"/></g></svg>