<svg xmlns="http://www.w3.org/2000/svg" width="14.08" height="20.025" viewBox="0 0 14.08 20.025"><defs><style>.a{fill:#999;}</style></defs><g transform="translate(0)"><path class="a" d="M83.04,0a7.041,7.041,0,0,0-5.989,10.742l5.588,9.006a.587.587,0,0,0,.5.277h0a.587.587,0,0,0,.5-.285l5.446-9.093A7.042,7.042,0,0,0,83.04,0Zm5.04,10.044-4.951,8.267-5.081-8.188a5.871,5.871,0,1,1,10.032-.079Z" transform="translate(-76)"/></g><g transform="translate(3.959 3.758)"><g transform="translate(0)"><path class="a" d="M169.08,90a3.08,3.08,0,1,0,3.08,3.08A3.084,3.084,0,0,0,169.08,90Zm0,5.141a2.06,2.06,0,1,1,2.057-2.06A2.062,2.062,0,0,1,169.08,95.141Z" transform="translate(-166 -90)"/></g></g></svg>