<svg xmlns="http://www.w3.org/2000/svg" width="22.651" height="29.263" viewBox="0 0 22.651 29.263"><defs><style>.a{fill:#2cd889;}</style></defs><path class="a" d="M78.335,13.846,74.193,9.7V2.572A2.575,2.575,0,0,0,71.621,0h-11.2a2.575,2.575,0,0,0-2.572,2.572v24.12a2.575,2.575,0,0,0,2.572,2.572h17.49a.857.857,0,0,0,.841-.688l1.6-7.953A7.469,7.469,0,0,0,78.335,13.846ZM60.419,1.715h11.2a.858.858,0,0,1,.857.857V13.63a2.686,2.686,0,0,0-3.792,3.806L71.97,20.85a7.282,7.282,0,0,0-2.3,2.984H59.562V2.572a.858.858,0,0,1,.857-.857Zm-.857,24.977V25.548H69.12a12.26,12.26,0,0,0-.274,2H60.419a.858.858,0,0,1-.857-.857Zm19.1-6.407-1.459,7.265H70.564A7.867,7.867,0,0,1,72.1,23.1a4.351,4.351,0,0,1,1.543-1.266.849.849,0,0,0,.313-1.4L69.905,16.23a.972.972,0,0,1,1.372-1.377c1.812,1.854.931.964,4.1,4.136a.857.857,0,1,0,1.212-1.212l-2.4-2.4V12.129l2.929,2.929a5.758,5.758,0,0,1,1.543,5.226Z" transform="translate(-57.847)"/></svg>