<svg xmlns="http://www.w3.org/2000/svg" width="29.94" height="29.322" viewBox="0 0 29.94 29.322"><defs><style>.a,.b{fill:#2cd889;}.a{stroke:#2cd889;stroke-width:0.5px;}</style></defs><g transform="translate(0.25 0.25)"><g transform="translate(14.53 13.912)"><path class="a" d="M703.928,705.665a7.455,7.455,0,1,1,7.455-7.455A7.455,7.455,0,0,1,703.928,705.665Zm0-13.745a6.29,6.29,0,1,0,6.291,6.29A6.29,6.29,0,0,0,703.928,691.92Z" transform="translate(-696.473 -690.755)"/></g><path class="a" d="M442.278,454.694H430.909a1.1,1.1,0,0,0-.139-.034,2.74,2.74,0,0,1-2.09-1.473,3.979,3.979,0,0,1-.271-.755c-.033-.114-.066-.227-.1-.34v-12.9a1.137,1.137,0,0,0,.032-.122c.524-2.6,2.915-2.574,3.919-2.441h.551v.8a1.587,1.587,0,0,0,1.459,1.606q.345.027.693.027c.232,0,.435-.008.652-.023a1.588,1.588,0,0,0,1.484-1.632v-.793h3.988v.771a1.6,1.6,0,0,0,1.562,1.665c.2.009.391.014.585.014s.389,0,.58-.014a1.6,1.6,0,0,0,1.562-1.665V436.6h1.152a2.914,2.914,0,0,1,2.845,2.272l.061.256.006,8.244a6.869,6.869,0,0,1,1.168.149V439.1l-.1-.488a4.074,4.074,0,0,0-3.98-3.175h-1.152v-.966a1.479,1.479,0,0,0-.491-1.14,2.389,2.389,0,0,0-.472-.306c-.049-.026-.1-.052-.146-.08a.583.583,0,0,0-.3-.081h-1.481a.588.588,0,0,0-.19.032,1.73,1.73,0,0,0-1.222,1.855c.008.23.01.464.012.7H437.1c0-.323,0-.646-.01-.968a1.585,1.585,0,0,0-.329-.963,2.116,2.116,0,0,0-.567-.445c-.057-.035-.115-.069-.169-.107a.582.582,0,0,0-.33-.1h-1.481a.583.583,0,0,0-.285.074l-.028.017a1.6,1.6,0,0,0-1.091,1.6v.914h-.436c-2.707-.344-4.688.944-5.185,3.4l-.046.145V452.28l.03.09c.042.126.08.256.117.385a4.9,4.9,0,0,0,.363.981,3.955,3.955,0,0,0,2.932,2.077l.147.045h11.726a6.84,6.84,0,0,1-.18-1.164Zm.316-20.666h1.223l.044.024a1.524,1.524,0,0,1,.254.155.3.3,0,0,1,.093.261q0,.937,0,1.875v1.04a.451.451,0,0,1-.455.5c-.345.017-.7.017-1.052,0a.45.45,0,0,1-.454-.5v-.806c0-.61.009-1.241-.012-1.867-.008-.421.118-.58.36-.681Zm-8.62.528a.457.457,0,0,1,.367-.523l.014,0h1.169l.068.041a1.326,1.326,0,0,1,.275.194.509.509,0,0,1,.059.239c.014.724.012,1.448.01,2.173v.73a.432.432,0,0,1-.4.471,7.954,7.954,0,0,1-1.172,0,.419.419,0,0,1-.384-.447q0-1,0-2.009Z" transform="translate(-427.143 -432.864)"/><circle class="b" cx="1.415" cy="1.415" r="1.415" transform="translate(4.716 9.347)"/><circle class="b" cx="1.415" cy="1.415" r="1.415" transform="translate(4.716 15.007)"/><circle class="b" cx="1.415" cy="1.415" r="1.415" transform="translate(10.375 9.347)"/><circle class="b" cx="1.415" cy="1.415" r="1.415" transform="translate(10.375 15.007)"/><circle class="b" cx="1.415" cy="1.415" r="1.415" transform="translate(16.034 9.347)"/><g transform="translate(17.791 18.31)"><path class="a" d="M760.042,778.382a.58.58,0,0,1-.392-.152l-2.525-2.3a.582.582,0,0,1,.784-.861l2.1,1.913,4.227-4.53a.583.583,0,0,1,.852.795l-4.62,4.951a.581.581,0,0,1-.426.184Z" transform="translate(-756.936 -772.267)"/></g></g></svg>