<svg xmlns="http://www.w3.org/2000/svg" width="24" height="24" viewBox="0 0 24 24"><defs><style>.a{fill:#4e4e4e;}</style></defs><path class="a" d="M276.4,226.833a.4.4,0,0,0-.4.4v.833a.4.4,0,1,0,.807,0v-.833A.4.4,0,0,0,276.4,226.833Z" transform="translate(-268.175 -217.845)"/><path class="a" d="M316.4,226.833a.4.4,0,0,0-.4.4v.833a.4.4,0,1,0,.807,0v-.833A.4.4,0,0,0,316.4,226.833Z" transform="translate(-306.289 -217.845)"/><path class="a" d="M356.4,226.833a.4.4,0,0,0-.4.4v.833a.4.4,0,1,0,.807,0v-.833A.4.4,0,0,0,356.4,226.833Z" transform="translate(-344.403 -217.845)"/><path class="a" d="M396.4,226.833a.4.4,0,0,0-.4.4v.833a.4.4,0,1,0,.807,0v-.833A.4.4,0,0,0,396.4,226.833Z" transform="translate(-382.518 -217.845)"/><path class="a" d="M436.4,226.833a.4.4,0,0,0-.4.4v.833a.4.4,0,1,0,.807,0v-.833A.4.4,0,0,0,436.4,226.833Z" transform="translate(-420.632 -217.845)"/><path class="a" d="M216.4,489.5a.4.4,0,1,0,.285.118A.407.407,0,0,0,216.4,489.5Z" transform="translate(-211.003 -467.905)"/><path class="a" d="M216.4,406.833a.4.4,0,0,0-.4.4v1.747a.4.4,0,0,0,.807,0v-1.747A.4.4,0,0,0,216.4,406.833Z" transform="translate(-211.003 -389.166)"/><path class="a" d="M272.4,406.833a.4.4,0,0,0-.4.4v3.334a.4.4,0,1,0,.807,0v-3.334A.4.4,0,0,0,272.4,406.833Z" transform="translate(-264.363 -388.573)"/><path class="a" d="M328.4,406.833a.4.4,0,0,0-.4.4v3.334a.4.4,0,1,0,.807,0v-3.334A.4.4,0,0,0,328.4,406.833Z" transform="translate(-317.723 -388.573)"/><path class="a" d="M384.4,406.833a.4.4,0,0,0-.4.4v3.334a.4.4,0,1,0,.807,0v-3.334A.4.4,0,0,0,384.4,406.833Z" transform="translate(-371.083 -388.573)"/><path class="a" d="M440.4,406.833a.4.4,0,0,0-.4.4v3.334a.4.4,0,1,0,.807,0v-3.334A.4.4,0,0,0,440.4,406.833Z" transform="translate(-424.444 -388.573)"/><path class="a" d="M496.4,406.829a.4.4,0,1,0,.285.118A.407.407,0,0,0,496.4,406.829Z" transform="translate(-477.804 -389.407)"/><path class="a" d="M496.4,446.833a.4.4,0,0,0-.4.4v1.721a.4.4,0,0,0,.807,0v-1.721A.4.4,0,0,0,496.4,446.833Z" transform="translate(-477.804 -426.96)"/><path class="a" d="M256.4,310.333a.4.4,0,0,0-.4.4v.833a.4.4,0,0,0,.807,0v-.833A.4.4,0,0,0,256.4,310.333Z" transform="translate(-249.117 -297.381)"/><path class="a" d="M296.4,310.333a.4.4,0,0,0-.4.4v.833a.4.4,0,0,0,.807,0v-.833A.4.4,0,0,0,296.4,310.333Z" transform="translate(-287.232 -297.381)"/><path class="a" d="M336.4,310.333a.4.4,0,0,0-.4.4v.833a.4.4,0,0,0,.807,0v-.833A.4.4,0,0,0,336.4,310.333Z" transform="translate(-325.346 -297.381)"/><path class="a" d="M376.4,310.333a.4.4,0,0,0-.4.4v.833a.4.4,0,0,0,.806,0v-.833A.4.4,0,0,0,376.4,310.333Z" transform="translate(-363.461 -297.381)"/><path class="a" d="M416.4,310.333a.4.4,0,0,0-.4.4v.833a.4.4,0,0,0,.806,0v-.833A.4.4,0,0,0,416.4,310.333Z" transform="translate(-401.575 -297.381)"/><path class="a" d="M456.4,310.333a.4.4,0,0,0-.4.4v.833a.4.4,0,0,0,.807,0v-.833A.4.4,0,0,0,456.4,310.333Z" transform="translate(-439.689 -297.381)"/><path class="a" d="M133.531,54.183h-1.875V53.151a.469.469,0,0,0-.469-.469h-2.156v-3.19h.328a.469.469,0,0,0,0-.938h-1.312V46.113a.469.469,0,0,0-.047-.936h-1.156V44.77a4.852,4.852,0,0,0-4.375-4.824V37.969a.469.469,0,1,0-.938,0v1.977a4.852,4.852,0,0,0-4.375,4.824v.406H116a.469.469,0,0,0-.047.936v2.441h-1.312a.469.469,0,0,0,0,.938h.328v3.19h-2.156a.469.469,0,0,0-.469.469v1.032h-1.875a.469.469,0,0,0-.469.469v6.379a.469.469,0,0,0,.469.469h23.063a.469.469,0,0,0,.469-.469V54.652A.469.469,0,0,0,133.531,54.183ZM118.094,44.77a3.906,3.906,0,1,1,7.812,0v.407h-7.812Zm-1.2,1.345h10.219v2.439H116.891Zm-.984,3.377h12.188v3.19H115.906Zm-4.969,5.629h1.406v5.441h-1.406Zm2.344-.469V53.62h17.437v6.942H113.281Zm19.781,5.91h-1.406V55.121h1.406Z" transform="translate(-110 -37.5)"/></svg>