<svg xmlns="http://www.w3.org/2000/svg" width="26.235" height="29.264" viewBox="0 0 26.235 29.264"><defs><style>.a{fill:#2cd889;}</style></defs><path class="a" d="M39.288,28.121a1.143,1.143,0,0,1-1.143,1.143H31.572A4.578,4.578,0,0,1,27,24.691V4.572A4.578,4.578,0,0,1,31.572,0H45.627A4.578,4.578,0,0,1,50.2,4.572V16.689a1.143,1.143,0,1,1-2.286,0V4.572a2.289,2.289,0,0,0-2.286-2.286H31.572a2.289,2.289,0,0,0-2.286,2.286V24.691a2.289,2.289,0,0,0,2.286,2.286h6.573A1.143,1.143,0,0,1,39.288,28.121Zm13.468-9.5a1.143,1.143,0,0,0-1.595.264l-5.635,7.871a.653.653,0,0,1-.94.049L40.94,23.3a1.143,1.143,0,1,0-1.583,1.649l3.651,3.506a2.948,2.948,0,0,0,2.028.81q.1,0,.194-.006a2.946,2.946,0,0,0,2.1-1.092c.013-.016.026-.033.038-.05l5.657-7.9A1.143,1.143,0,0,0,52.757,18.618ZM44.483,6.859H32.709a1.143,1.143,0,0,0,0,2.286H44.483a1.143,1.143,0,1,0,0-2.286Zm1.143,5.716a1.143,1.143,0,0,0-1.143-1.143H32.709a1.143,1.143,0,0,0,0,2.286H44.483A1.143,1.143,0,0,0,45.627,12.574ZM32.709,16a1.143,1.143,0,0,0,0,2.286H39.86a1.143,1.143,0,0,0,0-2.286Z" transform="translate(-27)"/></svg>