<svg xmlns="http://www.w3.org/2000/svg" width="24" height="24" viewBox="0 0 24 24"><defs><style>.a{fill:#4e4e4e;}</style></defs><path class="a" d="M196.14,92.225H195.4V71.056a.426.426,0,0,0-.445-.4h-8.3a.426.426,0,0,0-.444.4v1.753h-.889V71.056a.426.426,0,0,0-.444-.4h-1.926V69.438a.446.446,0,0,0-.889,0v1.213H180.14a.426.426,0,0,0-.444.4v1.753h-1.333a.426.426,0,0,0-.444.4v3.371h-3.7a.426.426,0,0,0-.444.4V92.225h-.741a.406.406,0,1,0,0,.809H196.14a.406.406,0,1,0,0-.809ZM180.584,71.461h3.852v1.348h-3.852ZM179.1,92.225h-.3v-.674a.446.446,0,0,0-.889,0v.674h-.3V90.877H179.1Zm2.963-10.382V92.225h-2.074V90.472a.426.426,0,0,0-.444-.4h-2.37a.426.426,0,0,0-.444.4v1.753h-2.074V77.394h7.407v4.449Zm.444-5.258h-3.7V73.618h7.407v7.82h-3.259V80.09h1.333a.406.406,0,1,0,0-.809h-1.333V77.933h1.333a.406.406,0,1,0,0-.809h-1.333v-.135A.426.426,0,0,0,182.51,76.585Zm7.852,15.64h-7.407V82.247h7.407Zm4.148,0h-3.259V81.3a.446.446,0,0,0-.889,0v.135h-.889V81.3a.446.446,0,0,0-.889,0v.135H187.1V71.461h7.407V92.225Z" transform="translate(-172.584 -69.034)"/><path class="a" d="M403.038,375.238a.341.341,0,0,0,.341-.341v-6.372a.341.341,0,0,0-.683,0V374.9A.341.341,0,0,0,403.038,375.238Z" transform="translate(-390.739 -352.604)"/><path class="a" d="M437.555,375.238a.341.341,0,0,0,.341-.341v-6.372a.341.341,0,0,0-.683,0V374.9A.341.341,0,0,0,437.555,375.238Z" transform="translate(-423.463 -352.604)"/><path class="a" d="M472.071,375.238a.341.341,0,0,0,.341-.341v-6.372a.341.341,0,0,0-.683,0V374.9A.341.341,0,0,0,472.071,375.238Z" transform="translate(-456.185 -352.604)"/><path class="a" d="M483.577,150.712a.341.341,0,0,0,.341-.341v-.455a.341.341,0,0,0-.683,0v.455A.341.341,0,0,0,483.577,150.712Z" transform="translate(-467.093 -145.764)"/><path class="a" d="M518.094,150.712a.341.341,0,0,0,.342-.341v-.455a.341.341,0,0,0-.683,0v.455A.341.341,0,0,0,518.094,150.712Z" transform="translate(-499.817 -145.764)"/><path class="a" d="M552.612,150.712a.341.341,0,0,0,.341-.341v-.455a.341.341,0,0,0-.683,0v.455A.341.341,0,0,0,552.612,150.712Z" transform="translate(-531.684 -145.764)"/><path class="a" d="M483.577,208.239a.341.341,0,0,0,.341-.341v-.455a.341.341,0,1,0-.683,0v.455A.341.341,0,0,0,483.577,208.239Z" transform="translate(-467.093 -200.569)"/><path class="a" d="M518.094,208.239a.341.341,0,0,0,.342-.341v-.455a.341.341,0,1,0-.683,0v.455A.341.341,0,0,0,518.094,208.239Z" transform="translate(-499.817 -200.569)"/><path class="a" d="M552.612,208.239a.341.341,0,0,0,.341-.341v-.455a.341.341,0,1,0-.683,0v.455A.341.341,0,0,0,552.612,208.239Z" transform="translate(-531.684 -200.569)"/><path class="a" d="M483.577,265.768a.341.341,0,0,0,.341-.341v-.455a.341.341,0,0,0-.683,0v.455A.341.341,0,0,0,483.577,265.768Z" transform="translate(-467.093 -255.376)"/><path class="a" d="M518.094,265.768a.341.341,0,0,0,.342-.341v-.455a.341.341,0,0,0-.683,0v.455A.341.341,0,0,0,518.094,265.768Z" transform="translate(-499.817 -255.376)"/><path class="a" d="M552.612,265.768a.341.341,0,0,0,.341-.341v-.455a.341.341,0,0,0-.683,0v.455A.341.341,0,0,0,552.612,265.768Z" transform="translate(-531.684 -255.376)"/><path class="a" d="M241.959,288.779a.341.341,0,0,0,.341-.341v-.455a.341.341,0,1,0-.683,0v.455A.341.341,0,0,0,241.959,288.779Z" transform="translate(-238.887 -277.299)"/><path class="a" d="M276.476,288.779a.341.341,0,0,0,.341-.341v-.455a.341.341,0,1,0-.683,0v.455A.341.341,0,0,0,276.476,288.779Z" transform="translate(-270.754 -277.299)"/><path class="a" d="M310.993,288.779a.341.341,0,0,0,.341-.341v-.455a.341.341,0,0,0-.683,0v.455A.341.341,0,0,0,310.993,288.779Z" transform="translate(-303.477 -277.299)"/><path class="a" d="M241.959,346.307a.341.341,0,0,0,.341-.341v-.455a.341.341,0,0,0-.683,0v.455A.341.341,0,0,0,241.959,346.307Z" transform="translate(-238.887 -332.105)"/><path class="a" d="M276.476,346.307a.341.341,0,0,0,.341-.341v-.455a.341.341,0,1,0-.683,0v.455A.341.341,0,0,0,276.476,346.307Z" transform="translate(-270.754 -332.105)"/><path class="a" d="M310.993,346.307a.341.341,0,0,0,.341-.341v-.455a.341.341,0,0,0-.683,0v.455A.341.341,0,0,0,310.993,346.307Z" transform="translate(-303.477 -332.105)"/><path class="a" d="M241.959,403.835a.341.341,0,0,0,.341-.341v-.455a.341.341,0,1,0-.683,0v.455A.341.341,0,0,0,241.959,403.835Z" transform="translate(-238.887 -386.911)"/><path class="a" d="M276.476,403.835a.341.341,0,0,0,.341-.341v-.455a.341.341,0,1,0-.683,0v.455A.341.341,0,0,0,276.476,403.835Z" transform="translate(-270.754 -386.911)"/><path class="a" d="M310.993,403.835a.341.341,0,0,0,.341-.341v-.455a.341.341,0,1,0-.683,0v.455A.341.341,0,0,0,310.993,403.835Z" transform="translate(-303.477 -386.911)"/><path class="a" d="M241.959,461.363a.341.341,0,0,0,.341-.341v-.455a.341.341,0,1,0-.683,0v.455A.341.341,0,0,0,241.959,461.363Z" transform="translate(-238.887 -441.717)"/><path class="a" d="M276.476,461.363a.341.341,0,0,0,.341-.341v-.455a.341.341,0,1,0-.683,0v.455A.341.341,0,0,0,276.476,461.363Z" transform="translate(-270.754 -441.717)"/><path class="a" d="M310.993,461.363a.341.341,0,0,0,.341-.341v-.455a.341.341,0,1,0-.683,0v.455A.341.341,0,0,0,310.993,461.363Z" transform="translate(-303.477 -441.717)"/><path class="a" d="M552.612,323.3a.341.341,0,0,0,.341-.341V322.5a.341.341,0,1,0-.683,0v.455A.341.341,0,0,0,552.612,323.3Z" transform="translate(-531.684 -310.183)"/><path class="a" d="M552.612,380.824a.341.341,0,0,0,.341-.341v-.455a.341.341,0,0,0-.683,0v.455A.341.341,0,0,0,552.612,380.824Z" transform="translate(-531.684 -364.989)"/><path class="a" d="M552.612,438.352a.341.341,0,0,0,.341-.341v-.455a.341.341,0,1,0-.683,0v.455A.341.341,0,0,0,552.612,438.352Z" transform="translate(-531.684 -419.795)"/><path class="a" d="M552.612,495.88a.341.341,0,0,0,.341-.341v-.455a.341.341,0,1,0-.683,0v.455A.341.341,0,0,0,552.612,495.88Z" transform="translate(-531.684 -474.156)"/><path class="a" d="M325.571,195.937a.341.341,0,0,0-.341-.341H322.5a.341.341,0,1,0,0,.683h2.731A.341.341,0,0,0,325.571,195.937Z" transform="translate(-314.047 -189.631)"/></svg>