<svg height='240px' width='240px'  fill="#000000" xmlns="http://www.w3.org/2000/svg" data-name="Layer 1" viewBox="0 0 100 100" x="0px" y="0px"><title>Artboard 13</title><path d="M55.1,48.4a5.33,5.33,0,1,0-5.33-5.33A5.34,5.34,0,0,0,55.1,48.4Zm0-7.66a2.33,2.33,0,1,1-2.33,2.33A2.33,2.33,0,0,1,55.1,40.74ZM30.84,60.17a1.5,1.5,0,0,0,1.63-.33L43.3,49l9.41,9.41a1.54,1.54,0,0,0,2.12,0l5.32-5.32,7.37,7.37a1.5,1.5,0,0,0,2.56-1.06V35.1a1.5,1.5,0,0,0-1.5-1.5H31.42a1.5,1.5,0,0,0-1.5,1.5V58.79A1.5,1.5,0,0,0,30.84,60.17ZM32.92,36.6H67.08v19.2L62,50.72a2.62,2.62,0,0,0-3.7,0l-4.53,4.53-8.62-8.62a2.68,2.68,0,0,0-3.7,0l-8.53,8.53Zm-29,19,1.8,1.6a4.63,4.63,0,0,1,1.19,5.28L6,64.71A7.64,7.64,0,0,0,10.92,75l2.32.66a4.63,4.63,0,0,1,3.36,4.24l.12,2.41a7.62,7.62,0,0,0,7.62,7.28,7.74,7.74,0,0,0,1.31-.11L28,89.1a4.69,4.69,0,0,1,4.87,2.36l1.15,2.12a7.63,7.63,0,0,0,11.16,2.58l2-1.4a4.71,4.71,0,0,1,5.41,0l2,1.41a7.63,7.63,0,0,0,11.17-2.52l1.16-2.12a4.65,4.65,0,0,1,4.88-2.33l2.38.42a7.63,7.63,0,0,0,9-7.11l.13-2.41a4.63,4.63,0,0,1,3.38-4.22l2.33-.65a7.64,7.64,0,0,0,5-10.3L93,62.71a4.63,4.63,0,0,1,1.22-5.27L96,55.85a7.64,7.64,0,0,0,0-11.45l-1.8-1.6a4.63,4.63,0,0,1-1.19-5.28L94,35.29A7.64,7.64,0,0,0,89.07,25l-2.32-.66a4.63,4.63,0,0,1-3.36-4.24l-.12-2.41a7.62,7.62,0,0,0-7.62-7.28,7.76,7.76,0,0,0-1.31.11L72,10.9a4.58,4.58,0,0,1-.79.07,4.63,4.63,0,0,1-4.08-2.43L65.95,6.42A7.64,7.64,0,0,0,54.79,3.84l-2,1.4a4.72,4.72,0,0,1-5.41,0l-2-1.41A7.64,7.64,0,0,0,34.29,6.33L33.13,8.45a4.68,4.68,0,0,1-4.88,2.34l-2.38-.43a7.72,7.72,0,0,0-1.35-.12,7.63,7.63,0,0,0-7.62,7.23l-.13,2.41a4.63,4.63,0,0,1-3.39,4.22l-2.32.65a7.64,7.64,0,0,0-5,10.3L7,37.29a4.64,4.64,0,0,1-1.22,5.27L4,44.15a7.64,7.64,0,0,0,0,11.45Zm2-9.2,1.82-1.59a7.63,7.63,0,0,0,2-8.68L8.83,33.9a4.64,4.64,0,0,1,3-6.26L14.19,27a7.63,7.63,0,0,0,5.58-7l.13-2.41a4.63,4.63,0,0,1,4.62-4.39,4.68,4.68,0,0,1,.83.07l2.38.43a7.72,7.72,0,0,0,1.34.12,7.63,7.63,0,0,0,6.69-4l1.16-2.12A4.64,4.64,0,0,1,41,5.37a4.59,4.59,0,0,1,2.71.88l2,1.41a7.76,7.76,0,0,0,8.91,0l2-1.4a4.63,4.63,0,0,1,6.77,1.56L64.46,10a7.63,7.63,0,0,0,8,3.89l2.38-.41a4.63,4.63,0,0,1,5.42,4.35l.12,2.41a7.63,7.63,0,0,0,5.54,7l2.32.66a4.64,4.64,0,0,1,3,6.27l-.94,2.22a7.63,7.63,0,0,0,2,8.69l1.8,1.6a4.64,4.64,0,0,1,0,7l-1.81,1.59a7.63,7.63,0,0,0-2,8.68l.93,2.23a4.64,4.64,0,0,1-3,6.26L85.81,73a7.63,7.63,0,0,0-5.58,7l-.13,2.41a4.65,4.65,0,0,1-5.45,4.32l-2.38-.42a7.68,7.68,0,0,0-8,3.85l-1.16,2.12A4.64,4.64,0,0,1,59,94.63a4.59,4.59,0,0,1-2.71-.88l-2-1.41a7.64,7.64,0,0,0-8.91,0l-2,1.4a4.63,4.63,0,0,1-6.77-1.56L35.54,90a7.64,7.64,0,0,0-8-3.89l-2.38.41a4.64,4.64,0,0,1-5.43-4.35l-.12-2.41a7.63,7.63,0,0,0-5.54-7l-2.32-.66a4.64,4.64,0,0,1-3-6.27l.94-2.22a7.63,7.63,0,0,0-2-8.69l-1.8-1.6a4.64,4.64,0,0,1,0-7ZM30.46,72.49H69.54a6.65,6.65,0,0,0,6.64-6.64V34.15a6.65,6.65,0,0,0-6.64-6.64H30.46a6.65,6.65,0,0,0-6.64,6.64v31.7A6.65,6.65,0,0,0,30.46,72.49ZM26.82,34.15a3.64,3.64,0,0,1,3.64-3.64H69.54a3.64,3.64,0,0,1,3.64,3.64v31.7a3.64,3.64,0,0,1-3.64,3.64H30.46a3.64,3.64,0,0,1-3.64-3.64Z"></path></svg>