<svg xmlns="http://www.w3.org/2000/svg" width="25.006" height="25.003" viewBox="0 0 25.006 25.003"><defs><style>.a{fill:#fff;}</style></defs><g transform="translate(0 -0.002)"><path class="a" d="M18.734,13.652,13.541,9.878a.626.626,0,0,0-.994.505v7.547a.624.624,0,0,0,.342.558.631.631,0,0,0,.285.067.622.622,0,0,0,.368-.121l5.192-3.771a.621.621,0,0,0,0-1.01Z" transform="translate(-2.106 -1.638)"/><path class="a" d="M12.5,0a12.5,12.5,0,1,0,12.5,12.5A12.5,12.5,0,0,0,12.5,0Zm0,22.917A10.415,10.415,0,1,1,22.917,12.506,10.413,10.413,0,0,1,12.5,22.919Z" transform="translate(0 0)"/></g></svg>