<svg xmlns="http://www.w3.org/2000/svg" width="27.724" height="27.724" viewBox="0 0 27.724 27.724"><defs><style>.a{fill:#fff;}</style></defs><path class="a" d="M1.624,1.624H6.5V0H0V6.5H1.624Z"/><path class="a" d="M392,0V1.624h4.873V6.5H398.5V0Z" transform="translate(-370.774)"/><path class="a" d="M396.873,396.873H392V398.5h6.5V392h-1.624Z" transform="translate(-370.774 -370.774)"/><path class="a" d="M1.624,392H0v6.5H6.5v-1.624H1.624Z" transform="translate(0 -370.774)"/><path class="a" d="M61,60v8.122h8.122V63.249h1.624V61.624H69.122V60Zm6.5,6.5H62.624V61.624H67.5Z" transform="translate(-57.697 -56.751)"/><path class="a" d="M280.747,279.747v-8.122H277.5V270h-1.624v1.624H271v1.624h1.624v1.624H271V276.5h1.624v3.249Zm-6.5-6.5h4.873v4.873h-4.873Z" transform="translate(-256.326 -255.38)"/><path class="a" d="M65.873,241.624h3.249V240H61v1.624h3.249v1.624H62.624v1.624h1.624v3.249H62.624v1.624h1.624v1.624h8.122v-1.624H70.747v-1.624H69.122v1.624H65.873v-1.624H67.5V246.5H65.873Z" transform="translate(-57.697 -227.004)"/><path class="a" d="M121,120h1.624v1.624H121Z" transform="translate(-114.448 -113.502)"/><path class="a" d="M361,120h1.624v1.624H361Z" transform="translate(-341.452 -113.502)"/><path class="a" d="M305.873,68.122h3.249V60H301v8.122h3.249v1.624h1.624ZM302.624,66.5V61.624H307.5V66.5Z" transform="translate(-284.701 -56.751)"/><path class="a" d="M394.249,241.624V240H391v1.624Z" transform="translate(-369.828 -227.004)"/><path class="a" d="M361,360h1.624v1.624H361Z" transform="translate(-341.452 -340.507)"/><path class="a" d="M241,330h1.624v1.624H241Z" transform="translate(-227.95 -312.131)"/><path class="a" d="M181,303.249h1.624V300H181Z" transform="translate(-171.199 -283.755)"/><path class="a" d="M211,270h1.624v1.624H211Z" transform="translate(-199.575 -255.38)"/><path class="a" d="M62.624,330H61v3.249h1.624Z" transform="translate(-57.697 -312.131)"/><path class="a" d="M61,420h1.624v1.624H61Z" transform="translate(-57.697 -397.258)"/><path class="a" d="M241,60h1.624v1.624H241Z" transform="translate(-227.95 -56.751)"/><path class="a" d="M241,123.249h1.624V120H241Z" transform="translate(-227.95 -113.502)"/><path class="a" d="M242.624,211.624V210H241v3.249h6.5v-1.624Z" transform="translate(-227.95 -198.629)"/></svg>