<svg xmlns="http://www.w3.org/2000/svg" xmlns:xlink="http://www.w3.org/1999/xlink" width="356" height="195" viewBox="0 0 356 195"><defs><style>.a{fill:#f7fffc;}.b{clip-path:url(#a);}.c{opacity:0.05;}.d{fill:#fef0cd;}.e{fill:#dae7ea;}.f{fill:#adadea;}.g{fill:#e6e9f8;}.h{fill:#c6cbea;}.i{fill:#e3f4fe;}.j{fill:#2cd889;}.k{fill:#edb6a4;}.l{fill:#a8cfef;}.m{fill:#93a0ef;}.n{fill:#a7bbef;}.o{fill:#393768;}.p{fill:#e0a494;}.q{fill:#de9d00;}</style><clipPath id="a"><rect class="a" width="356" height="195" transform="translate(-0.02 -0.379)"/></clipPath></defs><g transform="translate(-1533.98 -264.621)"><g transform="translate(1534 265)"><g transform="translate(0 0)"><g class="b"><g transform="translate(53.081 -21.101)"><g transform="translate(51.981 0)"><ellipse class="c" cx="92.883" cy="6.111" rx="92.883" ry="6.111" transform="translate(31.131 208.425)"/><path class="d" d="M659.974,354.2s-79.761-.954-83.513-54.583,90.355-.346,119.843-92.877,139.431-26.776,102.084,18.928-55.113,77.621-47.481,98.485S659.974,354.2,659.974,354.2Z" transform="translate(-576.353 -160.007)"/><g transform="translate(130.986 135.964)"><path class="e" d="M879.879,527.48c.261-.012.508-.051.763-.076a16.628,16.628,0,0,0,2.158-.456,8.27,8.27,0,0,0,2.042-1.991c2.252-3,4.721-9.718-2.263-21.973-4.771-8.341-5.659-8.376-3.533-16,.1-.306.175-.619.274-.959,2.466-8.595-9.166-14.118-9.169-25.014s-13.221-8.926-8.305,1.368-8.617,19.416.983,30.014,4.146,10.968,4.5,22C867.637,524,873.406,528.02,879.879,527.48Z" transform="translate(-859.293 -453.699)"/><g transform="translate(5.522 4.926)"><path class="f" d="M887.055,533.184c-.081-.531-8.131-53.3-15.122-68.845l-.712.275c6.953,15.466,14.99,68.14,15.07,68.67Z" transform="translate(-871.221 -464.339)"/></g><path class="g" d="M876,535.827c.989.977,2.82.034,5.186-2.249,7.506-7.27,20.554-28.116,30.141-43.942,6.455-10.664,11.34-19.036,11.926-19.461a117.719,117.719,0,0,0-18.114,12.134c-10.035,8.116-21.5,20.016-26.555,34.926A48.178,48.178,0,0,0,876,535.827Z" transform="translate(-868.223 -462.547)"/><g transform="translate(7.038 17.082)"><path class="h" d="M877.961,545.879c-4.6-2.579,1.505-19.957-2.687-33.708s9.623-4.514,15.407-5.758,5.044-15.812,10.4-15.816,8.732,6.723,4.961,13.455,5.784-1.244,8.035,2.3-12.518,16-7.99,18.188,14.62-.19,4.13,10.665S887.862,551.43,877.961,545.879Z" transform="translate(-874.495 -490.597)"/><path class="g" d="M887.217,526.916l1.151.119c-.626,5.994,2.415,12.872,3.48,15.063,3.184-3.4,6.026-7.088,6.981-10.215a58.493,58.493,0,0,0,1.823-10.2c.2-1.694.416-3.4.689-5.115-.757-.982-2.982-4.074-2.308-5.622l1.061.463c-.232.532.522,2.085,1.521,3.557a30.562,30.562,0,0,1,3.669-10.287l.992.6c-3.118,5.2-3.807,10.968-4.475,16.545-.031.26-.065.523-.1.784.791.378,3.058,1.119,5.6-1.3l.8.839c-2.719,2.582-5.292,2.12-6.546,1.644a50.655,50.655,0,0,1-1.621,8.436,18.443,18.443,0,0,1-2.352,4.654c1.5,1.01,6.65,4.066,11.307,2l.47,1.058c-4.411,1.959-9.041-.073-11.383-1.437-.438-.255-.793-.486-1.055-.664-5.41,7.531-15.449,15.317-15.979,15.725l-.706-.917A114.694,114.694,0,0,0,891,542.992C890.1,541.244,886.509,533.7,887.217,526.916Z" transform="translate(-877.579 -498.159)"/></g></g></g><path class="i" d="M0,0H102.865a6.818,6.818,0,0,1,6.818,6.818V26.324a6.818,6.818,0,0,1-6.818,6.818H0a0,0,0,0,1,0,0V0A0,0,0,0,1,0,0Z" transform="translate(76.149 58.156)"/><rect class="j" width="66.502" height="7.17" rx="3.585" transform="translate(100.217 63.606)"/><rect class="j" width="66.502" height="7.17" rx="3.585" transform="translate(84.229 74.727)"/><path class="i" d="M0,0H102.865a6.818,6.818,0,0,1,6.818,6.818V26.324a6.818,6.818,0,0,1-6.818,6.818H0a0,0,0,0,1,0,0V0A0,0,0,0,1,0,0Z" transform="translate(29.828 161.177)"/><rect class="j" width="66.502" height="7.17" rx="3.585" transform="translate(53.895 166.627)"/><rect class="j" width="66.502" height="7.17" rx="3.585" transform="translate(37.908 177.748)"/><g transform="translate(0 110.159)"><rect class="i" width="109.683" height="33.142" rx="6.818"/><path class="i" d="M3.939,0H24.073a3.939,3.939,0,0,1,3.939,3.939v0a3.939,3.939,0,0,1-3.939,3.939H3.939A3.939,3.939,0,0,1,0,3.939v0A3.939,3.939,0,0,1,3.939,0Z" transform="translate(10.258 6.319)"/><path class="i" d="M602.683,458.587H524.932a3.94,3.94,0,0,1-3.94-3.94h0a3.939,3.939,0,0,1,3.94-3.939h77.752a3.939,3.939,0,0,1,3.94,3.939h0A3.94,3.94,0,0,1,602.683,458.587Z" transform="translate(-510.734 -431.949)"/></g><g transform="translate(120.498 97.86)"><g transform="translate(36.426 98.485)"><path class="k" d="M845.095,597.953s-.234,2.1.316,2.806-5.466.464-5.466.464,1.858-3.044,1.183-4.448S845.095,597.953,845.095,597.953Z" transform="translate(-838.953 -596.357)"/><path class="g" d="M851.527,610.888l-13.268-1.664a3.794,3.794,0,0,1,.545-4.347,11.973,11.973,0,0,0,6.106-.154,23.444,23.444,0,0,0,6.833,4.444C852.643,609.684,852.392,610.268,851.527,610.888Z" transform="translate(-837.803 -600.85)"/><rect class="l" width="13.393" height="0.573" transform="translate(13.653 10.607) rotate(-172.852)"/></g><g transform="translate(21.996 101.792)"><path class="k" d="M815.648,605.906s-.692,1.995-.312,2.806-5.433-.757-5.433-.757,2.485-2.558,2.137-4.076S815.648,605.906,815.648,605.906Z" transform="translate(-808.389 -603.501)"/><path class="g" d="M819.505,620.037l-12.572-4.557a3.8,3.8,0,0,1,1.494-4.119,11.97,11.97,0,0,0,5.989,1.2,23.433,23.433,0,0,0,5.68,5.846C820.86,619.11,820.486,619.624,819.505,620.037Z" transform="translate(-806.718 -607.723)"/><rect class="l" width="13.393" height="0.573" transform="translate(12.591 12.854) rotate(-160.073)"/></g><path class="m" d="M787.456,545.546l4.434.98L803.1,507.274l-30.531-16.192-7.247,11.168a245.923,245.923,0,0,0,28.35,6.978C791.319,513.8,789.348,531.244,787.456,545.546Z" transform="translate(-762.449 -441.334)"/><path class="n" d="M766.761,483.406c14.106,2.288,36.955,8.026,38.019,11.162,1.848,5.408-.155,27.531-.907,44.346l-5.234-.344c-1.076-14.573-2.828-33.32-2.3-37.991-9.629,1.158-30,.742-32.272-1.519C762.4,497.813,760.471,486.737,766.761,483.406Z" transform="translate(-760.894 -437.211)"/><path class="g" d="M782.962,453.352c-.347.094-.679.189-1.026.269-.142.047-.3.079-.458.126-.016,0-.031.016-.063.016-.079.016-.158.048-.237.063a.022.022,0,0,1-.032,0c-1.325.347-2.62.679-3.93.978a60.463,60.463,0,0,1-11.032,1.657,13.8,13.8,0,0,1-4.939-.569,5.973,5.973,0,0,1-1.058-.5c.174-1.8.332-3.646.505-5.492.268-3.125.552-6.265.837-9.343.047-.521.095-1.042.142-1.547.094-.82.173-1.625.252-2.415.852-8.19,1.878-15.4,3.409-19.253a33.76,33.76,0,0,1,3.819-.821c.71-.094,1.4-.189,2.115-.237a28.807,28.807,0,0,1,4.671.047.348.348,0,0,1,.126.016,27.791,27.791,0,0,1,5,.994c.631,3.851.394,11.963.726,21.163.111,3.441.316,7.038.679,10.637.047.505.094,1.026.158,1.531,0,.047.016.11.016.157C782.742,451.663,782.852,452.515,782.962,453.352Z" transform="translate(-759.694 -401.122)"/><path class="o" d="M805.282,418.652c2.672,1.381,4.649,3.2,5.032,6.031L811,437.3l14.672,13.427s-1.62,1.963-2.024,1.961c-.431,0-17.84-11.482-17.5-12.349C805.453,438.069,805.463,427.181,805.282,418.652Z" transform="translate(-783.911 -402.435)"/><path class="o" d="M781.251,450.639l-.757,1.12-.837,1.215v.016l-.441.632v.031c-1.484-1.089-3.031-2.162-4.577-3.2-6.313-4.277-12.5-8.017-13.509-10.021-.016-.031-.016-.079-.032-.111-.268-1.2-.521-2.335-.726-3.409a53.4,53.4,0,0,1-1.215-13.367c-.032-2.793,3.834-4.482,5.6-4.892l1.784,19Z" transform="translate(-759.119 -402.433)"/><path class="p" d="M778.888,408.622c-2.673,3.108,10.715,5.224,6.978-.172a9.77,9.77,0,0,1,.468-6.3L778.5,401A9.577,9.577,0,0,1,778.888,408.622Z" transform="translate(-769.53 -392.953)"/><path class="k" d="M777.081,397.05c1.391,2.1,3.8,3.962,6.636,3.51.945-.214,5.693-7.2,5.15-11.677l-8.4-3.506-4.287,4.811A13.316,13.316,0,0,0,777.081,397.05Z" transform="translate(-768.218 -384.565)"/><path class="g" d="M825.082,479.32l-20.133,2.967,4.871-12.374,20.133-2.967Z" transform="translate(-783.732 -428.371)"/><path class="o" d="M780.668,390.389c2.87,1.292,5.591,2.292,7.311,1.331,1.664-1.241,2.267-1.353,2.543-2.815-.366-1.109-.536-3.353-1.452-4.234a11.835,11.835,0,0,1-8.26-.99c-2.539-.33-4.136.74-5.679,2.254-1.205,1.464-.838,3.7-.293,7.665.439,1.805.962,1.781,1.765,3.578.744.4,1.732-1.734,1.579-2.488a6.3,6.3,0,0,1-1.16-2.629,1.655,1.655,0,0,1,1.2-1.2,1.222,1.222,0,0,1,.84,1.421A2.358,2.358,0,0,0,780.668,390.389Z" transform="translate(-767.287 -383.622)"/><path class="k" d="M804.555,487.233a8.162,8.162,0,0,1,2.608-.428c.492.04,1.854-.024,1.935.581-.141,1.506-2.1,3.216-3.344,4.157a3.739,3.739,0,0,1-2.465.016,2.384,2.384,0,0,1-.767-1.344Z" transform="translate(-782.43 -439.035)"/><path class="k" d="M849.294,482.056a3.624,3.624,0,0,0-2.164-.529,1.653,1.653,0,0,0-1.261.919c-.37,1.471.169,2.447.944,3.714.562.35.776.238,1,.168C848.535,486.261,849.717,482.251,849.294,482.056Z" transform="translate(-805.645 -436.201)"/><path class="c" d="M781.993,478.522l-.647.237s-.079-.047-.205-.126a.121.121,0,0,1-.063-.031c-1.042-.6-4.829-2.317-5.334-2.238a10.988,10.988,0,0,1-2.482-1.025,50.77,50.77,0,0,1-6.7-3.643,32.246,32.246,0,0,0-2.951-3.715c-.189-.142-.363-.851-.521-.977.047-.521.095-1.042.142-1.547,0,0,5.065,4.087,6.139,4.782,1.089.679,6.817,3.441,8.443,4.34a10.315,10.315,0,0,1,2.083,1.689c.773.742,1.468,1.515,1.831,1.941v.016C781.9,478.411,781.993,478.522,781.993,478.522Z" transform="translate(-761.25 -427.57)"/></g></g><rect class="j" width="18" height="7" rx="3.5" transform="translate(85.98 108.621)"/><rect class="j" width="58" height="9" rx="4" transform="translate(85.98 95.621)"/></g><rect class="j" width="15" height="9" rx="4" transform="translate(64.98 95.621)"/><path class="q" d="M195.089,95.649a2.091,2.091,0,1,0,1.8,1.029l1.514-1.514,1.847,1.846a.522.522,0,0,0,.739-.739l-.369-.369,4.674-4.674h0l.738-.738a1.569,1.569,0,0,0,.306-1.783l1.172-1.171a1.569,1.569,0,0,0,.306-1.783l2.86-2.86a.522.522,0,0,0-.739-.738l-2.86,2.86a1.569,1.569,0,0,0-1.783.306l-1.171,1.171a1.569,1.569,0,0,0-1.783.306l-5.413,5.413-.369-.369a.522.522,0,0,0-.738.739l1.846,1.847-1.514,1.514A2.074,2.074,0,0,0,195.089,95.649Zm10.941-9.591a.522.522,0,0,1,.739.739L205.661,87.9l-.739-.739Zm-2.954,1.477a.523.523,0,0,1,.739,0l1.477,1.477a.523.523,0,0,1,0,.738l-.369.369-1.108-1.108a.522.522,0,0,0-.739.738l1.108,1.108-.739.739-1.108-1.108a.522.522,0,0,0-.738.739l1.108,1.108-.828.828-1.108-1.108a.522.522,0,0,0-.738.739L201.14,93.9l-1.261,1.261-2.216-2.216Zm-7.987,11.247a1.045,1.045,0,1,1,1.044-1.045A1.046,1.046,0,0,1,195.089,98.783Z" transform="translate(67.679 -27.062)"/><path class="q" d="M2.089,13.648a2.091,2.091,0,1,0,1.8,1.029L5.4,13.163,7.248,15.01a.522.522,0,0,0,.738-.739L7.618,13.9l4.674-4.674h0l.738-.738a1.569,1.569,0,0,0,.306-1.783l1.172-1.171a1.569,1.569,0,0,0,.306-1.783l2.86-2.86a.522.522,0,0,0-.739-.739l-2.86,2.86a1.569,1.569,0,0,0-1.783.306L11.12,4.49A1.569,1.569,0,0,0,9.337,4.8L3.925,10.209,3.555,9.84a.522.522,0,0,0-.739.739l1.846,1.847L3.149,13.939A2.074,2.074,0,0,0,2.089,13.648ZM13.03,4.058a.522.522,0,1,1,.739.739L12.661,5.9l-.739-.739ZM10.076,5.535a.523.523,0,0,1,.738,0l1.477,1.477a.523.523,0,0,1,0,.739l-.369.369L10.814,7.012a.522.522,0,0,0-.739.739l1.108,1.108-.738.739L9.337,8.489a.522.522,0,0,0-.738.739l1.108,1.108-.828.828L7.771,10.056a.522.522,0,1,0-.738.739L8.14,11.9,6.879,13.163,4.663,10.947ZM2.089,16.782a1.045,1.045,0,1,1,1.044-1.045A1.046,1.046,0,0,1,2.089,16.782Z" transform="translate(30.632 143.666) rotate(-83)"/></g></g></g></svg>