<svg xmlns="http://www.w3.org/2000/svg" xmlns:xlink="http://www.w3.org/1999/xlink" width="777" height="336" viewBox="0 0 777 336"><defs><style>.a{fill:#f7fffc;}.b{clip-path:url(#a);}.c{fill:#fcfcfc;}.d{opacity:0.05;}.e{fill:#fef0cd;}.f{fill:#dae7ea;}.g{fill:#adadea;}.h{fill:#e6e9f8;}.i{fill:#c6cbea;}.j{fill:#e3f4fe;}.k{fill:#2cd889;}.l{fill:#edb6a4;}.m{fill:#a8cfef;}.n{fill:#93a0ef;}.o{fill:#a7bbef;}.p{fill:#393768;}.q{fill:#e0a494;}.r{fill:#de9d00;}</style><clipPath id="a"><rect class="a" width="777" height="336" transform="translate(0 743)"/></clipPath></defs><g transform="translate(0 -743)"><g class="b"><rect class="c" width="1921" height="568" transform="translate(-1 1074)"/><g transform="translate(-358.834 530.993)"><g transform="translate(599.833 171.007)"><ellipse class="d" cx="180.471" cy="11.875" rx="180.471" ry="11.875" transform="translate(60.488 404.969)"/><path class="e" d="M738.83,537.327s-154.976-1.853-162.266-106.056,175.559-.672,232.855-180.459,270.914-52.026,198.349,36.776S900.683,438.405,915.513,478.945,738.83,537.327,738.83,537.327Z" transform="translate(-576.353 -160.007)"/><g transform="translate(254.505 264.177)"><path class="f" d="M899.292,597.055c.507-.023.988-.1,1.481-.148a32.324,32.324,0,0,0,4.193-.885,16.064,16.064,0,0,0,3.967-3.868c4.376-5.839,9.173-18.882-4.4-42.693-9.269-16.207-11-16.276-6.865-31.089.191-.594.34-1.2.533-1.863,4.792-16.7-17.809-27.43-17.815-48.6s-25.688-17.343-16.137,2.658c9.564,20.027-16.743,37.726,1.909,58.317,18.623,20.6,8.055,21.311,8.74,42.74C875.5,590.294,886.714,598.1,899.292,597.055Z" transform="translate(-859.293 -453.699)"/><g transform="translate(10.729 9.57)"><path class="g" d="M901.987,598.1c-.156-1.033-15.8-103.552-29.381-133.766l-1.384.535c13.51,30.051,29.126,132.395,29.281,133.425Z" transform="translate(-871.221 -464.339)"/></g><path class="h" d="M876.083,597.738c1.922,1.9,5.479.066,10.077-4.371,14.584-14.125,39.936-54.628,58.564-85.38C957.266,487.266,966.757,471,967.9,470.174a228.745,228.745,0,0,0-35.2,23.577c-19.5,15.769-41.774,38.89-51.6,67.861A93.619,93.619,0,0,0,876.083,597.738Z" transform="translate(-860.964 -455.355)"/><g transform="translate(13.674 33.189)"><path class="i" d="M881.23,598.009c-8.936-5.01,2.925-38.776-5.221-65.5s18.7-8.77,29.936-11.187,9.8-30.723,20.213-30.73,16.967,13.063,9.638,26.143,11.238-2.417,15.613,4.468-24.322,31.083-15.525,35.34,28.406-.369,8.025,20.722S900.468,608.8,881.23,598.009Z" transform="translate(-874.495 -490.597)"/><path class="h" d="M893.8,547.887l2.236.232c-1.216,11.647,4.692,25.01,6.761,29.268,6.186-6.6,11.708-13.772,13.563-19.848,1.925-6.3,2.711-12.871,3.542-19.824.394-3.291.808-6.616,1.339-9.939-1.471-1.909-5.794-7.915-4.484-10.923l2.062.9c-.451,1.034,1.016,4.052,2.955,6.911a59.376,59.376,0,0,1,7.128-19.987l1.928,1.157c-6.058,10.1-7.4,21.31-8.7,32.147-.06.5-.127,1.016-.188,1.523,1.537.734,5.942,2.175,10.888-2.524l1.548,1.631c-5.284,5.017-10.283,4.119-12.72,3.193a98.393,98.393,0,0,1-3.15,16.392,35.852,35.852,0,0,1-4.569,9.043c2.918,1.962,12.92,7.9,21.969,3.881l.913,2.056c-8.571,3.806-17.567-.142-22.118-2.792-.852-.5-1.54-.944-2.049-1.29-10.511,14.633-30.018,29.76-31.048,30.554l-1.372-1.782a222.859,222.859,0,0,0,20.9-18.743C899.407,575.727,892.423,561.063,893.8,547.887Z" transform="translate(-875.072 -492.012)"/></g></g></g><path class="j" d="M0,0H206.3a6.818,6.818,0,0,1,6.818,6.818V57.576a6.818,6.818,0,0,1-6.818,6.818H0a0,0,0,0,1,0,0V0A0,0,0,0,1,0,0Z" transform="translate(646.792 284.003)"/><rect class="k" width="129.213" height="13.932" rx="6.966" transform="translate(693.555 294.593)"/><rect class="k" width="129.213" height="13.932" rx="6.966" transform="translate(662.491 316.2)"/><path class="j" d="M0,0H206.3a6.818,6.818,0,0,1,6.818,6.818V57.576a6.818,6.818,0,0,1-6.818,6.818H0a0,0,0,0,1,0,0V0A0,0,0,0,1,0,0Z" transform="translate(556.79 484.173)"/><rect class="k" width="129.213" height="13.932" rx="6.966" transform="translate(603.552 494.762)"/><rect class="k" width="129.213" height="13.932" rx="6.966" transform="translate(572.489 516.37)"/><g transform="translate(498.834 385.045)"><rect class="j" width="213.113" height="64.394" rx="6.818"/><path class="j" d="M7.654,0H46.774a7.654,7.654,0,0,1,7.654,7.654v0a7.654,7.654,0,0,1-7.654,7.654H7.654A7.654,7.654,0,0,1,0,7.654v0A7.654,7.654,0,0,1,7.654,0Z" transform="translate(19.931 12.277)"/><path class="j" d="M679.718,466.017H528.647a7.655,7.655,0,0,1-7.655-7.655h0a7.654,7.654,0,0,1,7.655-7.654H679.718a7.654,7.654,0,0,1,7.655,7.654h0A7.655,7.655,0,0,1,679.718,466.017Z" transform="translate(-501.061 -414.26)"/></g><g transform="translate(732.961 361.149)"><g transform="translate(70.776 191.356)"><path class="l" d="M849.95,599.459s-.454,4.077.614,5.452-10.62.9-10.62.9,3.61-5.915,2.3-8.642S849.95,599.459,849.95,599.459Z" transform="translate(-838.018 -596.357)"/><path class="h" d="M864.469,616.7l-25.78-3.233c-1.527-2.927-1.023-5.733,1.059-8.446a23.263,23.263,0,0,0,11.864-.3c3.017,3.2,7.765,6,13.277,8.635C866.638,614.363,866.15,615.5,864.469,616.7Z" transform="translate(-837.802 -597.198)"/><rect class="m" width="26.023" height="1.114" transform="translate(26.527 20.61) rotate(-172.852)"/></g><g transform="translate(42.739 197.782)"><path class="l" d="M821.066,608.174s-1.345,3.876-.607,5.453-10.556-1.471-10.556-1.471,4.828-4.97,4.153-7.92S821.066,608.174,821.066,608.174Z" transform="translate(-806.961 -603.501)"/><path class="h" d="M831.494,628.219l-24.427-8.855c-.84-3.192.272-5.818,2.9-8a23.259,23.259,0,0,0,11.636,2.331c2.234,3.788,6.244,7.574,11.037,11.358C834.127,626.418,833.4,627.416,831.494,628.219Z" transform="translate(-806.649 -604.291)"/><rect class="m" width="26.023" height="1.114" transform="translate(24.465 24.975) rotate(-160.073)"/></g><path class="n" d="M808.331,596.906l8.615,1.9,21.776-76.267L779.4,491.082l-14.081,21.7c19.645,6.162,45.2,12.068,55.085,13.558C815.838,535.232,812.007,569.117,808.331,596.906Z" transform="translate(-759.742 -394.421)"/><path class="o" d="M770.851,483.406c27.408,4.446,71.8,15.595,73.872,21.688,3.59,10.508-.3,53.492-1.763,86.165l-10.169-.667c-2.091-28.315-5.494-64.741-4.47-73.817-18.709,2.251-58.292,1.442-62.705-2.951C762.384,511.4,758.629,489.878,770.851,483.406Z" transform="translate(-759.451 -393.65)"/><path class="h" d="M804.437,488.379c-.675.183-1.319.368-1.993.522-.276.092-.583.153-.89.245-.031,0-.061.031-.122.031-.153.031-.307.093-.46.123a.043.043,0,0,1-.062,0c-2.575.675-5.09,1.319-7.635,1.9a117.473,117.473,0,0,1-21.434,3.22,26.81,26.81,0,0,1-9.6-1.1,11.627,11.627,0,0,1-2.055-.98c.337-3.5.644-7.084.981-10.672.522-6.072,1.073-12.173,1.625-18.153.092-1.012.184-2.024.276-3.005.184-1.594.337-3.158.49-4.692,1.656-15.914,3.649-29.927,6.623-37.409a65.546,65.546,0,0,1,7.421-1.595c1.38-.183,2.729-.368,4.109-.46a55.987,55.987,0,0,1,9.077.092.673.673,0,0,1,.245.031,54,54,0,0,1,9.721,1.932c1.227,7.482.766,23.243,1.41,41.12.215,6.685.614,13.676,1.319,20.668.092.981.184,1.993.307,2.975,0,.092.031.214.031.306C804.008,485.1,804.222,486.753,804.437,488.379Z" transform="translate(-759.227 -386.897)"/><path class="p" d="M805.282,418.652c5.191,2.684,9.033,6.222,9.778,11.718l1.322,24.52,28.508,26.089s-3.148,3.814-3.933,3.809c-.836,0-34.663-22.309-34-23.993C805.614,456.379,805.634,435.224,805.282,418.652Z" transform="translate(-763.758 -387.142)"/><path class="p" d="M802.122,480.8l-1.472,2.177-1.625,2.361v.031l-.858,1.227v.061c-2.883-2.116-5.888-4.2-8.893-6.225-12.266-8.31-24.286-15.578-26.248-19.471-.031-.061-.031-.154-.061-.215-.522-2.331-1.012-4.538-1.41-6.623a103.754,103.754,0,0,1-2.361-25.972c-.062-5.428,7.451-8.709,10.885-9.506l3.466,36.919Z" transform="translate(-759.119 -387.142)"/><path class="q" d="M779.25,415.813c-5.193,6.038,20.819,10.151,13.559-.335-1.175-3.329-.705-7.831.909-12.24L778.5,401A18.609,18.609,0,0,1,779.25,415.813Z" transform="translate(-761.067 -385.368)"/><path class="l" d="M778.043,408.057c2.7,4.075,7.391,7.7,12.893,6.821,1.836-.417,11.062-13.989,10.007-22.688l-16.328-6.812-8.328,9.349A25.867,25.867,0,0,0,778.043,408.057Z" transform="translate(-760.822 -383.798)"/><path class="h" d="M844.067,490.989l-39.118,5.765,9.465-24.044,39.119-5.765Z" transform="translate(-763.725 -391.996)"/><path class="p" d="M786.647,396.77c5.576,2.51,10.863,4.452,14.2,2.587,3.233-2.411,4.406-2.629,4.942-5.47-.711-2.155-1.041-6.514-2.822-8.226-5.045,1.467-10.57.6-16.05-1.923-4.933-.64-8.035,1.437-11.034,4.379-2.342,2.845-1.629,7.182-.568,14.892.852,3.508,1.87,3.461,3.429,6.952,1.445.772,3.365-3.369,3.067-4.835-1.127-1.851-2.25-3.7-2.253-5.108a3.216,3.216,0,0,1,2.327-2.328,2.374,2.374,0,0,1,1.633,2.761C785.269,399.624,786.519,398.515,786.647,396.77Z" transform="translate(-760.648 -383.622)"/><path class="l" d="M806.472,487.641a15.864,15.864,0,0,1,5.067-.832c.955.078,3.6-.047,3.761,1.13-.274,2.926-4.085,6.248-6.5,8.077-1.359.285-3.262.827-4.79.031a4.637,4.637,0,0,1-1.49-2.612Z" transform="translate(-763.481 -393.991)"/><path class="l" d="M852.637,482.557a7.044,7.044,0,0,0-4.205-1.028,3.212,3.212,0,0,0-2.449,1.786c-.72,2.858.329,4.754,1.834,7.216,1.092.68,1.508.463,1.946.326C851.161,490.727,853.457,482.935,852.637,482.557Z" transform="translate(-767.825 -393.461)"/><path class="d" d="M799.822,490.844l-1.257.46s-.154-.092-.4-.246a.234.234,0,0,1-.123-.061c-2.024-1.165-9.383-4.5-10.364-4.349a21.352,21.352,0,0,1-4.822-1.992c-5-2.422-12.1-6.067-13.024-7.079-1.319-1.533-3.741-5.562-5.734-7.218-.368-.276-.705-1.653-1.012-1.9.092-1.012.183-2.024.276-3.005,0,0,9.842,7.942,11.928,9.291,2.116,1.319,13.246,6.685,16.405,8.433a20.021,20.021,0,0,1,4.047,3.281c1.5,1.441,2.852,2.943,3.557,3.772v.031C799.638,490.629,799.822,490.844,799.822,490.844Z" transform="translate(-759.518 -391.846)"/></g></g><rect class="k" width="32" height="15" rx="4" transform="translate(205 953)"/><rect class="k" width="113" height="15" rx="4" transform="translate(205 932)"/></g><path class="r" d="M197.059,108.519a4.063,4.063,0,1,0,3.5,2l2.941-2.942,3.588,3.588a1.015,1.015,0,0,0,1.435-1.435l-.717-.718,9.081-9.081h0l1.435-1.435a3.048,3.048,0,0,0,.594-3.464l2.276-2.276a3.049,3.049,0,0,0,.594-3.464l5.558-5.558A1.015,1.015,0,1,0,225.9,82.3l-5.558,5.558a3.049,3.049,0,0,0-3.464.594l-2.276,2.276a3.049,3.049,0,0,0-3.464.594l-10.517,10.517-.718-.718a1.015,1.015,0,0,0-1.435,1.435l3.588,3.588-2.941,2.941A4.031,4.031,0,0,0,197.059,108.519Zm21.259-18.635a1.015,1.015,0,0,1,1.435,1.435L217.6,93.472l-1.435-1.435Zm-5.74,2.87a1.016,1.016,0,0,1,1.435,0l2.87,2.87a1.016,1.016,0,0,1,0,1.435l-.717.718-2.153-2.153a1.015,1.015,0,0,0-1.435,1.435l2.153,2.153-1.435,1.435L211.142,98.5a1.015,1.015,0,1,0-1.435,1.435l2.152,2.152-1.609,1.609-2.153-2.153a1.015,1.015,0,0,0-1.435,1.435l2.152,2.152-2.45,2.45-4.305-4.305Zm-15.518,21.853a2.029,2.029,0,1,1,2.029-2.03A2.032,2.032,0,0,1,197.059,114.608Z" transform="translate(350.363 767.745)"/><path class="r" d="M197.059,108.519a4.063,4.063,0,1,0,3.5,2l2.941-2.942,3.588,3.588a1.015,1.015,0,0,0,1.435-1.435l-.717-.718,9.081-9.081h0l1.435-1.435a3.048,3.048,0,0,0,.594-3.464l2.276-2.276a3.049,3.049,0,0,0,.594-3.464l5.558-5.558A1.015,1.015,0,1,0,225.9,82.3l-5.558,5.558a3.049,3.049,0,0,0-3.464.594l-2.276,2.276a3.049,3.049,0,0,0-3.464.594l-10.517,10.517-.718-.718a1.015,1.015,0,0,0-1.435,1.435l3.588,3.588-2.941,2.941A4.031,4.031,0,0,0,197.059,108.519Zm21.259-18.635a1.015,1.015,0,0,1,1.435,1.435L217.6,93.472l-1.435-1.435Zm-5.74,2.87a1.016,1.016,0,0,1,1.435,0l2.87,2.87a1.016,1.016,0,0,1,0,1.435l-.717.718-2.153-2.153a1.015,1.015,0,0,0-1.435,1.435l2.153,2.153-1.435,1.435L211.142,98.5a1.015,1.015,0,1,0-1.435,1.435l2.152,2.152-1.609,1.609-2.153-2.153a1.015,1.015,0,0,0-1.435,1.435l2.152,2.152-2.45,2.45-4.305-4.305Zm-15.518,21.853a2.029,2.029,0,1,1,2.029-2.03A2.032,2.032,0,0,1,197.059,114.608Z" transform="translate(-8.529 1203.711) rotate(-83)"/></g></svg>