<svg width="14" height="14" viewBox="0 0 14 14" fill="none" xmlns="http://www.w3.org/2000/svg">
<path d="M7 0C5.1435 0 3.36289 0.737447 2.05026 2.05026C0.737447 3.36297 0 5.14342 0 7C0 8.85658 0.737447 10.6371 2.05026 11.9497C3.36297 13.2626 5.14342 14 7 14C8.85658 14 10.6371 13.2626 11.9497 11.9497C13.2626 10.637 14 8.85658 14 7C14 5.14342 13.2626 3.36289 11.9497 2.05026C10.637 0.737447 8.85658 0 7 0ZM7.06486 12.1682C5.70776 12.1226 4.42144 11.5515 3.47749 10.5753C2.53363 9.59918 2.00597 8.2945 2.00597 6.93666C2.00597 5.57871 2.53363 4.27403 3.47749 3.29797C4.42147 2.32182 5.70776 1.75068 7.06486 1.70516V12.1682Z" fill="#F6F8FC"/>
</svg>
