<svg width="21" height="19" viewBox="0 0 21 19" fill="none" xmlns="http://www.w3.org/2000/svg">
<path fill-rule="evenodd" clip-rule="evenodd" d="M20 3.45006C19.4832 4.13912 18.8585 4.74019 18.15 5.23006C18.15 5.41006 18.15 5.59006 18.15 5.78006C18.1528 7.39827 17.8337 9.00088 17.2111 10.4946C16.5886 11.9882 15.6752 13.3432 14.5239 14.4804C13.3727 15.6177 12.0068 16.5145 10.5056 17.1188C9.00444 17.723 7.39806 18.0226 5.78 18.0001C3.89043 18.0064 2.02506 17.5751 0.330003 16.7401C0.285283 16.7205 0.247253 16.6884 0.220599 16.6475C0.193945 16.6066 0.179833 16.5589 0.180003 16.5101V16.4001C0.180003 16.3311 0.207396 16.265 0.256155 16.2162C0.304915 16.1675 0.371047 16.1401 0.440003 16.1401C2.29741 16.0789 4.08855 15.4352 5.56 14.3001C4.73621 14.2835 3.93389 14.0343 3.2456 13.5814C2.55731 13.1284 2.01111 12.4901 1.67 11.7401C1.65271 11.6989 1.64629 11.6541 1.65135 11.6098C1.65641 11.5655 1.67278 11.5232 1.69889 11.487C1.72501 11.4509 1.75998 11.422 1.80045 11.4033C1.84093 11.3846 1.88554 11.3766 1.93 11.3801C2.44096 11.4314 2.95702 11.3839 3.45 11.2401C2.54548 11.0524 1.72394 10.5823 1.10388 9.8975C0.483813 9.21273 0.0972714 8.34871 2.91987e-06 7.43006C-0.00348499 7.3856 0.00452326 7.34098 0.0232578 7.30051C0.0419923 7.26004 0.0708231 7.22506 0.106979 7.19895C0.143135 7.17284 0.1854 7.15646 0.229712 7.1514C0.274023 7.14635 0.318891 7.15277 0.360003 7.17006C0.858049 7.38972 1.39569 7.50541 1.94 7.51006C1.14923 6.99128 0.552549 6.22519 0.243181 5.33146C-0.0661865 4.43773 -0.0708206 3.4667 0.230003 2.57006C0.261393 2.48198 0.315117 2.40356 0.385913 2.34248C0.45671 2.2814 0.542154 2.23975 0.633881 2.22161C0.725608 2.20346 0.820474 2.20945 0.909193 2.23898C0.997913 2.26851 1.07744 2.32057 1.14 2.39006C3.33449 4.72454 6.34974 6.11564 9.55 6.27006C9.46803 5.94311 9.42771 5.60712 9.43 5.27006C9.44464 4.40591 9.71577 3.5656 10.209 2.85586C10.7022 2.14612 11.3952 1.59897 12.2 1.28391C13.0048 0.968846 13.8851 0.900081 14.729 1.08635C15.573 1.27262 16.3426 1.70551 16.94 2.33006C17.7729 2.17147 18.5781 1.89184 19.33 1.50006C19.357 1.48321 19.3882 1.47428 19.42 1.47428C19.4518 1.47428 19.483 1.48321 19.51 1.50006C19.5268 1.52706 19.5358 1.55824 19.5358 1.59006C19.5358 1.62188 19.5268 1.65306 19.51 1.68006C19.1458 2.51366 18.5305 3.21283 17.75 3.68006C18.4335 3.60083 19.105 3.43968 19.75 3.20006C19.7765 3.182 19.8079 3.17235 19.84 3.17235C19.8721 3.17235 19.9035 3.182 19.93 3.20006C19.9525 3.21034 19.9724 3.22539 19.9885 3.24418C20.0046 3.26296 20.0163 3.28502 20.023 3.30882C20.0297 3.33262 20.0311 3.35758 20.0271 3.38198C20.0231 3.40637 20.0139 3.4296 20 3.45006Z" fill="#8D9091"/>
</svg>
