<svg width="22" height="16" viewBox="0 0 22 16" fill="none" xmlns="http://www.w3.org/2000/svg">
<path d="M19 0.490046L17.54 0.340046C13.1716 -0.109931 8.76844 -0.109931 4.39999 0.340046L2.99999 0.490046C2.16575 0.584337 1.39645 0.985733 0.841897 1.61607C0.287344 2.24642 -0.0127692 3.06058 -5.72726e-06 3.90005V12.1C-0.0127692 12.9395 0.287344 13.7537 0.841897 14.384C1.39645 15.0144 2.16575 15.4158 2.99999 15.51L4.45999 15.66C8.82844 16.11 13.2316 16.11 17.6 15.66L19 15.51C19.8342 15.4158 20.6035 15.0144 21.1581 14.384C21.7126 13.7537 22.0128 12.9395 22 12.1V3.90005C22.0128 3.06058 21.7126 2.24642 21.1581 1.61607C20.6035 0.985733 19.8342 0.584337 19 0.490046ZM14 8.62005L10.11 11.22C9.99857 11.2812 9.87343 11.3131 9.74632 11.3126C9.61921 11.3121 9.4943 11.2794 9.38333 11.2174C9.27235 11.1554 9.17895 11.0662 9.1119 10.9582C9.04485 10.8503 9.00634 10.727 8.99999 10.6V5.40005C9.00024 5.26401 9.03749 5.1306 9.10774 5.0141C9.17799 4.8976 9.27861 4.80241 9.39882 4.73871C9.51902 4.67501 9.65429 4.64521 9.79013 4.65249C9.92598 4.65977 10.0573 4.70386 10.17 4.78005L14.06 7.38005C14.1632 7.44727 14.2479 7.53918 14.3066 7.64745C14.3653 7.75571 14.396 7.8769 14.396 8.00005C14.396 8.12319 14.3653 8.24438 14.3066 8.35265C14.2479 8.46091 14.1632 8.55282 14.06 8.62005H14Z" fill="#8D9091"/>
</svg>
