<svg xmlns="http://www.w3.org/2000/svg" xmlns:xlink="http://www.w3.org/1999/xlink" width="27.202" height="24.248" viewBox="0 0 27.202 24.248"><defs><style>.a{fill:#646d82;}.b{clip-path:url(#a);}</style><clipPath id="a"><rect class="a" width="27.202" height="24.248"/></clipPath></defs><g class="b"><path class="a" d="M26.912,9.578,14.018.137a.707.707,0,0,0-.835,0L.289,9.578a.707.707,0,1,0,.835,1.141L13.6,1.583l12.476,9.135a.707.707,0,0,0,.835-1.141" transform="translate(0.001 0)"/><path class="a" d="M76.95,204.746a.707.707,0,0,0-.707.707V216.7H70.589v-6.141a3.534,3.534,0,1,0-7.068,0V216.7H57.867v-11.25a.707.707,0,0,0-1.414,0v11.957a.707.707,0,0,0,.707.707h7.068a.706.706,0,0,0,.7-.652.534.534,0,0,0,0-.055v-6.848a2.121,2.121,0,0,1,4.241,0v6.848a.509.509,0,0,0,0,.054.706.706,0,0,0,.7.652H76.95a.707.707,0,0,0,.707-.707V205.453a.707.707,0,0,0-.707-.707" transform="translate(-53.454 -193.868)"/></g></svg>