<svg xmlns="http://www.w3.org/2000/svg" xmlns:xlink="http://www.w3.org/1999/xlink" width="171.721" height="178.625" viewBox="0 0 171.721 178.625"><defs><style>.a{fill:#fff;}.b{fill:none;}.c{opacity:0.165;}.d{fill:#5c9ef8;}.e{fill:#f9fcff;}.f{clip-path:url(#a);}.g{fill:#eff9ff;}.h{fill:#80b7e4;}.h,.j{fill-rule:evenodd;}.i{fill:#a1cff0;}.j{fill:#3e6f97;}.k{clip-path:url(#b);}.l{fill:#de9d00;}.m{fill:#ffcd54;}.n{fill:#4e67d1;}</style><clipPath id="a"><rect class="a" width="112.564" height="147.833"/></clipPath><clipPath id="b"><rect class="b" width="46.291" height="71.79"/></clipPath></defs><g transform="translate(0)"><g class="c" transform="translate(80.273 86.938)"><path class="d" d="M17.822,0H0V17.822H17.822ZM14.258,14.258H3.564V3.564H14.258Z"/><rect class="d" width="3" height="4" transform="translate(7.448 6.688)"/><path class="d" d="M352,0V17.822h17.822V0Zm14.258,14.258H355.564V3.564h10.693Z" transform="translate(-312.791)"/><rect class="d" width="3" height="4" transform="translate(46.448 6.688)"/><path class="d" d="M0,369.822H17.822V352H0Zm3.564-14.258H14.258v10.693H3.564Z" transform="translate(0 -312.791)"/><rect class="d" width="3" height="2" transform="translate(7.448 46.688)"/><rect class="d" width="7" height="3" transform="translate(29.448 0.688)"/><path class="d" d="M199.129,42.693h3.564V39.129h3.564V35.564H195.564V32H192v7.129h7.129Z" transform="translate(-170.613 -28.436)"/><rect class="d" width="4" height="3" transform="translate(21.448 14.688)"/><path class="d" d="M206.258,160h-3.564v3.564H192v3.564h14.258Z" transform="translate(-170.613 -142.178)"/><path class="d" d="M3.564,202.693H7.129v-3.564H3.564V192H0v14.258H3.564Z" transform="translate(0 -170.613)"/><rect class="d" width="3" height="4" transform="translate(7.448 20.688)"/><path class="d" d="M106.693,206.258h7.129v-3.564h-3.564v-3.564h-7.129V192H99.564v7.129H96v7.129h3.564v-3.564h7.129Z" transform="translate(-85.307 -170.613)"/><rect class="d" width="4" height="6" transform="translate(32.448 28.688)"/><path class="d" d="M202.693,352H192v3.564h7.129v10.693H192v3.564h10.693v-3.564h7.129v-3.565h-7.129Z" transform="translate(-170.613 -312.791)"/><rect class="d" width="4" height="2" transform="translate(21.448 46.688)"/><rect class="d" width="4" height="8" transform="translate(36.448 38.688)"/><path class="d" d="M394.693,416H384v10.693h3.564v-7.129h7.129Z" transform="translate(-341.226 -369.662)"/><rect class="d" width="7" height="3" transform="translate(49.448 53.688)"/><rect class="d" width="3" height="3" transform="translate(53.448 38.688)"/><path class="d" d="M355.564,298.693h3.564V288H352v3.564h3.564Z" transform="translate(-312.791 -255.92)"/><path class="d" d="M362.693,195.564h-3.564V192h-3.564v3.564H352v3.564h14.258v-3.564h3.564V192h-7.129Z" transform="translate(-312.791 -170.613)"/><rect class="d" width="7" height="2" transform="translate(49.448 32.688)"/></g><g class="c" transform="translate(23.55 160.51)"><g transform="translate(0 0)"><path class="d" d="M5.375,0H0V5.375H5.375ZM4.3,4.3H1.075V1.075H4.3Z" transform="translate(0 0.31)"/><rect class="d" width="2" height="2" transform="translate(2.171 2.115)"/><path class="d" d="M352,0V5.375h5.375V0Zm4.3,4.3h-3.225V1.075H356.3Z" transform="translate(-340.176 0.31)"/><rect class="d" height="2" transform="translate(14.171 2.115)"/><path class="d" d="M0,357.375H5.375V352H0Zm1.075-4.3H4.3V356.3H1.075Z" transform="translate(0 -339.866)"/><rect class="d" width="2" transform="translate(2.171 15.115)"/><rect class="d" width="1" height="1" transform="translate(9.171 0.115)"/><path class="d" d="M194.15,35.225h1.075V34.15H196.3V33.075h-3.225V32H192v2.15h2.15Z" transform="translate(-185.55 -30.615)"/><rect class="d" width="1" height="2" transform="translate(7.171 4.115)"/><path class="d" d="M196.3,160h-1.075v1.075H192v1.075h4.3Z" transform="translate(-185.55 -154.315)"/><path class="d" d="M1.075,195.225H2.15V194.15H1.075V192H0v4.3H1.075Z" transform="translate(0 -185.24)"/><rect class="d" width="2" height="1" transform="translate(2.171 7.115)"/><path class="d" d="M99.225,196.3h2.15v-1.075H100.3V194.15H98.15V192H97.075v2.15H96v2.15h1.075v-1.075h2.15Z" transform="translate(-92.775 -185.24)"/><rect class="d" width="1" height="2" transform="translate(9.171 9.115)"/><path class="d" d="M195.225,352H192v1.075h2.15V356.3H192v1.075h3.225V356.3h2.15v-1.075h-2.15Z" transform="translate(-185.55 -339.866)"/><rect class="d" width="1" transform="translate(7.171 15.115)"/><rect class="d" width="1" height="3" transform="translate(10.171 12.115)"/><path class="d" d="M387.225,416H384v3.225h1.075v-2.15h2.15Z" transform="translate(-371.101 -401.716)"/><rect class="d" width="3" transform="translate(14.171 17.115)"/><rect class="d" width="1" height="1" transform="translate(16.171 12.115)"/><path class="d" d="M353.075,291.225h1.075V288H352v1.075h1.075Z" transform="translate(-340.176 -278.015)"/><path class="d" d="M355.225,193.075H354.15V192h-1.075v1.075H352v1.075h4.3v-1.075h1.075V192h-2.15Z" transform="translate(-340.176 -185.24)"/><rect class="d" width="3" height="1" transform="translate(14.171 10.115)"/></g></g><circle class="e" cx="24.5" cy="24.5" r="24.5" transform="translate(122.721 129.625)"/><g transform="translate(11.041 17.303)"><g class="f" transform="translate(0 0)"><path class="g" d="M.185,109.69l5.886-2.943A26.82,26.82,0,0,0,20.8,83.033V28.986C20.843,16.76,28.542,6.48,37.024,2.741L42.514,0l70.208,35.1-.042.048-5.42,2.71C98.778,41.6,91.079,51.878,91.038,64.1v54.048a26.821,26.821,0,0,1-14.731,23.714l-5.887,2.943Z" transform="translate(-0.185 0.004)"/><path class="a" d="M134.262,52.387a18.306,18.306,0,0,1-13.6.029c-6.439,5.1-11.634,13.154-11.678,22.516l-.126,55.3a23.731,23.731,0,0,1-11.265,19.977,11.749,11.749,0,0,1,1.46.606c3.953,1.976,3.953,5.186,0,7.162l46.424,23.212a18.068,18.068,0,0,1,14.26-.032,23.735,23.735,0,0,0,11.153-19.909l.126-55.3c-.115-9.461,4.961-17.568,11.351-22.777a11.633,11.633,0,0,1-1.35-.567c-3.829-1.914-3.949-4.986-.36-6.973Z" transform="translate(-84.202 -44.657)"/><path class="h" d="M357.109,778.541l-70.236-35.118v3.021l70.236,35.118Z" transform="translate(-286.873 -633.729)"/><path class="i" d="M0,347.694l5.887-2.943a26.821,26.821,0,0,0,14.731-23.714V266.99c.041-12.225,7.739-22.506,16.222-26.245L42.329,238v3.021l-4.278,2.139A26.564,26.564,0,0,0,23.319,267v54.048A29.372,29.372,0,0,1,7.1,347.166L0,350.715Z" transform="translate(70.236 -202.882)"/><path class="j" d="M230.808,416.9c0-1.161.754-1.727,1.683-1.262l12.748,6.374a3.543,3.543,0,0,1,1.683,2.945c0,1.161-.754,1.727-1.683,1.262l-12.748-6.374a3.543,3.543,0,0,1-1.683-2.946" transform="translate(-168.414 -354.169)"/><path class="j" d="M293.131,204.845a2.673,2.673,0,0,1,3.8-1.338l19.761,9.88c1.107.554,1.426,2.241.8,3.787s-2.08,2.305-3.061,1.815l-20.392-10.2c-1.486-.743-1.536-2.4-.913-3.948" transform="translate(-248.445 -173.196)"/><path class="j" d="M361.1,374.108c0-1.161.754-1.727,1.683-1.262l6.151,3.075a3.543,3.543,0,0,1,1.683,2.945c0,1.161-.754,1.727-1.683,1.262l-6.151-3.075a3.543,3.543,0,0,1-1.683-2.945" transform="translate(-311.334 -317.692)"/><path class="j" d="M230.808,584.259c0-1.161.754-1.727,1.683-1.262l12.748,6.374a3.543,3.543,0,0,1,1.683,2.945c0,1.161-.754,1.727-1.683,1.262L232.491,587.2a3.543,3.543,0,0,1-1.683-2.945" transform="translate(-168.414 -496.836)"/><path class="j" d="M361.1,535.011c0-1.161.754-1.727,1.683-1.262l8.056,4.028a3.542,3.542,0,0,1,1.683,2.945c0,1.161-.754,1.727-1.683,1.262l-8.056-4.028a3.543,3.543,0,0,1-1.683-2.945" transform="translate(-313.24 -454.854)"/><path class="j" d="M442.729,337.589c0-1.161.754-1.727,1.683-1.262l4.883,2.441a3.543,3.543,0,0,1,1.683,2.945c0,1.161-.754,1.727-1.683,1.262l-4.883-2.442a3.543,3.543,0,0,1-1.683-2.945" transform="translate(-403.739 -286.562)"/><path class="j" d="M307.692,446.134c0-1.161.754-1.727,1.683-1.262l9.3,4.651a3.543,3.543,0,0,1,1.683,2.945c0,1.161-.754,1.727-1.683,1.262l-9.3-4.651a3.542,3.542,0,0,1-1.683-2.945" transform="translate(-253.196 -379.091)"/><path class="j" d="M414.659,400.673c0-1.161.754-1.727,1.683-1.262l6.935,3.467a3.542,3.542,0,0,1,1.683,2.945c0,1.161-.754,1.727-1.683,1.262l-6.935-3.467a3.542,3.542,0,0,1-1.683-2.945" transform="translate(-373.579 -340.338)"/><path class="j" d="M230.808,499.437c0-1.161.754-1.727,1.683-1.262l4.917,2.458a3.543,3.543,0,0,1,1.683,2.945c0,1.161-.754,1.727-1.683,1.262l-4.917-2.458a3.542,3.542,0,0,1-1.683-2.945" transform="translate(-160.583 -424.529)"/><path class="j" d="M230.808,520.5c0-1.161.754-1.727,1.683-1.263l15.226,7.613A3.542,3.542,0,0,1,249.4,529.8c0,1.161-.754,1.727-1.683,1.262l-15.226-7.613a3.542,3.542,0,0,1-1.683-2.945" transform="translate(-170.892 -442.487)"/><path class="j" d="M230.808,676.755c0-1.161.754-1.727,1.683-1.262l11.62,5.81a3.543,3.543,0,0,1,1.683,2.945c0,1.161-.754,1.727-1.683,1.263l-11.62-5.81a3.543,3.543,0,0,1-1.683-2.945" transform="translate(-167.286 -575.684)"/><path class="j" d="M499.034,701.5a2,2,0,0,1,2.475-.651l10.432,5.216a1.439,1.439,0,0,1,.547,2.162,2.006,2.006,0,0,1-2.476.651l-10.432-5.216a1.438,1.438,0,0,1-.546-2.162" transform="translate(-473.797 -597.276)"/><path class="j" d="M426.034,755.423a2,2,0,0,1,2.475-.651l5.291,2.645a1.438,1.438,0,0,1,.547,2.162,2,2,0,0,1-2.475.651l-5.291-2.645a1.438,1.438,0,0,1-.547-2.162" transform="translate(-384.885 -643.242)"/><path class="j" d="M377.952,470.914c0-1.161.754-1.727,1.683-1.262l8.149,4.075a3.542,3.542,0,0,1,1.683,2.945c0,1.161-.754,1.727-1.683,1.262l-8.149-4.074a3.543,3.543,0,0,1-1.683-2.945" transform="translate(-332.671 -400.214)"/></g></g><g transform="translate(4.996 46.283)"><g class="k"><path class="l" d="M2.315,2.382c-.1-.039-.2-.073-.3-.1-.063-.019-.126-.038-.188-.053s-.116-.026-.173-.037c-.075-.014-.151-.026-.224-.034-.043,0-.086-.01-.127-.013a2.663,2.663,0,0,0-.272-.005H.969a2.39,2.39,0,0,0-.313.039l-.075.018a2.084,2.084,0,0,0-.232.067c-.024.008-.048.016-.072.025A2.005,2.005,0,0,0,0,2.418L3.672.284,3.7.271a2.056,2.056,0,0,1,.213-.1c.014-.006.028-.009.042-.015S4,.135,4.021.127,4.094.1,4.132.088,4.213.069,4.253.06c.025-.006.05-.013.076-.017L4.37.033A2.351,2.351,0,0,1,4.626,0h.016c.02,0,.041,0,.061,0,.067,0,.134-.005.2,0,.023,0,.047.005.07.007.042,0,.084.008.127.013s.079.006.119.012.07.016.106.023c.057.011.115.023.173.037.032.007.062.011.094.02s.064.023.095.032c.1.03.2.064.3.1.035.014.069.021.1.036.02.008.04.022.06.03a5.056,5.056,0,0,1,.532.265L40.72,20.23a6.307,6.307,0,0,1,.661.446c.036.028.073.054.11.083a7.658,7.658,0,0,1,.6.524c.016.016.034.028.05.044s.059.065.09.1q.144.146.282.3c.03.033.061.063.091.1s.047.058.071.086c.056.066.11.133.165.2.036.045.073.087.109.133s.055.075.082.112c.039.053.079.106.117.159.027.037.056.073.082.111.044.063.085.128.128.192.027.041.055.081.082.122l.036.052q.113.177.219.358l.013.023.04.072c.05.087.1.174.146.262.021.04.041.081.061.122l.064.126c.019.038.039.075.057.112.048.1.092.2.136.3l.025.054.007.016q.083.189.156.38c.009.023.016.047.025.07.017.045.033.091.049.136.023.065.048.129.07.194.016.049.03.1.045.149s.036.116.053.174c.011.036.023.073.033.109.018.064.031.129.047.193s.037.145.053.217c.006.025.013.051.019.076.011.052.017.1.027.155.022.113.042.226.058.338,0,.031.012.063.016.093s0,.057.005.086a6.328,6.328,0,0,1,.048.742l-.111,39.115A2.96,2.96,0,0,1,43.6,69.369L39.926,71.5a2.962,2.962,0,0,0,1.235-2.714l.111-39.115a6.4,6.4,0,0,0-.048-.742c-.007-.06-.013-.12-.022-.18-.016-.112-.036-.225-.058-.337-.015-.077-.028-.154-.045-.231s-.035-.144-.053-.217c-.025-.1-.051-.2-.081-.3-.017-.058-.035-.115-.053-.173q-.053-.171-.115-.342c-.016-.045-.032-.091-.049-.136-.059-.156-.12-.312-.188-.466l-.024-.053c-.061-.138-.126-.275-.194-.41-.021-.042-.042-.084-.064-.126q-.1-.195-.208-.384c-.013-.023-.026-.047-.039-.071-.085-.147-.175-.292-.267-.434-.027-.041-.054-.082-.082-.122q-.1-.154-.21-.3c-.039-.054-.078-.106-.117-.159-.063-.083-.127-.164-.192-.245s-.109-.134-.164-.2-.108-.123-.161-.183q-.139-.154-.282-.3-.07-.071-.141-.14a7.82,7.82,0,0,0-.6-.524c-.036-.029-.073-.055-.11-.083a6.427,6.427,0,0,0-.661-.446L3.012,2.713a5.173,5.173,0,0,0-.532-.265c-.056-.024-.11-.045-.165-.066" transform="translate(1.346 0)"/><path class="m" d="M13.752,6.036C11.415,4.686,9.512,5.771,9.5,8.456L9.394,47.571a9.3,9.3,0,0,0,4.22,7.308L47.65,74.531c2.342,1.351,4.244.267,4.252-2.418L52.012,33a9.3,9.3,0,0,0-4.224-7.311Z" transform="translate(-9.394 -3.323)"/><path class="a" d="M34.061,40.563,40.4,44.248V59.077l-2.929-5.041-3.183,1.78,5.3,9.129,3.183,5.477,3.183-1.78,5.305-2.966L48.085,60.2l-2.929,1.638V47.008L51.5,50.692a10.947,10.947,0,0,1,4.963,8.541V79.112c0,3.125-2.222,4.367-4.963,2.775L34.061,71.758A10.947,10.947,0,0,1,29.1,63.218V43.339c0-3.125,2.222-4.367,4.963-2.775" transform="translate(-21.546 -24.284)"/></g></g><path class="n" d="M196.144,102.543a3.148,3.148,0,1,0,2.708,1.548l2.278-2.279,2.779,2.779a.786.786,0,1,0,1.112-1.112l-.556-.556L211.5,95.89h0l1.111-1.111a2.361,2.361,0,0,0,.46-2.683l1.763-1.763a2.362,2.362,0,0,0,.46-2.684l4.305-4.305a.786.786,0,0,0-1.112-1.112l-4.305,4.305A2.362,2.362,0,0,0,211.5,87l-1.763,1.763a2.362,2.362,0,0,0-2.683.46l-8.147,8.147-.556-.556a.786.786,0,0,0-1.112,1.112l2.779,2.779-2.279,2.279A3.122,3.122,0,0,0,196.144,102.543Zm16.468-14.435a.786.786,0,0,1,1.112,1.112l-1.667,1.668-1.112-1.112Zm-4.447,2.223a.787.787,0,0,1,1.112,0l2.223,2.223a.787.787,0,0,1,0,1.112l-.556.556-1.668-1.668a.786.786,0,0,0-1.112,1.112l1.668,1.668-1.112,1.112-1.668-1.668a.786.786,0,0,0-1.111,1.112l1.667,1.667L206.363,98.8,204.7,97.136a.786.786,0,1,0-1.112,1.112l1.667,1.667-1.9,1.9-3.335-3.335Zm-12.021,16.928a1.572,1.572,0,1,1,1.572-1.572A1.574,1.574,0,0,1,196.144,107.259Z" transform="translate(-59.027 58.338)"/><path class="n" d="M208.275,95.248a2.03,2.03,0,1,1-1.746,1l-1.469-1.469-1.792,1.792a.507.507,0,0,1-.717-.717l.358-.359-4.536-4.536h0l-.717-.717a1.523,1.523,0,0,1-.3-1.73l-1.137-1.137a1.523,1.523,0,0,1-.3-1.731l-2.776-2.776a.507.507,0,0,1,.717-.717l2.776,2.776a1.523,1.523,0,0,1,1.73.3l1.137,1.137a1.523,1.523,0,0,1,1.73.3l5.254,5.254.359-.359a.507.507,0,0,1,.717.717l-1.792,1.792,1.469,1.469A2.014,2.014,0,0,1,208.275,95.248Zm-10.62-9.309a.507.507,0,0,0-.717.717l1.075,1.075.717-.717Zm2.867,1.434a.507.507,0,0,0-.717,0l-1.434,1.434a.507.507,0,0,0,0,.717l.358.359,1.075-1.075a.507.507,0,1,1,.717.717L199.448,90.6l.717.717,1.075-1.075a.507.507,0,0,1,.717.717l-1.075,1.075.8.8,1.075-1.075a.507.507,0,0,1,.717.717L202.4,93.553l1.224,1.224,2.151-2.151Zm7.752,10.916a1.014,1.014,0,1,0-1.014-1.014A1.015,1.015,0,0,0,208.275,98.289Z" transform="translate(-192.999 -82.001)"/></g></svg>