<svg width="9" height="16" viewBox="0 0 9 16" fill="none" xmlns="http://www.w3.org/2000/svg">
<path d="M8.44444 2.66667H5.77778C5.54203 2.66667 5.31594 2.76032 5.14924 2.92702C4.98254 3.09372 4.88889 3.31981 4.88889 3.55556V6.22222H8.44444C8.49427 6.22112 8.54362 6.232 8.58836 6.25394C8.6331 6.27589 8.67191 6.30826 8.70153 6.34834C8.73115 6.38841 8.75072 6.43501 8.75857 6.48422C8.76642 6.53343 8.76234 6.58381 8.74667 6.63111L8.08889 8.58667C8.05932 8.67423 8.00319 8.75039 7.92831 8.80456C7.85343 8.85872 7.76353 8.8882 7.67111 8.88889H4.88889V15.5556C4.88889 15.6734 4.84206 15.7865 4.75871 15.8698C4.67537 15.9532 4.56232 16 4.44444 16H2.22222C2.10435 16 1.9913 15.9532 1.90795 15.8698C1.8246 15.7865 1.77778 15.6734 1.77778 15.5556V8.88889H0.444444C0.32657 8.88889 0.213524 8.84206 0.130175 8.75871C0.0468254 8.67537 0 8.56232 0 8.44444V6.66667C0 6.54879 0.0468254 6.43575 0.130175 6.3524C0.213524 6.26905 0.32657 6.22222 0.444444 6.22222H1.77778V3.55556C1.77778 2.61256 2.15238 1.70819 2.81918 1.0414C3.48597 0.374602 4.39034 0 5.33333 0H8.44444C8.56232 0 8.67537 0.0468253 8.75871 0.130175C8.84206 0.213524 8.88889 0.32657 8.88889 0.444444V2.22222C8.88889 2.3401 8.84206 2.45314 8.75871 2.53649C8.67537 2.61984 8.56232 2.66667 8.44444 2.66667Z" fill="#8D9091"/>
</svg>
