<svg width="34" height="32" viewBox="0 0 34 32" fill="none" xmlns="http://www.w3.org/2000/svg">
<g clip-path="url(#clip0_657:704)">
<path fill-rule="evenodd" clip-rule="evenodd" d="M15.3468 2.12244C12.4016 2.12244 9.4626 2.38904 7.20584 2.93557C6.0775 3.20884 5.12206 3.54364 4.39337 3.99744C3.71469 4.42006 3.19092 5.01584 3.12103 5.74807C3.11215 5.83053 3.10817 5.8584 3.10205 5.9107V12.3201C3.10205 12.3361 3.10205 12.352 3.10205 12.368V18.787C3.10205 18.7998 3.10205 18.8124 3.10205 18.8252V25.2825C3.10205 26.0916 3.6648 26.7324 4.39352 27.1862C5.12221 27.64 6.07762 27.9844 7.20599 28.2576C9.46276 28.8042 12.4017 29.0612 15.3469 29.0612C18.2922 29.0612 21.2311 28.8042 23.4879 28.2576C24.6163 27.9844 25.5812 27.64 26.31 27.1862C27.0387 26.7324 27.5918 26.0916 27.5918 25.2825V18.8252V18.7678V12.368V12.301V5.9107C27.5918 5.86559 27.5854 5.82628 27.5824 5.78634C27.5277 5.03621 27.0005 4.42742 26.31 3.99744C25.5813 3.54364 24.6163 3.20884 23.488 2.93557C21.2312 2.38904 18.2922 2.12244 15.347 2.12244H15.3468ZM15.3468 3.34693C18.2179 3.34693 21.0953 3.6119 23.2007 4.1218C24.2535 4.37675 25.1157 4.70163 25.6593 5.04017C26.1693 5.35775 26.347 5.62685 26.3672 5.86287C26.3672 5.87845 26.3672 5.8954 26.3672 5.9107C26.3672 6.15802 26.2029 6.43314 25.6593 6.77167C25.1157 7.11021 24.2535 7.43509 23.2007 7.69004C21.0953 8.19994 18.2179 8.46491 15.3468 8.46491C12.4757 8.46491 9.59834 8.19994 7.49286 7.69004C6.4401 7.43509 5.57791 7.11021 5.0343 6.77167C4.49068 6.43314 4.32639 6.15802 4.32639 5.9107C4.32639 5.66338 4.49068 5.3787 5.0343 5.04017C5.57791 4.70163 6.4401 4.37675 7.49286 4.1218C9.59834 3.6119 12.4757 3.34693 15.3468 3.34693ZM4.32639 7.76657C4.34935 7.78135 4.37019 7.79998 4.39337 7.8144C5.12206 8.26819 6.07747 8.603 7.20584 8.87626C9.4626 9.42279 12.4016 9.6894 15.3468 9.6894C18.292 9.6894 21.231 9.42279 23.4878 8.87626C24.6161 8.603 25.5811 8.26819 26.3098 7.8144C26.3297 7.802 26.3476 7.78881 26.3672 7.77613V12.3201V12.368C26.3672 12.6153 26.2029 12.8904 25.6593 13.2289C25.1157 13.5675 24.2535 13.8924 23.2007 14.1473C21.0953 14.6572 18.2179 14.9222 15.3468 14.9222C12.4757 14.9222 9.59834 14.6572 7.49286 14.1473C6.4401 13.8924 5.57791 13.5675 5.0343 13.2289C4.49068 12.8904 4.32639 12.6153 4.32639 12.368C4.32639 12.3457 4.32639 12.3233 4.32639 12.301V7.76657ZM4.32639 14.2238C4.34935 14.2385 4.37019 14.2573 4.39337 14.2717C5.12206 14.7254 6.07747 15.0698 7.20584 15.3431C9.4626 15.8896 12.4016 16.1467 15.3468 16.1467C18.292 16.1467 21.231 15.8896 23.4878 15.3431C24.6161 15.0698 25.5811 14.7254 26.3098 14.2717C26.3297 14.2594 26.3476 14.246 26.3672 14.2334V18.787V18.8252C26.3672 19.0726 26.2029 19.3572 25.6593 19.6958C25.1157 20.0343 24.2535 20.3496 23.2007 20.6046C21.0953 21.1145 18.2179 21.3794 15.3468 21.3794C12.4757 21.3794 9.59834 21.1145 7.49286 20.6046C6.4401 20.3496 5.57791 20.0343 5.0343 19.6958C4.49068 19.3572 4.32639 19.0726 4.32639 18.8252C4.32639 18.8063 4.32639 18.7869 4.32639 18.7678V14.2238ZM4.32639 20.6811C4.34965 20.6961 4.36983 20.7143 4.39337 20.7289C5.12206 21.1827 6.07747 21.5271 7.20584 21.8004C9.4626 22.3469 12.4016 22.6039 15.3468 22.6039C18.292 22.6039 21.231 22.3469 23.4878 21.8004C24.6161 21.5271 25.5811 21.1827 26.3098 20.7289C26.33 20.7164 26.3472 20.7035 26.3672 20.6907V25.2825C26.3672 25.5298 26.2029 25.8145 25.6593 26.153C25.1157 26.4916 24.2535 26.8069 23.2007 27.0618C21.0953 27.5718 18.2179 27.8367 15.3468 27.8367C12.4757 27.8367 9.59834 27.5718 7.49286 27.0618C6.4401 26.8069 5.57791 26.4916 5.0343 26.153C4.49068 25.8145 4.32639 25.5298 4.32639 25.2825V20.6811Z" fill="#0098AB"/>
<path d="M26.9523 27.5346C26.649 27.838 26.2353 28.031 25.7941 28.031C25.6286 28.031 25.4632 28.0034 25.3253 27.9483L24.0016 27.5346L22.9537 28.4998C22.9262 28.5274 22.871 28.555 22.8434 28.5825L24.498 33.7117C24.5532 33.8772 24.8014 33.9323 24.9117 33.7945L26.125 32.2502C26.1802 32.1675 26.2905 32.1399 26.3732 32.1675L28.2484 32.719C28.4414 32.7741 28.6069 32.6087 28.5241 32.4156L26.9523 27.5346Z" fill="white"/>
<path d="M20.83 27.5346L19.5064 27.9483C19.3409 28.0034 19.203 28.031 19.0376 28.031C18.5963 28.031 18.1827 27.838 17.8794 27.5346L16.3075 32.3881C16.2524 32.5535 16.4178 32.7466 16.5833 32.6914L18.4585 32.1399C18.5412 32.1123 18.6515 32.1399 18.7067 32.2226L19.92 33.7669C20.0303 33.9048 20.2785 33.8772 20.3336 33.6841L21.9882 28.555C21.9606 28.5274 21.9055 28.4998 21.8779 28.4722L20.83 27.5346Z" fill="white"/>
<path d="M31.6674 18.1036C31.8053 17.883 31.7226 17.5796 31.5296 17.4417L30.0956 16.449C29.9577 16.3387 29.875 16.1732 29.875 16.0078L29.9853 14.2705C30.0129 14.0223 29.8198 13.7741 29.5717 13.7465L27.8343 13.4708C27.6689 13.4432 27.5034 13.3329 27.4483 13.1674L26.814 11.5128C26.7313 11.2647 26.4555 11.1544 26.2074 11.2095L24.5252 11.7059C24.3597 11.761 24.1667 11.7059 24.0564 11.5956L22.7603 10.4098C22.5673 10.2443 22.2639 10.2443 22.0985 10.4098L20.7748 11.5956C20.6369 11.7059 20.4715 11.761 20.306 11.7059L18.6239 11.2095C18.3757 11.1268 18.0999 11.2647 18.0172 11.5128L17.3554 13.1398C17.3002 13.3053 17.1348 13.4156 16.9693 13.4432L15.232 13.7189C14.9838 13.7465 14.7908 13.9947 14.8184 14.2429L14.9287 15.9802C14.9287 16.1457 14.8459 16.3111 14.7081 16.4214L13.2741 17.4142C13.0535 17.552 12.9983 17.8554 13.1362 18.076L13.9911 19.5927C14.0738 19.7581 14.0738 19.9236 13.9911 20.0891L13.1362 21.6058C12.9983 21.8264 13.0811 22.1297 13.2741 22.2676L14.7081 23.2603C14.8459 23.3706 14.9287 23.5361 14.9287 23.7015L14.8184 25.4389C14.7908 25.687 14.9838 25.9352 15.232 25.9628L16.9693 26.2386C17.1348 26.2661 17.3002 26.3764 17.3554 26.5419L18.0172 28.1689C18.0999 28.4171 18.3757 28.5274 18.6239 28.4722L20.306 27.9759C20.4715 27.9207 20.6645 27.9759 20.7748 28.0862L22.0709 29.2719C22.2639 29.4374 22.5673 29.4374 22.7327 29.2719L24.0288 28.0862C24.1667 27.9759 24.3322 27.9207 24.4976 27.9759L26.1798 28.4722C26.428 28.555 26.7037 28.4171 26.7865 28.1689L27.4483 26.5419C27.5034 26.3764 27.6689 26.2661 27.8343 26.2386L29.5717 25.9628C29.8198 25.9352 30.0129 25.687 29.9853 25.4389L29.875 23.7291C29.875 23.5637 29.9577 23.3982 30.0956 23.2879L31.5296 22.2952C31.7502 22.1573 31.8053 21.8539 31.6674 21.6333L30.8126 20.1166C30.7299 19.9512 30.7299 19.7857 30.8126 19.6203L31.6674 18.1036Z" fill="white"/>
<path d="M26.5819 26.7489C26.3161 27.0147 25.9537 27.1839 25.567 27.1839C25.422 27.1839 25.277 27.1597 25.1562 27.1114L23.9963 26.7489L23.078 27.5947C23.0539 27.6188 23.0056 27.643 22.9814 27.6672L24.4313 32.1618C24.4796 32.3068 24.6971 32.3551 24.7937 32.2343L25.857 30.8811C25.9053 30.8086 26.002 30.7844 26.0745 30.8086L27.7177 31.2919C27.8868 31.3402 28.0318 31.1952 27.9593 31.0261L26.5819 26.7489Z" fill="#FFD965"/>
<path d="M21.2171 26.7489L20.0571 27.1114C19.9122 27.1597 19.7913 27.1839 19.6463 27.1839C19.2597 27.1839 18.8972 27.0147 18.6314 26.7489L17.254 31.0019C17.2057 31.1469 17.3507 31.316 17.4957 31.2677L19.1389 30.7844C19.2114 30.7603 19.308 30.7844 19.3564 30.8569L20.4196 32.2101C20.5163 32.331 20.7338 32.3068 20.7821 32.1376L22.232 27.643C22.2078 27.6188 22.1595 27.5947 22.1353 27.5705L21.2171 26.7489Z" fill="#FFD965"/>
<path d="M30.7138 18.4846C30.8346 18.2912 30.7621 18.0254 30.5929 17.9046L29.3364 17.0347C29.2156 16.938 29.1431 16.793 29.1431 16.648L29.2397 15.1257C29.2639 14.9082 29.0947 14.6907 28.8772 14.6665L27.3549 14.4249C27.2099 14.4007 27.0649 14.3041 27.0166 14.1591L26.4608 12.7092C26.3883 12.4917 26.1466 12.395 25.9291 12.4434L24.4551 12.8783C24.3101 12.9267 24.141 12.8783 24.0443 12.7817L22.9086 11.7426C22.7394 11.5976 22.4736 11.5976 22.3286 11.7426L21.1687 12.7817C21.0479 12.8783 20.9029 12.9267 20.7579 12.8783L19.2838 12.4434C19.0664 12.3709 18.8247 12.4917 18.7522 12.7092L18.1723 14.1349C18.1239 14.2799 17.9789 14.3765 17.834 14.4007L16.3116 14.6424C16.0941 14.6665 15.9249 14.884 15.9491 15.1015L16.0458 16.6239C16.0458 16.7689 15.9733 16.9138 15.8524 17.0105L14.5959 17.8804C14.4026 18.0013 14.3542 18.2671 14.4751 18.4604L15.2242 19.7895C15.2967 19.9344 15.2967 20.0794 15.2242 20.2244L14.4751 21.5535C14.3542 21.7468 14.4267 22.0126 14.5959 22.1334L15.8524 23.0034C15.9733 23.1 16.0458 23.245 16.0458 23.39L15.9491 24.9124C15.9249 25.1299 16.0941 25.3473 16.3116 25.3715L17.834 25.6132C17.9789 25.6373 18.1239 25.734 18.1723 25.879L18.7522 27.3047C18.8247 27.5222 19.0664 27.6188 19.2838 27.5705L20.7579 27.1355C20.9029 27.0872 21.072 27.1355 21.1687 27.2322L22.3044 28.2713C22.4736 28.4163 22.7394 28.4163 22.8844 28.2713L24.0201 27.2322C24.141 27.1355 24.2859 27.0872 24.4309 27.1355L25.905 27.5705C26.1225 27.643 26.3641 27.5222 26.4366 27.3047L27.0166 25.879C27.0649 25.734 27.2099 25.6373 27.3549 25.6132L28.8772 25.3715C29.0947 25.3473 29.2639 25.1299 29.2397 24.9124L29.1431 23.4142C29.1431 23.2692 29.2156 23.1242 29.3364 23.0275L30.5929 22.1576C30.7863 22.0368 30.8346 21.771 30.7138 21.5776L29.9647 20.2486C29.8922 20.1036 29.8922 19.9586 29.9647 19.8136L30.7138 18.4846Z" fill="#FFD965"/>
<path fill-rule="evenodd" clip-rule="evenodd" d="M22.6742 13.9542C24.3018 13.9542 25.8627 14.6047 27.0135 15.7627C28.1643 16.9207 28.8107 18.4912 28.8105 20.1288C28.8105 22.6262 27.3152 24.8778 25.0218 25.8334C22.7284 26.7891 20.0887 26.2607 18.3336 24.4946C16.5784 22.7285 16.0535 20.0726 17.0037 17.7653C17.9538 15.4581 20.1919 13.9539 22.6742 13.9542ZM20.0189 16.4493C19.759 16.3898 19.4884 16.3978 19.2324 16.4724C19.2409 16.4814 19.2467 16.4874 19.2503 16.4911L19.2554 16.4963L19.3297 16.5076C19.7737 16.5479 20.1987 16.7082 20.5596 16.9716C20.7051 17.0723 20.8398 17.188 20.9614 17.3168C21.0736 17.4424 21.1954 17.5971 21.2325 17.7458C21.2697 17.8945 21.3529 18.0155 21.3922 18.1545C21.5215 18.6118 21.5749 19.2754 21.2778 19.6804C21.1746 19.8224 20.9971 19.9651 21.1345 20.1893C21.1404 20.2005 21.1182 20.2252 21.1182 20.2446C21.1069 20.312 21.1036 20.3805 21.1085 20.4486C21.1397 20.6481 21.1776 20.8469 21.214 21.0464C21.2169 21.0599 21.2244 21.0726 21.2244 21.086C21.4353 21.6838 21.6804 22.2532 22.207 22.6553C22.4298 22.8256 22.438 22.9736 22.2894 23.206C22.1357 23.4533 21.9701 23.6962 21.8215 23.9473H22.0235L22.0399 23.9166C22.1498 23.7313 22.2657 23.5535 22.3808 23.3659C22.4959 23.1783 22.6051 22.9885 22.7254 22.8047C22.7589 22.7553 22.8086 22.7193 22.8658 22.7031L22.8962 22.6971C22.9314 22.6903 22.9676 22.7029 22.9911 22.7302C23.0145 22.7575 23.0217 22.7953 23.0099 22.8294C22.9757 22.9288 22.9467 23.0334 22.9207 23.1402C22.8621 23.3794 22.8168 23.6267 22.7596 23.8471C22.8368 23.8314 22.8732 23.8359 22.9534 23.8195C22.9846 23.6312 23.0559 23.3667 23.1109 23.1582C23.1369 23.0573 23.1874 22.792 23.2654 22.7053C23.3434 22.6186 23.587 22.5469 23.7801 22.4528C23.8189 22.4325 23.8604 22.4179 23.9034 22.4094C23.9433 22.4055 23.9835 22.4073 24.0229 22.4146C24.1115 22.4283 24.1989 22.4488 24.2844 22.4759C24.5422 22.5859 24.7584 22.7756 24.9016 23.0177C25.0531 23.268 25.3242 23.4623 25.547 23.6521C25.6552 23.7449 25.8009 23.7801 25.9392 23.747H25.9436C26.0758 23.8359 26.3291 23.9092 26.4472 23.8651C26.5653 23.821 26.7398 23.7321 26.7398 23.5893C26.7647 23.5778 26.7879 23.5629 26.8089 23.5452C26.8618 23.496 26.8676 23.414 26.8223 23.3577C26.67 23.1029 26.3246 22.9885 26.0929 22.8204C25.7671 22.5853 25.4453 22.3432 25.1274 22.0941C25.0695 22.0533 25.0178 22.0045 24.9736 21.9491C24.8711 21.8094 24.8696 21.6001 24.8139 21.4357C24.7511 21.2476 24.661 21.0698 24.5466 20.9082C24.4584 20.7882 24.3769 20.6635 24.3022 20.5345C24.0928 20.1691 23.8848 19.8037 23.5543 19.5332C23.3738 19.3852 23.3887 19.2007 23.3939 18.9899C23.401 18.7307 23.337 18.4745 23.2089 18.2494C22.9274 17.7555 22.4038 17.5447 21.8616 17.5022C21.7672 17.4972 21.6755 17.4685 21.595 17.4185C21.4829 17.3324 21.3781 17.2372 21.2816 17.1338C20.936 16.7867 20.4971 16.5488 20.0189 16.4493Z" fill="url(#paint0_linear_657:704)"/>
</g>
<defs>
<linearGradient id="paint0_linear_657:704" x1="9.83403" y1="18.9576" x2="34.5623" y2="30.3959" gradientUnits="userSpaceOnUse">
<stop stop-color="#00B993"/>
<stop offset="1" stop-color="#0080BC"/>
</linearGradient>
<clipPath id="clip0_657:704">
<rect width="33.6327" height="32" fill="white"/>
</clipPath>
</defs>
</svg>
